<mxfile host="Electron" agent="Mozilla/5.0 (X11; Linux x86_64) AppleWebKit/537.36 (KHTML, like Gecko) draw.io/27.0.9 Chrome/134.0.6998.205 Electron/35.4.0 Safari/537.36" version="27.0.9">
  <diagram name="PÃ¡gina-1" id="Jqi9blvmhCx4kIIQu442">
    <mxGraphModel dx="1483" dy="624" grid="1" gridSize="10" guides="1" tooltips="1" connect="1" arrows="1" fold="1" page="1" pageScale="1" pageWidth="827" pageHeight="1169" math="0" shadow="0">
      <root>
        <mxCell id="0" />
        <mxCell id="1" parent="0" />
        <mxCell id="C3Z15jD0Rza0DjGdYUHB-14" value="&amp;nbsp; MOBILE APPLICATION" style="rounded=0;whiteSpace=wrap;html=1;dashed=1;fillColor=none;align=left;verticalAlign=top;" parent="1" vertex="1">
          <mxGeometry x="90" y="30" width="270" height="470" as="geometry" />
        </mxCell>
        <mxCell id="C3Z15jD0Rza0DjGdYUHB-11" value="&amp;nbsp; WEB APPLICATION" style="rounded=0;whiteSpace=wrap;html=1;dashed=1;fillColor=none;align=left;verticalAlign=top;" parent="1" vertex="1">
          <mxGeometry x="370" y="30" width="550" height="470" as="geometry" />
        </mxCell>
        <mxCell id="C3Z15jD0Rza0DjGdYUHB-7" style="edgeStyle=orthogonalEdgeStyle;rounded=0;orthogonalLoop=1;jettySize=auto;html=1;entryX=0;entryY=0.5;entryDx=0;entryDy=0;fillColor=#a20025;strokeColor=#6F0000;" parent="1" source="C3Z15jD0Rza0DjGdYUHB-1" target="C3Z15jD0Rza0DjGdYUHB-2" edge="1">
          <mxGeometry relative="1" as="geometry" />
        </mxCell>
        <mxCell id="I2P4XZ1bP2T7fFQFK7Hq-2" style="edgeStyle=orthogonalEdgeStyle;rounded=0;orthogonalLoop=1;jettySize=auto;html=1;entryX=0;entryY=0.5;entryDx=0;entryDy=0;fillColor=#e3c800;strokeColor=#B09500;" parent="1" source="C3Z15jD0Rza0DjGdYUHB-1" target="I2P4XZ1bP2T7fFQFK7Hq-1" edge="1">
          <mxGeometry relative="1" as="geometry" />
        </mxCell>
        <mxCell id="JBlVSo_UqL5-Rn3OWPjh-3" style="edgeStyle=orthogonalEdgeStyle;rounded=0;orthogonalLoop=1;jettySize=auto;html=1;entryX=0;entryY=0.5;entryDx=0;entryDy=0;" parent="1" source="C3Z15jD0Rza0DjGdYUHB-1" target="JBlVSo_UqL5-Rn3OWPjh-2" edge="1">
          <mxGeometry relative="1" as="geometry">
            <Array as="points">
              <mxPoint x="210" y="600" />
            </Array>
          </mxGeometry>
        </mxCell>
        <mxCell id="jZqQJDO1DeQj0pR3HVui-4" style="edgeStyle=orthogonalEdgeStyle;rounded=0;orthogonalLoop=1;jettySize=auto;html=1;entryX=0.25;entryY=1;entryDx=0;entryDy=0;startArrow=classic;startFill=1;exitX=0.25;exitY=0;exitDx=0;exitDy=0;fillColor=#008a00;strokeColor=#005700;" edge="1" parent="1" source="C3Z15jD0Rza0DjGdYUHB-1" target="jZqQJDO1DeQj0pR3HVui-3">
          <mxGeometry relative="1" as="geometry" />
        </mxCell>
        <mxCell id="C3Z15jD0Rza0DjGdYUHB-1" value="MOBILE&amp;nbsp; APP" style="rounded=1;whiteSpace=wrap;html=1;" parent="1" vertex="1">
          <mxGeometry x="150" y="320" width="120" height="60" as="geometry" />
        </mxCell>
        <mxCell id="C3Z15jD0Rza0DjGdYUHB-5" style="edgeStyle=orthogonalEdgeStyle;rounded=0;orthogonalLoop=1;jettySize=auto;html=1;entryX=0;entryY=0.5;entryDx=0;entryDy=0;fillColor=#008a00;strokeColor=#005700;" parent="1" source="C3Z15jD0Rza0DjGdYUHB-2" target="C3Z15jD0Rza0DjGdYUHB-3" edge="1">
          <mxGeometry relative="1" as="geometry" />
        </mxCell>
        <mxCell id="C3Z15jD0Rza0DjGdYUHB-6" style="edgeStyle=orthogonalEdgeStyle;rounded=0;orthogonalLoop=1;jettySize=auto;html=1;entryX=0;entryY=0.5;entryDx=0;entryDy=0;fillColor=#1ba1e2;strokeColor=#006EAF;" parent="1" source="C3Z15jD0Rza0DjGdYUHB-2" target="C3Z15jD0Rza0DjGdYUHB-4" edge="1">
          <mxGeometry relative="1" as="geometry" />
        </mxCell>
        <mxCell id="C3Z15jD0Rza0DjGdYUHB-2" value="APP MENU MFE" style="rounded=1;whiteSpace=wrap;html=1;" parent="1" vertex="1">
          <mxGeometry x="400" y="320" width="120" height="60" as="geometry" />
        </mxCell>
        <mxCell id="C3Z15jD0Rza0DjGdYUHB-3" value="NEWS MFE" style="rounded=1;whiteSpace=wrap;html=1;" parent="1" vertex="1">
          <mxGeometry x="600" y="210" width="120" height="60" as="geometry" />
        </mxCell>
        <mxCell id="C3Z15jD0Rza0DjGdYUHB-4" value="WEATHER MFE" style="rounded=1;whiteSpace=wrap;html=1;" parent="1" vertex="1">
          <mxGeometry x="760" y="320" width="120" height="60" as="geometry" />
        </mxCell>
        <mxCell id="C3Z15jD0Rza0DjGdYUHB-8" value="" style="shape=image;aspect=fixed;image=data:image/png,iVBORw0KGgoAAAANSUhEUgAABLAAAAGWCAYAAABo7HpDAAAABGdBTUEAALGPC/xhBQAAACBjSFJNAAB6JgAAgIQAAPoAAACA6AAAdTAAAOpgAAA6mAAAF3CculE8AAAABmJLR0QA/wD/AP+gvaeTAAAAB3RJTUUH6AcREBIxWUoMPAAAgABJREFUeNrs3Xl8XFX5x/HPcydp05YWKGuRfRFoWYTSZNIClk3BXbQsIqgoVAUREX4gtM1JW/ZFxBUUFxSVFlxAZJGlQJuZtAZZpAjIWhBEaKF0T+Y+vz8mKkJpk3SS3Hvn+369ePn7QdOc+zxnzj3nmXPPNUQyaMIMz70wn43iHBt5iY0wNoqcjRw2NtjEYSPK/wwG1gcih1wEwzr/ikEOdZ3/9zAg1/l/x8Drb/pVbvAasNxhBbAIWA4sA14FFhq8Ghuv4uX/vxb+sQheeiTYKmVKREREREREZO1MIZA0OuwKH/jqQrYx2DYytsPZ1mFbYDtgG2DzFFzGS8CLwAsOLwDPGDwVw1M5eKoQbKEyLSIiIiIiIqICliTc2OCbxrAH5X92A3aiXKTaogr67yLgKeBvZjwSw/zIeWTLkTw98wgrqXeIiIiIiIhItVABSxJhVPABwyJGEbM7sLvDnsDupGMnVV9bATwKPGBwP3D/0iE8+NAZtlShERERERERkSxSAUv6xdjpvo13MC6GsQb7AiOBWkWmx0rAYwZtbhTMmF2IeYRgsUIjIiIiIiIiaacClvS68cFrVpQfAdwXGNv5v+9SZHrdYqDFoBAb9w1yCrOCrVBYREREREREJG1UwJJe4NY4lfd4zGHAgUADsJ7i0u9WGLQ43Olw1yD486xgHQqLiIiIiIiIJJ0KWFIR+57vG3as5BDgUOAwdHZVGix2uMuMP1qOPxYm2QsKiYiIiIiIiCSRCljSQ275wF78t2DVCOQUl/QmFHgA+GMUcXNLTKvOzxIREREREZGkUAFLui54VB8xLoo5wuATDiMUlMx6CfitGTdsuSuzZh5hJYVERERERERE+osKWLIWbmOnki+Vi1YT0OHr1egV4PcYN9Q5f9K5WSIiIiIiItLXVMCS1Roz1UflYiYAxwA7KiLSaaHB9TH8vDUwB8wVEhEREREREeltKmDJf4yZ7lvlOvi8wbEO2ysishZPYFxbcn4+L9hTCoeIiIiIiIj0FhWwql3wKA8HAicCHwdqFBTpgTaHqzrgF23BlikcIiIiIiIiUkkqYFWphuBbmnEMzpeBrRURqQSH1yKYUYr43twp9qAiIiIiIiIiIpWgAlYVGRV8wDDjo+6cABwERIqK9KJ7HL4zCH6ng99FRERERERkXaiAVQUagg/D+Jw5Xwe2UkSkjweZFx2uqh3Ad+872/6liIiIiIiIiEgP1paSVfng2xqc6vB5YD1FRPrZCuBXDpe0BpuvcIiIiIiIiEhXqYCVQY1TfS9ivuZwNDqUXZLHgTsxrig22U0Kh4iIiIiIiKyNClhZETzKGx+k/JjgexUQSQOHQgQXFeBGgsWKiIiIiIiIiKyOClgZkA9+MHARsJeiISkdiB4BLtpyJNfOPMJKioiIiIiIiIi8Zd0oaZUPfrDB+Q77KBqSEfMNLlQhS0RERERERN5MBawUamz2g2JnmkGjoiEZNd+M6QXnOj1aKCIiIiIiIipgpcjYqd4Yx0wDDlI0pEo8anCBdmSJiIiIiIhUNxWwUqB+qu+Zi7nI4X2KhlSpee0wvi3YMoVCRERERESk+tQoBMnVGHy4QxMxJznkFBGpUi94xJfapqh4JSIiIiIiUq20AyuBRl/ptTUv8WWcYLCBIiJVrFiCj88L9pJCISIiIiIiUr1UwEqYxuAfcrgUeLeiIVXu2jr4wqxgKxQKERERERGR6qYCVkKMm+Y7xyUudfigoiFVzoGLioFvgLnCISIiIiIiIipg9bM9LvYhg5cyDTgZqFVEpMqtwPhsscmuUyhERERERETk31TA6keNU/29HvNDYCdFQ4Rlbnystcn+pFCIiIiIiIjIm6mA1Q/GB99gJVzocIJyIALAEjc+0tpkdysUIiIiIiIi8lYqnvSxhuBHGXwL2FTREAHg9SjikJYpNk+hEBERERERkdWpUQj6xuhzfURtO98BDlc0RP5jeQQfUfFKRERERERE1kQFrF7nlm/mi7RzATBM8RD5jw6MI1ua7N6kN3R88LqVNWxU6mCIRQz1mPUjiDxiURSztKOGpXEHr7YFW6a0ioiIiIiIVJ4eIexFDef6ZtbOj4EPKBoibxt8Pl8I9uOktWvcNN+5o8R7DUYZ7OLwbmBrIOrCjz9v8LjDYwbzY7i3NfAwmCvjIiIiIiIi67SGlN7QEPx9EfzUYYSiIfI23ywGOy0JDRl3oQ/tWMHHIucQh4OALSr8K14B7jbjzlIt1889215V+kVERERERLpHBawKa7zMB8WLudjgy4pvoq0EXqVcXHjV4FUHB5YYtAM4LOr8s+0YS3By/Pcx0KEGNQ4DgCGd/24DYJDDJlY+pH9DhXm17qiDw2YF6+i3FgSPGmBsBMc6fApYr49+cwm42+Dnq+B6PXIoIiIiIiLSNSqwVNDY4O+J4VpgpKLRb0rACw7PGDwNPIPxtDn/LMErNTX8a0AHr84KtqS3GzL6Sq+te5FNOmBjjM0MNnXYGOddBjsAO3b+M7iK8vOswd6FYAv745ePCj5gGBzlMLkz9v3pFeC7dXD5rGCv6aMrIiIiIiLyzlTAqgi3hmZOM+dcYKDi0ScWAg8BD2M8HDtPOjwTj2BB20RrT9OFjAu+hcOODjvGsKOVCyu7ALuSrRctlOKIA+ZOsfv6+hePDj64xvhS5Hw9gY/1LnL4du1ALp/9DVukj7aIiIiIiMjbqYC17gvjjQfAtQ7vUzR6RWzwaAwPmfGgOw8DD7UGez7rF975OOqewN7AaGBvg1FAbRqvx2Fqa7Cmvv69+Wb/MM63gO0SHqKFbkxtdb5NsFgffRERERERkf9SAWsdNEz10RZzA7CNolExy4C5wGyMljqnoMer/mt88LqVsIfD3g6NBgcAW6Wg6a11sG9fnntVP823i0p8C/hwytI82yK+XJhiD6vHi4iIiIiIlKmA1UMNzf45c74H1CkaPefwmsFdBvcBLatG8Je0PQLY3xqD7+jGAe4c0FnQ2jxhTWx32Kc12EN99QvzwQ93uNrKB+unUQfGpGITF4G5ermIiIiIiFQ7FbC66bArfODChXzLYKKi0SMO/AW41eGWQVDs17fRZVBD8JERHOjlYtZBwPr93KSLisHO7ItfND543Qq4EDglI+m80eBz/XXovYiIiIiISFKogNW9wsCWBjOBvKLRLYuA24FbS3DrvGAvKSR9o/OtewcCH3f4KLBZHzfhmXYY1RZsWW//osbp/i7v4GZgz4yl8WlyfLA42R5VjxYRERERkWqlAlYX1U/1/aKYGSTv8axEcngtgpvcmPmGc9sjwVYpKv0seNQQsZfFfNjhKIOd++C3HlkMNqO3f8mY4NvnykXSHTKavUVEfLg4xeaoI4uIiIiISDVSAasLGpr9JHMuB2oUjTV6A/g9xowNN+T2W06xlQpJgvt18D0MDgc+Te8UfuYVAw29fYZTffB9IrgZ2DTjKVsWG0fMbbKb1XtFRERERKTaqIC1JsGjPFwCfE3BeEftwE1m/GKgc8usYCsUkrRxGxvYL4bPAZ8E1qvM38qBrU12d2+2PB98b+BuYFjVfN6Mjxab7Bb1WxERERERqSYqYL2D0cEH18IvgI8rGqv1d4erY/ipzrTKjvHB11thfALnc8D+6zBG3FEMdkhvtnXsNN8hLjGb6nusdxkR79PjhCIiIiIiUk1UwFqNhnN9M2vn90CDovE/VgK/M+OHhSbu6u1Hw6R/dZ4rdRxwPLBVN3/8kGKwO3qrbWODbxrDbGCnKk3Pq+TYTwe7i4iIiIhItVAB6y3y03xXStwMbKdo/MezDt/pgJ+2BXtF4agu44PXrIDDHU41aOzCj7QVg+3TW+0ZfaXX1r7IfajA/GR7HaPbzrLX1UtFRERERCTrdCj5m+SDj6fEb4ANFQ0w+LMbl9Q5N8wK1qGIVKfO3M8AZjQGr/fymXCfAGrfoeNc3JvtqX2RC1DxCmCHASv4ETBBoRARERERkazTDqxO+WY/BufHwIAqD0UM3GwRlxam2D3qGbI6DcG3jOAkhxOB4W8aUF5cNYJt2iZae2/83vpm/2Dk3KSx67/cOLm1yb6rSIiIiIiISJZpEQjkm/1LON8BoioOw0rgGoPLCsH+pl4hXTE6+OABxrHunArsApxXDHZOb/yuznOv5gMbKfJv+ezm2EvnYYmIiIiISJZV/SOEDcFPx7mI6i3mtRv8pKOG6fMm2QJ9JKQ72oItA64Ev6q+mQ94jod663fFcBEqXq3OQC/xA/DxerGCiIiIiIhkVVXvwMo3+5k4F1Tp5cfADQZnF4L9XR8FSbKG4Psa3It2ja5pMD+mEOyXioSIiIiIiGR0zVOdGoNPdZhchZceAzfkckyeM9ke00dAkm7CDM8tmM9fgN0VjTUO5i/GsEtrsMWKhoiIiIiIZE0VPkLolg98x+HLVZjvP0TwjZZgf1XXl7RY8ChHoeLV2kc2GBEZJwHnKxoiIiIiIpI1VbUDa8IMzz03n6sMjq+yhe1jbnx9bpPdrC4vKeu9lg88BOymWHTJq3Ww7axgSxQKERERERHJkqp5617nY0i/qLLi1UKMUwbBbipeSRo1NvMxVLzqjo1WwhcUBhERERERyZoqKWC5LZjPD4CjqiSvHQZX1Q5gl2KTfXtWsA51dUnlJ9f5P0WhmzGD08cHr1EkREREREQkS6pgkVM+84rq2ZVwTynipHlT7BF1b0mz/DTflRJ5RaLb3rUSDgZuVShERERERCQrMr8DKx84n+o4sP11N04twoEqXkkWeIljFYUexg7FTkREREREsiXTh7jngwegqQry+IdSDV+eN8kWqEtLJgSP8vAMsJWC0SPL2+sY0XaWva5QiIiIiIhIFmT2EcKGZv8qnvni1T8N/q8Q7Bp1ZcnU5xfGouLVuhhUu5IPAdcqFCIiIiIikgWZfIQw3+xfMuebGc/dT2oGsquKV5JFVj7DSdaFc5CCICIiIiIiWZG5HVj5Zj8G5ztk9/HIV9z4QmuT/V7dV7LK4QBTGNaVClgiIiIiIpIZmVojjg2+fwy3AwMzmq87rIbPFibZC+q6klWjgw+uhYUZ/hz3mSjHji2T7UlFQkREREREUr++ycqFNAbfJYbfZXTRuxLjrCK8X8UrybpaqEfFq4qIS+ynKIiIiIiISBZk4hHC0cE3drgJ2DCDOXo0gk+1NNkD6q5SFYxdcYWhQnZRCEREREREJAtSvwOr83GjPwA7Zi05DlfaMEa3BBWvpHqYs7OiULExRLEUEREREZFMSPcOrOBRLfwcaMhYXlYCJ7cG+5G6qFQbFV0qxxRLERERERHJiFTvwMrDJcDhGcvJAoP9iypeSfXaUSGomB0IHikMIiIiIiKSdqld2DQ0+0nA1zKWjz+1w96FYHPVNaWKDVcIKmbAeBisMIiIiIiISNqlsoCVn+rjzPlmhvLgwBV18IG2YK+oW0qVW08hqJw3ahmqKIiIiIiISNql7gyshuBbEnMDUJuRHCx3OK412PXqjlLtDrvCBy5ayABFonJy7QwFXlQkREREREQkzVK1A2v0lV5r8Gtgs4zE/1WH96l4JdL5gVii3Ve9YJhCICIiIiIiaZeqHVg1L/JtYFxGYv93z/GB1sn2hLqhSNngVZRWKAyVHuQ7FAUREREREUm71OzAamj2Yw0mZiTuLe3QqOKVyNssUQgqLMcbCoKIiIiIiKRdKgpYY4O/x5wrsxBwg+vr4CAd1i7ydrOCdQDLFYkKKqmAJSIiIiIi6Zf4RwhHB984ht8Bg9IebIMLCoGzwVxdT+QdLcnC5z0pfJgKWCIiIiIikn7J3oEVPBoA1wLbpH4RCd8oBPuGilcia/VPhaBilhROM+1oExERERGR1Et0AasBTnN4X8pj7AZfaw12gbqbSJc8rhBUzGMKgYiIiIiIZEFiHyEcG3y3GKalPL4lMyYWmuxqdTWRrnF4zBSGSlEBS0REREREMiGRO7DGB6+L4ZdAXYpjWzI4XsUrke4xU9GlYrFUAUtERERERDIikTuwlsMlBrunOK6rgKMLwX6jLibSPW78VSfFVSiW8FdFQUREREREsiBxO7Dqm/2DBl9OcUzbMT5ZVPFKpEe23oUHgEWKxDrzdrhXYRARERERkSxIVAFrv/N8k8j5EZDWI3BKDscVm+wmdS2Rnpl5hJVMhZd15vBgW7BXFAkREREREcmCBBWw3NpX8WNg89SuF40vtQb7tbqVyLqJjbsVhXVjcJeiICIiIiIiWZGYAla+mS8CH0rxYvGUYpP9UF1KpAIDk3OborCOY5Jxu6IgIiIiIiKZWScmoRHjgm+Bc35ag+jwjUKw76g7iVRGIdjfgPsViR57eaBzp8IgIiIiIiJZkYgCVgmuBNZPaQyntwa7QF1JpLIMfq4o9Ni1s4J1KAwiIiIiIpIV/V7Aamz2o0nvo4M/KQabrG4kUnkGvwTaFYkexC5S8U9ERERERLKlXwtY9ef5Ru5cntLYzXoDvqguJNI7WoK9DNyoSHSPwZ8LU+wvioSIiIiIiGRJvxawcqv4JrBpCuM2vw4+/kiwVepCIr06QE0HXJHoBuM8BUFERERERDK4Puwf9cEPdPh0+taGvBjV8IFZwV5T9xHpXS3BHgC9kbAbHi04v1cYREREREQka/qlgDU6+OAc/BCwlMVruUd8vGWSPauuI9Jno9R0BaFrDKYTLFYkREREREQke0vDflAL0x22T1msShhHFqdYq7qNSN8pTrE5Dr9TJNaqbcuRXKcwiIiIiIhIFvV5ASs/zXcFTk5boMyYXGyym9RlRPpeXMMpwBJF4p1DRMRJM4+wkkIhIiIiIiJZ1Pc7sEpcBtSmLE43Fpq4QN1FpH/Mm2QLHM5VJN7RldodKiIiIiIiWdanBax8s38YODRlMXq8vY7jwPQmNJF+tAQuAx5SJN7mhZqBnKMwiIiIiIhIlvVZAWtU8AE4l6RtzVyKOLztLHtdXUWkfz0SbJXn+CSwWNH4j1IMx83+hi1SKEREREREJMv6rIC1nvEV4N0pio0Dn583xR5RNxFJhtbJ9gTGiYrEf0yZG+wuhUFERERERLKuTwpYY4NvijMpTYExuLQYbIa6iEiyFJvsOuCHigS3FNHZfCIiIiIiUh36pIDlMM1gg7QExaEwEL6h7iGSTO0jOAm4pYpD8FAdfIpgsXqDiIiIiIhUA+vtX1A/1feMYtqAXEpissRz7N062Z5Q9xBJrtHBB9fC7cC4Krv0J0uw77xgL6kXiIiIiIhItej1HVi5mItIT/EKjJNVvBJJvrZgy+IBfNSgms6p+0cJ3qfilYiIiIiIVJteLWDlp/o4h/elKB43FJvsZ+oWIukw92x7NTeQ/YA5VXC5Txq8d16wp5R5ERERERGpNr27Aytmeopi8YKht5uJpM3sb9iidnifwc0Zvsx5tQNoLAT7uzIuIiIiIiLVqNcKWPngBwPjUxKHOIbjCsEWqkuIpE9bsGWrRvBx4AcZvLzfLBvCAfedbf9SpkVEREREpFr12iHuDcFbDBpTEoeLisHOVHcQgPrzfCNfxfoAFjHUoObN/z2KWdoBq6ihPe7g1bZgyxS15MgHP9zh6jS9+fQdtGNMLjZxEZgrsyKSNKODD66B4TEMMKixiKFv/TO5mJXtsCyqZemSdhY9EmyVIify38/QoIEMZCVDV0JNDjbw6L/rs1xMqR0WA8SwePuRLJp5hJUUOZH0aLzMB3UsY2OLGW7OcGC4wXB3DBhm1nleuDMIY7nDEpz2yFgUwyo3FtZEPDeggxdmBeuo9nj2SgGrIfgHUvQ4zxM2jD0Lp9lyfbyyzq1+GttazI4G2+JsC2wLbANs9KZ/urszcTnwisOrBi8CzwDPmPG0Gc8MiHl0VrAlin/faZjmO1mJXwN7p/QSnozhqLnB/qxsikh/GBd8i/aIHazzXmnONsDWwKZvul8O6sFfvRRYZPAS8ILDcw7/MHgqjngstx6Pa04mWXHYFT5w0UJGGezmsD2wtcMWBlsBWwLDevDXvg4sAl4F/uHwnBkLgOcx/u4xj7YGW6zoi/TtPbPDGBU5oxy2M9jGy5/zrYGNK/RrOijfL58FnnHjEYf7vZb7555tr1ZLrHuhgOWWDxSB+lRUNIxDCk12pz522TI+eM3yiD3NqXdnT4Pdgd16OFFY534GPAU85PBwBH8xaGkJ9rIy1ct9wDjJnKn9lPeeaAe+XwfnqOgpIn1hwgzPvTCf3WNjDP6fe+UelAtU/SEGngPmG7QB9+fg/tnBnlO2JMlGX+m1A15kjMO+wGjKc8+deMtO/j7yHDDf4WFgblRDoTDJXlCWRNbd2Gm+g5docGig/GX5KGDDfm7Ws5Tvma0W8afCFB7I6hMcFS9gNTb7x935TRou3uHK1mBf1Mcw/Tq/4drPYH9gnJcLqOslvNmPAy1mzM45f9LkvHc0Tvd3eQeXAkcmfDC+vQRfmRvscWVNRHptTLzMB8WL2Q8YZzCO8v1yaAqa/k+D+9y414xZhZhHCBYro9JfJszw3IK/kbeYg7w8/2wEBie4yc8DLQ535mq4rWWSPassiqzdmKk+qibmEIcDgTywSQqa/TJwB8bt7TXc3naOvZiVfFS2gBU8ysMDlL9xSLp/tNcxsu0se10fy3TKB98W4zCcwygPKENS/mF8BLgF49bFzn06J6Sy6qf6nrmYrzt8CjqfNU+GORgXFpvsJmVJetv44Ou9UZuKYgVD2/mXznqojHHTfOeOmEPNORR4Lz179C9pXgVuw/hju3NbW7BXlOnKGH2Brz/Ie/lN5V20uIZVD51hS5MSmz0u9iGDl/J+4MPAB1OykH0njwK3EnFDcQotOm9zNWPnhT50RUfivxDXPbMX8l5awQfc+YDBwcAWKb+kGLgP+HU7XJ/2+2VFC1j5Zv8wzo2puHDj8EKT/VYf0XQZM923ikocbs4EYCy9+CKC/uTwWgQ3uTGzfXNubZto7cp+hfrQVB+VizkL+CRQ10/N6DC4OYYLWoMV+y0WwbePYJfWYH9Uz6gO+eDTgXNScZ+O2Lswxf6irPXM2OC7lWCCwRHALhm/3BLQinG9OzNbgz2vHrBO48QCyuczJWGhclch2EH92YZRwQesZxxmznHAB/px7tCbFgAzY/iVzt/8r8bg5zuclZK1w56twR5S1nqc6+EOHwEOBw7J6Occyudo3eHGLwc5M2cFW5G2C6joM9nunJ6GaoLB9SpepcfoC3z9mhUcY3AcHdST0aLVW/roBg7H4hxb+yKv5IPPAK4uBrtfPWLdzJtijwDHjr7ATx6wgo86HAsc1Ef9aj7GNSXnZ/OCvdSfcRh3oQ8tLed3DksAFbBEsjABLz8y/Tng6BhGWvVceg4YizPW4JLG4HNi47rI+VUh2EL1jPTy8hlS/aI++D4RfAY4Cq/YIcxJtRVwWgSn5YPfD3x/2RB+laTdbyKVNmGG5xbM5wDgRIePAgOq4LJroLwjezlckQ9+TZzj8rmT7ekUrZMrY+xUHxPHzE3BNb/RXsvOWXoONKsapvroKOZEh2NI+eOBFTQf4xpzfqhJeeXsG3zrEhzscKDBgQ4jKvRXvwrMcrjL4Y6knG/VecO+kfI3yUQR9S1TbJ56QvZpB1YGlY9vOBA4Efg4/XNgdFKtBG7E+PlWu/LHmUdYSSHp0jiRmB1YgLfDem3BlvXFLzvsCh+4cBFHmHMy6XghVW96HfhRDi6bE+wf1RgA7cDKbF53dPgi8GlgM0WEEnAz8M1isFlJb2zFJjlxzNdT8uE+T8Wr5Bp9pdcOeImPuXM6MfV6GP9tRuJc4DCpMfgv4xyXtE62JxSWddN5gP6PO/+hPvi7o/Irr99tsDPw7s4b3BDKLwf493kIy4AlBku8fFjiU5TPlHg8gvktMD+JhwwvmM836SxeAXjMV4Dj1BNEUnS/vMDXr13BROArCSo2JM1AYALOhOfn81Q++HcdftQabLFCkxo2IGIHym/T6zVjg28awymLFnKCwaYKOwDrA18vwcn54D+Jc1yUpl0aIm/VEHxfg1O8/JhgThH5jxzlxyc/kg+e+LN5K7IDKx98W+AJEv6tn8FTGwxn5C2n2Er108ROxE8B3qWIdFkHcD1wsR4v7GtuaTzwtDH4VIfJb/nXK72WbVrPsX8qr9mmHVjpN3a6bxN38FXgC6Tj7YFJ84bBjzvginnBnlI4VjtOJGkHFsAnisF65Q3nDef6ZtbO1ygXggcr+2vUbvATg8ktwV6uhgvWDqwMrDGv9Nqal/i0OWcAuyoiXe5PhchoLjTZbUlrW0UKTganehq2rBunq3iVLHtc7EMGL+NkVnAmsKEi0qPP8FHAUfngd3jEWa1TrE1h6ZMBJY3Fq1NXU7wCGGjtnABMV15FkmnMdN8q18HpcQcTKe8skp4Z6vDVHHwlH/yGXI7JcybbYwpLoufvFT8Ha9/gW3fAJNr5DNVx7k0l1Hr5rKAJDc1+bsfmXKGXDElSjb7Sawe8yNH+IpPox7P00jvs0ujOrfngdzqclqTi6Dq/Ind88A0cPp+CPNytg9sTNKgEH9zY7GcMXsozOBeg4lUlHGwx8xqDz2wIPlLhkDfLBz/N4Ztr+CMTxwfX2TkiSbtfnusj8sG/nevgCcq7lFW8qtwceEKpxCONwa+pD/5uhSShvHKLz/rzfKN88As64G/ACah41RMbmnNJ7Yvcn5/qDQqHJMmEGZ7LB/9C7Yv83eFnqHi1rg4yaMsH//5+5/kmSbl5r5OVxpf473kwSVWKI76m/peIWYg1NvuEWpjvzkWQ+be69DVz+KTBw43BrxkbXOc4CPlmPxO4dC1/bMvl8DFFSyQZRgcfnG/2ptp2/g6cjApXvSXncGwEf20I/p2kTNDlTTPHCixAxwevyzf7OdEqngLOBAYpsutsN2LmNAT/5ujgevxSkjDfPWzBfB4AfghsrYhUTA3wxVWreDwf/IsEj/qzMev0y0cFH+Dlt3Qke0UPV8+dYg+q7/Wv+uD75AP3uTMD2EYR6d3PtsOxJXgs3+xnHnaFa+FTjYJHDcG/07nLsStj5ckKmki/L9ct3+xH1sKjOAGdy9NXag1Oal/FEw3BzxofvE4hSciEZh0LWPlm//BKeARnOjBMEa2onMGptdBWP9X3VDikP4yZ6qPywf+E80dgN0WkdxhsAHw/D/eNDd5vcV6nAtYw46PAFgmP9RJb/Zkv0kfGB98gH/yqCOYC4xSRPh5onAteW0jb2KneqIhU1eduvQa4weCkbvzYexun+u6Knkj/GDfNd24IzML5Nfr2uL+sb3D+CvhrY7O/X+Hofw6bjw/e7ac96qf5do3Bb8O50WF7RbJX7RLFFPLBv6hQSF9pvMwH5YOHXMz9wMGKSJ8ZG8Nf8sG/1ZOxeV2tUwHLnRNScNP7drW8KSORA0vwD60ov/r4BCr01kvp0edgVBwzpzH4leMudL21KuMagm+5Au6xHjwSGMfdKniJSAWMD17T0OxfLZW432B/RSQRdug8wPamMdN9K4WjX9kq2LEbsx5rCH5iVOIhh/cpfH1mEPD9huC/1A5G6W35Zj/MF/MI0ITOsusPNcApK+CBscH7dN7S4wJW/TTfDjgo4YFdHMEl6l99b7/zfJN88OsdbiJZr2Ku6gmgw4ml5fy1odkPUTgyekMPfrDB/cDePeok8OnxwTdQJEX6Rv1U33MFzDXncvS4YBJ9KNfBw43Bj1co+o938U2EY4Jvnw/caXAlyT+jN5uTTTh6BdzZcK5vpmhIpTUEH9YY/MrOxwW3U0T63Q4xzGoMfuUeF/uQvviFPS5gRSW+QAUOge9l3ywEW6h+1fcL6PZVPAB8QtFIpK3NuS0f/Fs6Gys7xgevyQcPwG3AuhxCPGSF8TlFVKT3l+QNzf7VKKYV2EvxSLT1Ha7OB79lXPAtFI5++LTAmt8SGTzKN/vXcuVd/wcoYv1urLVTaAy+o0IhFVtjTvVxBvc7nKhoJIo5nDhkKQ/VT/X9evuX9agANT54jZH4Bc6i9ro1vjJeKr+ArssHv6BzAa0JXsIHGuCU1xbS1hB8D4Uj3cYE33453Et5G/W6f7HgfKm/3zAikvHP7OYNgVs6d13pi4T0OLQEDzQG/5hC0cf8nXdgNU73dzXCLJzL0C7GJNkOuLc/D3uWbBgVfEA++GXE3AvsoIgkdZhm+yjm7nzwc8cHr+mt39OjBcpK+JDDiITH8JK2s+x1daU+XUAXKL+aWAvf9Aw0owwKDc1+rKKRPhNmeK6h2b+eg4cNKnlI/06Npm+wRXpDQ7MfkIMHDXRAeDpt4vCbhuDfHBVc5670nR3f4fN0iHfwF4f9FKJEzjNHxDCrPvg+iob06J4ZfMuhcDfwNa0xUyEHnL0C5nQeOVVxPeoETuIPb/9XHVyh/tM38s1+WA7mGbxH0UilweZc0xj8Sk3G06Nxqu/1/HyK5lxCL3zj7M6nFWWRik/ETzTnNmBTRSPVzODUYb04QZe3ecsOLLd8s59pzi2s22Pz0vs2MvjT2OBaJ0i31Ac/0ODPwFhFI33pi0r8pSH4Jyv9F3e7gNX5JpZkf2toXDor2BL1m97m1tDsk3H+AAxXPFKeTThxKNw1+lwfoWgk1+hzfUQ++I885s8OvfmN5idGB9ejGCIV0Pmq7593Hixdq4hk5r65T1RiXkOza8dq79v03y8Y2fd83zAfuB3nAsrf9kvCGWzg8Mex01yPf0mX1pj5Zj8ngj8BehlAeq1vMCMf/NLRV3rF5j7dLmDlShyf8JvFG3XOleovveuwK3xgPvBzc6ai7ZxZMq62nT83TnUdKJy0xFzoQxuafXJtO48Dn++Dz93QAcZHFXmRdTM2+Ka+mFmgXY0ZtZE5t+Wb/QSFonctgx3rp/l2HSuZAxysiKSLw4i4xJ/GBtcOVFnjGrMh8FOc6VpjZoIBp9W+yF37necV2S3b/U6R/MdKfjgr2GvqK72nMfjwRQu5DThG0cikLTzm3obgH1Ao+l9D8GH5Zj+ztJxnOgvGffZacD1GKLJuxgTfPob7gHpFI9Nqca5qDH5lbx5cW+0iODoqUQB2VTRSa7sYfqO3YMvq1J/nGy1ayG0GxykambNv+yoKDcFHVuBe0I1OVT6AL8mvQ+2IanT2VW8aO8138PJh7e9VNDJtPYPfNQY/XqHoHw3TfKd88EsNnu98TKI/HtN9X8O5rq3bIj25X071xhy0Au9WNKqDw4krYIYW573mNPQ4URaMW7iQqxQGebN88G2jVVpjZtwOwJzGZl+n46i6VcDKwZEJD8r1LZPsWfWN3tEYfJe4xD2ajFeNWocfNTT71xWKvjE+eE1js388H/x2K/FY52R9aD82qYYOjlJmRLpnbPD945jbgY0Vjarz8UULubUh+DCFQmT1DI5rDH6yIiEA+Wm+K+XdyjspGpn/7G/gzh8am31iT/+ObhSw3BwmJDkgMVyqbtE7Gqf6Xg73Au9SNKprnDHnknzwCxSK3rNv8K3zwaetgGfd+Q1wSHmMT0AHcI5VhkS6cb9s9vfHcCt9+LivJM74CO4cHVwFTJF3WlnCJTpzVfLB96a8QWJLRaNq1Ljz/cZmP6MnP9zlAtbYqeSBbRIciFlzg/1Z/aEXBpap3hDH3IVeU1zNzswHv1Bh6B0d8DFgErBFAps3esxUH6UsiaxdY/APufN7YJCiUfWL831q4c7683wjRUNktQZ6zAztVqxeY6f6GNAas0qZOxflg0/r7g92uYBVijki4UH4pvpB5dVP9T2JucVgA0Wj6v1fPvh0haHy6uAaYHlS25eL+ZSyJLJm+eAHO1wP6Pwj+bc9bBV3NAYfrlCIrNaOEVysMFTnGjOOuRVYX9GoapPywb9L8C7Xpbr2B4NHluzHB5/baiQ3K/+VNW6a7xzF3AZsqGhIp3Mam/0bCkNldb45dUaCm3i0siTyzhqC54HfouKVvIXBexz+qF0mIqvncEJDsx+iSFSPxqm+exRzB/3zgiJJni830PUX8XWpgDUW9iXJZx8ZP555hJWU+woOLMF3jEvcjd72Im+daDjnNQQ/XZGo+ATuRwlu3naNU313ZUlkNXOk4O8BbkFnXsk7azC4UW8nFFn9Ss6cq8YH1xhaDffMab6Dx/wJveRE3jwIwEn54KErf7ZLBawSiX58MI5y/FRpr5zRwTd2uMVhhKIh7zDIXNQQ/NOKROW0BpsNzE9q+9z5iLIk8paJ+HTfJoZb9Zi9dMF7Fy3kp+CmUIi8zbYrymeBSobVn+cblUrcjDZIyOo15Zv9a2v7Q10oYLlFcHiCL/TWlkn2rPJdGY2X+aBauAnYUdGQNTCDqxua/QCFoqKuTmzLnA8pPSL/Ne5CHxp3cKMm4tINR+UD5ysMIqv1tfrg71YYsrvGjFZxo8HOioasYb1xaT74Z9f0R9ZawMoH9kryThw3rlKmKyR45Iv5BZBXMKQLBphz/bhprhtRhcQD+BmwMqHNqx8TfHNlSQQmzPBcaTnXAXsoGtJNZzY2+0SFQeTt80od6J7pNea1wFgFQ9bCgKvywce/0x+IuvBXHJbgC3ypY3P+qDxXRgNcQLJ320nyDC+V+MO+57sO+q+AuWfbq8DvE9q8qMb4oLIkAs/N5xJI9PxIEsydb+en+jhFQuRtPrKmhaukUx6mAB9XJKSLaoHr66f5dqtdkKz9LpvoCdqP2yZau3K87hqb/eMGOphbemLHjpVcN2GG5xSKivhhclddfFjpkaqfiAc/wuBURULWaXIec/244FsoFCJvM10hyNQ98yPAZEVCumkjK/Gb0cEHv/U/rLGA1bmroiGxaykd3l4RjcF3ceenlLfsifTEIQvm6+ZUCcXAnQZPJXLMhYMbL/NBypJUq87zWX6oSEgFbN4B148KPkChqBol4GlgjsHtwEyHH1N+C/FM4A5gHvBqlcdpXGPwQ9VdMpDI8jEj19DFF8dVqUXA88ALwBsKx38ZvKcWvvfWf1+zph/qWMkha/sz/ej+1sn2hFK7bhqCD/PyI0vDFA1ZR5Mbg/+5EOwPCsU6Ddcem//UnKkJbNyQ0hscCNysPEm12eNiH5Jbym9c98sYeM7gcYfHMJ5weM2cpcBig8UdEUtzRhyXGBLBBmYMjZ0hBlsA76Z8iO/OwCZVPjlvHArTgDP1CcucfwEFM4qx86DD35fCM48EW9WVH26c7u+KO9jTYG+HD1h5Q0HVFAEcmoFb1Y3Sq/EyH1RazPXA+lUagg7KBevHgMccHjd4PMqxIJdj8bJVLG0LtuxtPxU82ncg669cyYa1sGXJ2B1nd2APg1FVuGb/TEOzz2ttsu/++1+srTiV5McHr9PQUJHJ0/c7J5Mi6ypyuGbMdN9z3iRboHCsw8TNuc5IZAELKz9GqAKWVJ3BS/mmlyeP1eYVg1lu3BUbLbn1eLxwmi2vyAIn+HA3Gtw5wOBA4D1AtT2OfnrjVP9jYYrdo09Zqi2jvIPqJs9xz7p+yV6YZC9Q3pHxR2D6mOCb54wP4xwH7FsF8axvnOrv1eciveLFXGywWxVdcgl4oHMcuMOGMadH98pg8ezyrqxFlJ/IuPfN/3nMVB+Vcz7UeaxHI1VQ2Dbn0sapfm9hij0MayxguRm83xO6votzzNTQsI4Tx2af4M6nFAmpoA1zHfyc4AcSLFY4emZusMfzwR8igW84M/gQuIG5MiVVc78M/iGHE6roklswrnfnztbAw731eS8EWwjc0vkP44NvsNI4wJ0jgY8CdVUQ68hjrhkffM9ZwV7Tpy1VlgDXA79thztWu5uiQuYFe4ny48s/rA++TwRfAyZQPuw4kzzm64AKWCmUb/YP43y5WsYAh5mD4N5ZwZb09i+cN8UeAR4BLmw41zezdj4OnAjsleE4D/SYn46+0vNtE639HQtYjVN5j8eMSOr6bu5ke1rDQ8+Nme5beQdXKhLSC97bYHytFS5VKNbJTBJYwALeVR/YaW7gcaVIqsHo4Bt7dZx79Rxwjee4pr+OaOgs4PwW+O3oC3z9ASv5ZOwcZ7Af2T6nc+sV8B3g0/rEpcJsg58MhBl9sWB92yIo2J+BY8YEn5yDS8ju290+2Bh8l0Kwv6nLpWiNGXxznKszPGbHwD0GP106hBseOsOW9ldDWs+xfwI/AH7QGLw+hokGRwJDMhj3vWtfZAow+R0LWB4n+vHBGRoe1kHwqKaDax02VDCkN5hzbkPwP7UGe0jR6PHdcUZUPhslcSLjvaACllSH2vLkcPPMjtdwu8PFRbgrSTtn286y14GrgavHTfOdSyW+AXyK7O44OaYx+K91jmRirQR+bnBpUgoq84I9BRze2OwH4Xwrg484Rw5fAr6q7pceOfgu2TzfcLnBVQ6XF4M9k7TGFYLNBebWn+f/F63iDOBkslfIOqsh+M3RGiY0ByW04R7VcIOGh55rML7k5W8zRXrLQOBn44PXKBQ9MzfY48CDyRyFea8yJFVxvwz+AeATGb28OxwaC8HeXwx2R5If+54z2R4rBvtsVMNOwBXA8iwmxOG744Ovp09eoiwBrnDYsRjshCTuBio02Z2rRrAX5YPP44x9Jo4bHXywumFK7pnN/gng8Ixd1nKHy9tr2aEQ7NQkFq/+Z/1wtr1aDHZWBNsD38zY/bLG4OLVFrDGB69xqE9owwstk+xZDRE9My74FjjTFQnpbQbvWQGnKBLrJKm7TVXAkswbH3w9K+++yhSH22IYUwx2SGuwYpra3jLJni0G+2oOdgR+mcFut/UKCPr0JcJK4FKDbYrBvtoa7PkkN7ZtorUXgwWMjwGvZmguuUGNZfZLhExpDD7cnO9k6JI6gCtKsH1rsK+1nWMvpup+GezlYrDTohp2BW7KSE5+3Q4fX20Ba3nEnkAyvwEybtQQ0XMxfM9gA0VC+si0sdN8B4WhZ6JcYt+2uuWY4NsrQ5Jly8uP8G6VoUt6CeOo1mCHdp6hk1pzgv2jGOwYNw4EHs1Y1/vq2ODv0Sew3zgwowQji8FO73zRQGoUm+ymqIbRQGbOjTLneHXLVHxwLiI7j9vfbxH1xWBf7XyBQmp1fvHzESuflZfWt8S/7MYni8GObgv2ymoLWBYzLrEfDi+/qUa6r6HZP+Hlt/qI9JXBcSlT38b07U1nsj2Z1MVZ5zlYItm8Xwbfw+ArGbmc2OHKOti12GTXZSlPrU129xvwHodvACsyclk1MVymT2HfM3jEYN9isCM7z5dK7YK1vXxUSGtGUrN/43R/l3poctUH3wf4XAYuZZnDGXXQUJhif8lSjgrBflcHI0nfS2lm1g5gt9Ym+88RUu90BlYiC1gGL5Zf5yzdddgVPtCcCxQJ6QeH1jf7BxWGnnG4LZHjsc7BkmwvZC8Bchm4lOfjiPGtwb7Y+Ya/zHkk2KrWYBfEEXmy83KJAxqDf0ifxD7TDkzfYDijC8FasnBBbcFeWTaEgwxuz8DlRN7BkeqmiZ2pWgSXr6GukBbFEuzeGuySWcE6spipWcGWFIOdSPlsz6TvLv2XGUcUgx1x39n2r/8ZEN7hB8YmdCH3RzDXQNF9ixbydcpnRoj0w8yDyw+7wgcqEj2IXUILWOgcLMmozoPbD8nApdxTgjFzp9h91ZC3uVPswdwg9nH4VSaWhHCxXoTSJx6MoL4YbPItp9jKLF3YQ2fY0qVDOBwoZuByjlJXTabGwNGQ3Ke3uuiHGw5nfJp3XnZHMdhvHPY0SOr84IYIdis02cx3WBv9r3zwbYEtE3ozv1XDRA8m4+f6ZsCZioT0ox0XLuJkhaH7BsIskvkGkW3HTvdtlCHJkgkzPBeVz/FIM3c4f6uRHJT2szu6a86Z9kZrsE8BXwJWpfxydlmOzv7pTQY/b4exLcEeyOo1PnSGLY0H8CFgfsovZUznGlUSZHzwOifVT/iscphYDHZi1grYa9Ma7PlVIzjI4coENesVh6OLwT7ZEuzld/pD0WpG86RWUDsGwR0aKnqgnWZgmAIh/bukYtL44BsoEN0zK9iKpH5DUiqxvzIkWfLcoxznMCrFl7DcjE+0Bjt75hFWqtY8FoP9wI0PAUvSfB0G54wKPkCfzMp/ToDPFYId1xZsWdYvdu7Z9mqphkOBf6Z7GskH1HWTZQWcSHpfdvLPqPyI/VXVmr+2idbeGuyLDidRfpS6P/3Wa9mtNdiv1/YHo9WMDol8fNCgkNXzG3rT2Om+jWXjUD1JOYMNVsJpikQPJm2WzN2n5jQqO5IVE2Z4zpyzUnwJS4GPFJrst8omtDbZn2I4APhXii9j62HGscpmRS2IIxqLwX5aTRc9b5ItAD4NxCmeR+pcuAQZHXww5RdopNFL5DigZYoVlEloDfY9p9++9HnV4JhisMNbz7EuFdlXdwZWIndg6fHBnok7CIC+vZOkfI6/Njb4popEN+PmyTwHy+E9yo5kZlU7n2OBd6e0+a8bvK8YTDvV32RusD8b7A88l+Lx/xs6C6tiHi3VMG7uFHuwGi++GOwOh+kpvoQD9rjYh6gbJ0MtnAxsnsKmv+RwUHGyPaos/ldrsNv74UufP1oNexaC/bI7P/Q/BazOQ5ZHJjKqEfeoa3VPwzTfifK3LSJJsV4JTlcYun1TmQ8sSFq7DPYgeKQMSdp1FgjOSWnzX/WIg7Ly9rRKKwT7W1TD/sALKb2EHVaY3sBWiVtpPID9OnciVa2tRzLV4d6UNr9uyDL2VVfuf527r85IYdOf9xz7d86r5S3mBvszOd7bB/fLRQ7HFoN9sDDJuv27/mfh8dprjARqExjPlXUxbepW3VTiLEDf2kmiGHy5/jzfSJHotiROOIeMy7GTUiNptxw+STrf1LssijisdYppjrQGLZPsWYs4DHg9je131xc/6+ieZUM4aO7Z9mq1B2LmEVaqyXEisDKln4UD1J37X63xGWDjlDX7VYMDWifbE8rgOytOtkdjOBD4Ry/9ij+01zKqNdgvevoXRG8ZFPZIaCz/PCvYCnWprms41zcz+JQiIQk0xNr5ssLQzUmbkcjn9DtK7KXsSNoZnJrCZsfAsS1TbJ4yuHaFKfawRXw0jQt3g/c0Bh+rLPbIwzUD+fhDZ9hShaJszmR7zNL7tlUVsPpb8AjnaylrdbtFfKIQ7O9K4NrNDfZ4LseBBi9WbB0Dr2F8thjsw23n2Dr9vdFb/ubdkzrWqit1c7LTzilAnSIhieyfzsmNl/kgRaIbg7WRyMeDTOdgSco1BM8DDSls+hnFYL9RBruuMMXuAY4jhQdZO/ripweeLMH7Zn/DFikU/2sgnAekcTG/97gLfagy2H8ajY9Cunbfm/GVzvFfuqiz0P0+h9cq8NfdCuxebLKfVWRN9Jb/P6k7sFTA6obO55InKhKSYJvGi/Vmpe7YchceIoGvhNdB7pIBp6Swzd8vBrtMqeu+YrAZlBfvafNJvQSlWxZGOd4/L9hLCsXbzQq2AmNSCpte07GCfZTB/hN7unYsG3yr0GRXKnPd1xLsr5FxFNDew7/idTeOLwY7rDXY85VqVxoKWF47AL3ishtqjWMAnTEkSb+hfFVR6LqZR1jJYG4C86hHCCW1xgbf1MrnX6VJW/sIjZ/rog6aSd+XowNLcLyy17W1g8HnWybbkwrFOys6M4GH05fdVO6YzYT8NN+1882uaVlr3LflSL6uzPVcocluM/hiD370VofdWpvsJ5Vu038KWPud55sAmyVvjOLx+862f6n7dOPD6pyoKEgKjMxP9XEKQ7fGwyQW8zcdfa6PUHYkjUrlx8lqU9TkFRF8tm2itSt7PTcrWEephqOBhama35X7q6w9TlcUgv1OkViLYDHGuSlsuQpY/XfTPCFFrV0KHD/zCCspceumEOzHBtO6+McXO0wsBj5QyV1Xb/afAlb7KvZM6E1Iu6+6M6IH38PR1lpJiThVN8L+D1dCD3KvadcuLEntQjdVBQE3Tm8J9ldlbt3Nm2QLIHX3oF0bgu+h7K3R/RsM50yFoWs6d2E9mrJxW+ucfnDYFT4Q0nP8hxtn6tD2yikEmgyuX8tn8/ZSDbu1BrsKzHurLW9+hDCZN0TjfnWZbg3qOvtK0uSIfc/3DRWGrsk5BcAT2DQtqCR18lO9ARL78pq3T8bhttYmvqfMVXDxHuw3DtekbJ53jDL3juIo4ou3nGIrFYouChYbXJWyVm85+gJfX8nrW4sW8TFg45Q0907dLyt+9/EYPg88sZr/uBjjxELg0M4vh3rVmwtYiZzEmfGQOkzXHHaFD3T4lCIhKTKoYxVHKQxdUwi2EFiQwKbtpOxI+pa6qdp9tQz4Qm9+o1m93YAzgcUpavLRBI+Uubdz+GnLFJunSHTPQPhp5xiTGgNWsLMy18drcufolDR1aVTD53W/rLzWYIvjiAnAijf96zuiGvYoNtkP+yrmUdIXIKUatFW+ixYu4lCDDRQJSdWE01XA6qbEjYkG2ystkirBI4OPp6jFF/fWWRLVbl6wl8yYnqImb9UA9crc27zRUZvKt+r1u1nBXjO4IVVzR2NXZa7vNAQf5vD+lDT3my2T7FllrXfMnWIPunE68AbwpWLgfX0d7zcXsLZNYIwWzD3bXlVX6eIi0jlCUZDU9VvYt3G6v0uR6LIkFvVVwJJUGQv7OqTl5QMvLBvCxcpa71nsfMvhsRTdNz+orL0tJpe3nWMvKhI9UyrvwkoPVwGrjz9gHwXqUtDSfzm6X/a21ia+ZzXsWgz2g/7Y6RbBfw5lG5G8z4oeH+yq8cHrgA8pEpJCER1MUBi6PC4+ksBmbdl5HxFJydqHw1PU3EkPnWFLlbXe80iwVWZ8LUVNVgHrf3VQw5UKQ88NhnuBRSlqsgpYfTn3TM8miemtwRYrY73fIwqT7IX+WzgCry5kG/53N1ZSPKwO0jUrjcOAYYqEpFGMdg92OVZRIgtY0eLXE7mLV2S1UlTAur+YskPG06rYZLcALSlp7nu0c/l/3Nifi6ksmBWsw+HWFDVZBaw+0niZDwIOSkFTn95wuArZ1SACyBnbJbR9KmB1dVHr2n0l6WXQMDb4popEFwbt9ZgPlJLWrlKsxwglHcZM9VHAVqkYG40LCBYra312L0rLoyfmJT6gjJW58QNFoQLzC+OmFDV3e+387qM15mIOAAalYPyerjeQVslY1fm/2ya0dSpgdfHWbek5WE9ktZ/2ErxPYVi7wmm2HHgyeaspdlB2JA1ynpqx5tmBzm+VsT4cXwO/Bx5NxczPOUAZA+DlVudOhaESnYrbgLS8uS23cKHmHX0yv4PDUtDMVwbCL5WtKlk0dg5Y2yZxGB0Y84RStHb1U9kD0FZy0Q2yeiTuMULXQe6SnkVaWgpYV8wK1qGE9emdyDG+mZJ75v7KFzjcql2KlVEIttDh8dQsYi01L+JIu0NTMB7+aFawFUpVdYg6B/8kPkL4ojpiF5PoyR9YRLpyg5www3MKQ5c8lcDJgwpYknidj5ykYeH/RnsdVytjfa/O+TnwzxQ09V354NtW/RzYuFe9tqILw7lpaavD5spY76qf5tsBOya8mSWr0WPEVTZOAcksYD2j9HR5BD9IQZAMGL5gPnsqDF1gPJvAiaS28kvivbaQ0cDgFDT1p21n2evKWN+bFWyFwc9TMf0z9tP9kPvVaysnNlpTtP7ZTBnrXblSKsaYG1sm2bPKVvX4dwFrmwS27RmlpwuCR0C9AiFZoMl4qsfHrZQWSf56h3w61uT8Qtnqx0V8xK9TMYl39q32XOm4kYoPkm0pGs+1A6u3x0IYm4Ib5k+UqeoSjQ9eAyTx7V9PKz1rVx+xO7C+IiGZGJA0Ge/ahMJ4LoHNWn9U8AHKjiTc2BS08ZlCYJ5S1X9ap1gbpKIwsneVp+rVWcGWqMdWTi6BRxSsgXZg9TKDcQlv4pI650/KVJWtF1fB8HL/TNgHxlTA6lKc4sQPLCJd5mgHVhc/94kcHzeAjZUdSbjE78BymAnmSlW/uy4FfWVUlZ8d+Zq6aWW1BHsZSEVRMNIOrF41PvgGwMiEN/NmnZldfaJSchcczyg9XRq884qCZMhmY6e5zlJai9Zgi4HEnY/ToQKWJNiY4JuTgjf2RnC9stX/Sul4jHDQ8/PZqYrTtFw9tfIMUnGekB4h7F3Lyjs8o4Q38zfKVPWJPGKjJDasw7UDq4uD93sUBcnUoiFWn+6ixE0wI2MTpUWSKge7paCZenwwIeZNsUdIwWOEDntUcZpi9dTeGYdS0k49Qti798ykjy0rc4O4RZmqPlEuTmYBa+PhvKD0rFnneTM7KxKSKV7Vk/FUTzBdO7AkwSwFBSyD2/X4YKLcm4I26p4plb6Xv5aSpq6nbPVqP9gt4e2bNedMe0OZqj5RQhcci285xVYqPWsdtXcBdGiyZGtQgj0VhS55OYGTCRWwJLFi2D3xbTRmK1MJYtyXgla+W4mSCluWknbWKVW9Ofwlez4eQYuyVKVrxYQuOF5VarpE37pJ5rgKWKkdJ831CKEkejKe9MNoiZyCMpUcJU9+ActgO2VKKjwPW5qSpub09uNe6wXmSb9nGq3KU3WKIhL5COErSk0Xkqdv3SSbthkdfLDCsFYLE9imjZQWSbDtE96+fxaC/V1pSo55wZ4Cnk/0MhO2VaaksnWB1BSwWE+7sHrF6HPZHEjyXNxzA5irTFWnyJO54NAOrK5NWvStm2Ry7lSjCXlXJLGApR1YkszJeLkonvT+OUeZSqSkP9a58bgLfajSJBVbXxipOcYlTnaRJbUGtCd7jWkwf/Y3bJEyVZ0iVMBKMy3yJauTJxVn13bztkSOkzoDS5I5GYety3PeRM/I9W1yMvPyQOIX8Ss1H5TqlNMOrKqchzu6X1azCFg/ge1SAatrtMiXrA5M2ysKa11UJXEH1hAlRhL6edkm+SsGnlCiEpgW58mktzGO2UqZkqqUY5CC0Cv3o6SvMf+mJFXxOtET+BY7N52BtTadhxaOUCREN84qXY/HiSz0D1RmJJELfNgi8W2Mkl8oqc71Mck/l8x0/qBU6VzItQOrd6bhbJnovBtPK0vVK7IEFrBI5tkuiTKshk0o76ATyaLNFIK1rVcSOU6qgCXJnOyk4PHW2oE8pUwlz4AUFLAiVwFLqnYupAJW78Q10WdGllwFrCqf0yVvwRE5y5WaNYs7NFmRTNNh4Guxoi6RbwnS66wlmZzhCW/hy3POtDeUqOSZFWwJ8HKyu7fmhCJS0TEl0V/65NAXPtUsSuKCI4ZVSs1aaLu4ZPvGqQLWWgwYkMhxUjuwRAv8nrVPjw8mW9J3YWlOKCIVXGYmuoD1RiGYntaqYoncgWUqYHUlcXrbl+jGWcUKixP5mmsVsCSpY8qGCW/fP5SlRHsp4e1TAUtEqmVMWaD0VLdEnoHllsiFWbJi5Il8e6RIpQxXCNYiWAx0JKxVKmBJUiX6TVVOIh8Jlk6W/PzoTWwiUknDEty2JUpPdUvkWwi1A6tLMdKhhZJl6t9dk7SxUgUsSSRP+PlspgJW0vvPEvVvEakiSR5TdL+scnqEUJNxkUSOTaOCq4+vfRxQAUsk/ZNxFbCSP9YuSXj/0dgrIhUx+kqvBXIJHu+WKUtVvkhM4qQudj1C2IXJlBb3kmnraRdWV27iSStgWefER0T3zO61TwWsJI+1lvj8aE4oIhUx9MVkF8R1v5QIqEncRCGiXalZ62RK37ZJttXqTI8uSFyxv32xFlKSwHtmeb6T5Hu6JuTJXjAl/cwVzQlFpFITy6TP47QDq8pFJO8QYCzGlRqR6taR8AVnctZVyfKugcm7p4hAsr8YiyFWihI8WU74kwGe4Md9RCRdBib8fuS6X+qeTALPm/IIPYKyFjonTLJuQLseJe7aPCNZw/ctp2hskkRKdAErcoYoRQleMFmy86M5oYhUysphyZ5/GwxWlqpbIgtYcayt0GuNkSYrknFLh6iAtdZFVfIKWKvAtINWkvhZWZXw9qmAlewErZfwFmpOKCIVUVic+Pm37pdVLrIEnqGS02GUa6Vv2yTrhi9VAasL40DSxkqNS6J7Zs+spyxpwaQ5oYj0u2AxCd61bCpgVb0oid9K6g17XbJCIZAMi2cF01lKa5e0HVgqOkpSvZHw9mlCnmxDk9w419grIpW1PMHjne6XVS6RjxDqDXtdslghkAx7TSFYswkzPEfyDu7VLgBJqoUJb592YCk/mVxsikgqLUpw21TAqnIRCfzWRjuw1s7gFUVBMuxVhWDNnpqfyEK/dgFIInnCC1gGmypLiTYs4e1bqBSJSAUleZ05QumpbsncgeXagdWFGGmBL1lebKpAuxZDE1jod+3AkuROdpL8bTIO2ytLibZdwtunOaGIVMs8fKPRF/j6ylIVz+mS+Ny86xHCtSppgS8ZZpqMr9VSqEtg3rQDSxIptsSPKVs0XuaDlKkECh6R/AKWdmCJSCXnc/9Kcvtyq9hWWapeUULfXDJcqVmzQeUCll5XL1mlAu3abt45NkzghEc7sCSpnk/6eiFenPgiSVUaW8NWJPALg//pPKYvfUSkopJdwHLtWq5mEUk8DNzZSKlZs1nBViR9cBFZB88qBGsWOxsnb+jmdWVGEjnZjXgu6W00YwdlKnm8xI6JbyO8rEyJSAU9k/Axb1ulqHpFJHCng6MCVhc9rRBIJpn69loX5AksYKGdc5JQ66/P80Cc6GHPVcBKqOQXsFxf+ohIFc3DnXcrSdUrSuJZM0YiF2ZJ9IxCIJkcmFwFrLXfuxM5TuoxFkmkW06xlQb/TPhnerQylTyxs4vmgyJSTcwSP6bUK0tVvE6Mk7ng0A6srgwu2oElWR2YNBlf+2I3gY9a6+2RkujPDDyZ8CaOU5YSOddKel4WtQZbrEyJSKUMjBO/xtxjfPD1lKkqXSdaMhccKmB1zRMKgWTQshEjeUFhWMvgncBxUm+PlCQzmJ/wJm43LvgWylRyjLvQhwJ7JbmNrjMjRaTCZgVbAvwjwU2sWRlp13LVroGS+OYS1yOEXVKChxQFyaBHZh5hJYUhheOk3oQlCRZb4gtYdMBYZSpBfWYFY4GaJLfR4DFlSkR6QaLXme7klaLqFJUseTuwDNYfH7xG6Vmz3DAeAbTQF90wq9PwxI3drgKWJNr8FLRRjxEma4G0f+LbaDyiTIlItc3HzWlUiqpTFFkiHyG0pTWMUHrWrHCaLXf4uyIhmVowGA8rCl3yrqQ1KI74l9IiSdVRw1+T3kaDA5SpREl8ActcBSwR6YX5OMmejzscND54nTJVfaKolMxvzC1mW6WnS5Nd7VaRbN0wXQWsLtougeO2dmBJYrWdYy9C4s/X27Nhmu+kbPW/xuDDScGbrmKSX5gVkTQWCXgw4U1cb5lxkDJVhX1zACwEPGkNy8XJW5wlVFEhkAwp1Q5insKwZp0HCyfuEcI6vYVQkm9u0htoJSYoTf3PjU8AAxLezOXbjEz82zVFJIW23IX5wOuJvl86hytT1SeaFayDZC46tlV6upJB5igIkiEPzjnT3lAY1qxjeSIL/Es731ojkuDZLq1Jb6KjAlZCEvGpFPSVeXrpiYj0hs6xJdFf+hh8VOdmV5+o83+fSeBNeVulZ+3aN+N+YJkiIRmhgmzX7tjJe3wwgfcRkdXMLZK/Awve0xh8F2Wr/4w+10cA+6WgrxSULRHpxUEm6fPyjZZb8sdqqax/F7CeTmDbtlV61q5torU7/FmREN0oq2jg9uQVsDyZ9xGR/7F8MHOBVUlvZ2zahdWfajs4Csgl/5apYyREpFcnd4mfl5vzGSWqytZBnf/7TALbpjOwum6WQiBZuE2WnHsUhi7ZNoFtUgFLEu+hM2ypp2DRb87E0Vd6rTLWb4u2Y9PQzLhWO7BEpPfUle+XSf/S58j9zvNNlK3qUS5gWSILWFvqmdauyUXcqihIBjwwL9hLCkNX1laJLPA/o8xIKhh3pKCV76p9iSOUrL6XD34wsFcK7gOPtZ5j/1TGRKS3zAq2xGB2wptZ19HOF5St6hGV53I8lcC21azUY4Rdm+XuwlzQ6+sl9W5RCLpsx8TVBEw7sCQlEx/nzlQ01DlN2eoXZ6ahkQa3KVUi0geDTeI3SrhzknYtV9E8DiCKkvnNucMeStHadb4l4k+KhKRZrJ2EXXLYFT4QeHfi5jeuApakw0CY6/BaCpq6d/1U1+G0fSgffG/g4HSsKTXvE5E+md+l4Qvmd9W8xEeUreoQAdSWeBbwBN6dd1eKusbhZkVBUmxRaTMdRtsVr73GSCBxj1cP0COEkhKzgnUY/DEVk7SY05WxPvV/KWnnqqVDuFvpEpHe1hLsr8CCFCyGJxE8UsayL+qczK0weCmBHVEFrK67EVihMEgaOfy2baK1KxJdiJUncmfqolnBXlN2JE1jTkqa+pGxwfdXxnpfQ/CRwCfT0FaD2Q+dYUuVNRHpo3vmDSkYF9/TAJ9StrIvelPHTOLjH3qEsItagy0GblckJJUDkTFDUejyLCKJhX09PiipMghuJSVf+sRwub5V7hOXAblU9AnjN0qXiPSVXJSOebrBtM6jNqQX1Z/nGzU0+9f764V7by5g/T2B8dlhj4t9iLpJlz+1KgJIGr2yanPuUhi6fHNOYgHrSWVG0mRWsCWk5wyhvRrh08pa78kHP9zg/SlpbtxRowKWiPSdlikUgedS0NRtX1vIl5Sx3hWt4lJzLlkBczp3L/ft73/T//1wEuMzZCmj1E26JlfHjcByRUJSRo8PdoPDngls1kPKjKSNGb9K0ef+PH2h1zsaL/NBwCUp6guz286xF5U5EenDO6YDM1MyRp5Tf55vpJz1jnyzHwl8pvP/rTdoyzf7mRNmeJ/tYI6SvgDRmwi7bs6Z9gboWzlJ2S0RfqoodM1+5/kmwGYJbJoKWJI+Q/kd8HpKWvuuIUsJSlovzDMXcyawXWrumcb1ypqI9MOa/JqUNHVjW8W3lbHKGzPdt8L5/lv+dR3OBQvmMyc/zXfti3b8p4AVJ7eA9R51l25MbCJ+qChIivytECgoDF2zqj2Z42EJ/qrsSNoUTrPlpOQb5c750Gn54OOVucrJB98bOCtFTW73Gh0XISJ9rzXYQ8DcVKyH4eiGZv+EslY5o4IPyHUwA9jwHf5IAyXubwh+em/vxvpPAWtesJeAlxPYAceqy3RjQj7F7gEeVSQkJTeYKzu3JUtX4uWMS2Cz3pgXdIi7pFMcpeYb5X/P2X42+gJfX5lbd+ODrwf8CkjNgb8ON7eeY/9U9kSkn6Rmo4Q5P2g41zdTyipjKHwHyK/lj9UZXLxgPrMbg+/Sm5OhN0viLqw9xl3oQ9VtuvGBNX6iKEgKrKoZwLUKQ7cksYD1kIqQklZzp9h9pGsH4da1K/iOMrfulsN3gXenqc0RXK3MiUh/qYNfA2+kpLkbWzvfVdbWXT742cAJ3fkRh/vzwU/rjbcop6GAlYtXUK+u0w3O1cBSBUIS7tr7zrZ/KQxd07kdtyGBTdP5V5LuW6bxg5Q1+dMNzX6sMtdzDcE/bXBcypr9j4Fwq7InIv1lVrAlKToLC+ATDc3+dWWu5xqbfQIwvQc/Ogi4NA/3NkzznSrZprcWsB5OZOSS+dhMYhWCLXQdjC0JF0d8S1HougXz2RNI3m5US+h9Q6SLauq4Blicpjab88P8VNfcqAfywfc23nYIbRr8eFawDmVQRPpTBJcDpRTdLy9sCP4BZa77GoPXu/MzwNbhrxlnJR5oDH5qpXZjpWEHFqACVnd5jkvTNLhI1bll7hR7UGHozh04meOguwpYkm6db/D9WcqaPZCY31f6W82sq5/m2wE3A+ulrOkr22v5njIoIv2tEOzvwO9T1OScwa/HBt9N2eu6cdN8Z4cbKe+kWleDHb7ZALPHTfOd1/Uv+58C1obDeQRI3Lc7DvnePs0+a+ZOtqdTNrhIFTHjUkWh2wNhEgtYPkhvIJQMiHJ8K4nzn7XYyErcuO/5vqEyuHajg28clbgV2DyFzf9l2zn2orIoIomYx5O6efzQGH5Xf55vpOytXX3wd5dKzAI2q3C/aSyVuD8f/JR12Y31Pz94yym2kmS+wW7Ys39DVdNuiuF8QIcrS9K0FprsToWh2xL3RlaDp2cFe02pkbRrmWxPAtelsOm7tK/kd51v1JN3MDr44Fq4iZQd2t7JI7hMWRSRpCgEa3G4N2XN3iFaxZ9GB99YGXxn46b5zhHcSe992TMY+FYe7hoTfPue/AWrq3zNSWIwczH7qUt1z9xgf7by1j+R5MzEYYqi0D2dj71slcCmzVF2JCtKEecDcdrabbD/CrhtfPANlMW3awg+rLb82GA+pZdwS0sw7XQVkaQ5J4Vt3qsW7h0TfHOl7+3GTPVRpRJ3AVv2wa97bw7+mm/2M7u7GytazeIykQsSh/erW/VoYjspjRNyyaw5rcFuVxi6J4o5NIntimG2siNZMW+KPeLp/dJn7Aq4a7/zfBNl8k1BCb6pwd3A+PTeAJiqTIpI0rQGmw3ckcKm71oDdzSc65spi//VGHxsFDMb2KIPf+0gnAvycEfnl/VdvC2+hecS+436AYdd4QPVvbqn81u7GxQJSYhJCkEPOIclsVlxpB1YkrGPWkQgvV/67NW+irv0zXJZPvi2nUX2vVN8GX8oTrFWZVNEkjk9ZXJK2z3K2rm7O0WTLGsIfpTDHQYb9FMTDohKPJRv9i+Br/WNh28rYHUe/v1CAmM7ZNFCPUbYo0VmuWiwSpGQfvbHYrBZCkP3jAo+ADgggU1bNC9O5JmJIj02d4o9aHBtii9htxzMzU/1hmrOY33wfSg/UZDmtzQ60KRPpYgkVWuwosPvUtr8XaMS8xqa/ZDqzaBbPvg0g19SmbcNrov1cL6XD/wpH3zbNf3B1T5vaFBIaJQP01DRgwl5sMeB7ygS0o/aczlOUxi6b5ixH8l85fscgunxZMkcq2EysDLFl7AVMfc0NvvEasxfY/CTI/r8MYje8JtisPv1iRSRJMvlOD3F98yNzLklH/z/urLzJ0vGB9+gIfAbyhtdknTtBwEPlecwq89J9I4Lk2Q6VMNEzzg0Ay8pEtJPvj1nsj2mMPTgs5vQxwddB7hLRrVMsmeB76b8Mga684N88J+MD15XDXlrCD4sH3yGw7eBtB85sbIE/6dPo4gk/p5Zfovv5Sm+hBxwYT7w69EX+PrVkLPG4GNXwAMGH0toE4eW5zDctm/wrd/6H1dbwCol92DekWOn+zYaKrqvNdhiM4IiIf3gX3UwTWHosWQWsHT+lWRY55j1cgYu5bMr4c/5qT4u65NxgzZgQkYu6fJ5wZ7SJ1FE0iA3iHMNXkz5ZRxRu4JHGpr9o1nN04QZnssHP9vhHiANNZVDOuDhfLOf8ObdWKstYA2GB4AliVw0lbQLq6cKzg+BFkVC+pLB6bOCvaZIdF9D8C2BkQls2qpSTJsyJFk1K9hrWDZ2wDiMIua+xuDX1J/nG2UpT/ue7xvmg3/L4T5gx4xc1ssO5+lTKCJpMedMewM4PQOX8i5zfpcPfv3oc31EptYUU330gvm0AucCNSlq+jCcqxoCt4yZ7lvBOxSwZgXrAOYldCb2YQ0TPRQsNvg86T7bQ9Ll7kLg5wpDj30koe26vy3YMqVHsqzYxDVWLoxkgTkcm1vFw/ngR6T/rA+3xmb/fMdKngBO4Z2PxEhfouCM1mCL9QkUkTQpBPulwc0ZuZxP1LQzvzH4yYdd4al+JH3chT60MfjlFtMKjE7xvfH9uQ4ebgx+/Jpu+HclcsoCh+x7vm+oYaLHg8vfHC5UJKQPLItynFBeN0kPB+sjEtq0u5QdqYJPoBNxEtCelStyGAFclw/8ufyYRNoKWW6NwT+WD8xz50fARhnrdH/Slz4iklYdNXwJyEQB3mADh28vWsgTDcG/nLZC1qjgAxqa/aR4OY85fJXyWV9pt77Dvu9YwIrh1oQ2fED7qsQeOJYKw4dzHjBfkZBeNrnzYEfpgc6ty/smdBF8izIk1aAwxR4mm49z7V1+TIIHG5t9QuILWcGjfLN/OB+Y5/BbUvwt8hosi3J8SV/6iEhazZtkC4AzM3ZZWxl8d9FC/t7Q7Ccl/cUo44PXNDT754bC4+Z8p/OLq6x4xuHUdyxgzYX7gX8mseXmmTmks1/ccoqttIhPA6sUDekNDvduNZJvKRI9V9PBESTz25LXO0bQqgxJtWgfwbnAXzJ6ebu7MyMfmN8Q/KzG6f6uJDVuTPDN88FPa4D5ODeSzcLVv++bTfrSR0TSrhi4kmx+0bmlOd9ZDi82BP/B2KnemKTGjQ2+ab7Zz1wJj5nzY9JxSHt3xBF8pjXY4nd+hLB8XtLtCb2Ag7N2EGlfK0yxv5gxSZGQXpiEv1YLx848wkqKRs+ZJ/bxwdvbJlq7MiTVom2itTt8lmx/6bOLwfnewbP54Lc0BD9qdPDB/dGQxst8UGOzH50P/sccPA9carBzxrvZ7K1H8k192kQkCzNYr+VzJHQjzDpfHWxgMDGOaWkI/rd88LMbpvlO/dGWCTM8Vx/8wHzwX8WwAOcCh+0zGvfLWoLdC2s7gd64BefYBF5DbbSKjwM/0iDRcwXn0jy8HzhI0ZCKDTDGF2c32XOKRM+Nme5b0UFjEtvmpscHpfq0BnuoIXiTwfkZv9QccKjBobWwMh+86MadkXPnQJjb+ZKfik/An/sb74mcA2PnIF/MvsCQKuper0c1fFpf+ohIZu6Z59g/883+OZyby7WHjK55yl+unGslzs0HXwDcZXBXDHe1Bnu+N35nY/DhGO9354ML5nNolL2zIFfn4Q2G/3fjzZoLWM5tQIlkPsZyBCpgrZtgcS74caXy46KbKSCyrhyubG2y6xSJdROVOCKhN3yvKd8XRKpvQg4XNcB4K3/xUw0GAu81570OU1fAG43B5zk85sZjEfzNnceK8BzB4q78hfud55uUVrFrbOxszrsdRi6YT6PBhp7lVc6aFkDGl1om2bP6hIlIlhSb7JZ88MuAr1fJJW8FfMbhMwY0Bn8KeNThbw6PGzzeXstjbefYi139CxvO9c2snd2BPaD8vw574pk4kL2rXs/lmHDLKbby3/9ijQWsQrCFDcHnGoncCXDAfuf5Jvedbf/SENFzc4L9ozH44Q53AwMUEVkHc4cP56sKQwUWNMk95++hOcH+oQxJVQoWDzjPj21fxQPAFlUYgaEOBwIHmsO/TxrPQ4ngi4HXgSVv+icHDAPWB9YDhrav6txZ9aafr3I/KzTZrxQGEcmiOjhrBewNHFBt1975KN/2wAf//eVMbTvkg8ed98s3gKUGSx1e6/wjNcBQYGNgU9oZVOVdKAaOmzPZHnvzv4zW9lNRct9GWLOqnU9paFh3hWAtGGcpErIOXgWOfHN1XHpm3DTfGahPYttMbx+UKnff2fYvi/gU5d3pUpYDNgS2BXYD8sDBnQuW0cCOwOZU12OBXVncPGDD+JIiISJZNStYRzyACcDTisZ/RJ33zK2BXR326bxnHgyM77xvbgNVX7wCmFYMduPqArjmBUuU3AWLOROV18ooNtk3gV8rEtIDHTEcUQz2jEKx7kolTiShT9KogCUChSl2D/B/ioSsg0UxfKJwmi1XKEQky+aeba96xARghaIh3XBTEaau7j+stYDVEtNGct8isGvSXmGZZjaM44EWRUK6w+Grc4PdpUisu1HBB0AiX5yBw2srR1BQlkSgGOwy4IeKhPRAjHHMvGBPKRQiUg1ap1ibGcdRfiRMZG0ebq/j2Hc6X3OtBazOH/xNUq+uFPMF5bgyCqfZ8nb4KPCEoiFdYXBBa7DvKRKVMRQ+BmyS0Fz/rm2itStLImXtIzgJuEeRkO5w47Rik2k3q4hU1zqzyWYCZygSspb1xlPttby/7Sx7/Z3+TNTFv2tGgi/yyIbgw5TuymgL9kqU4zBAh+PL2swswDkKQ0WdkOA7ygylR+RN98uJ1h6V34j8d0VDusLh8tYm+5YiISLVqBjsMofLFQl5By+X4LC1vamxSwWsItwLJPXNU0Mi42jlu3JaJtuTVt4JslTRkHdwZx0c19VXp8va1U/z7Si/4SuJFr3h3Kksibzlfhns5TjH+wxeVDRkLW7aeiSnKwwiUs1a4evo3GV5C4fX4oj3zQ32+Nr+bNd2YJUXqTck9oI9wbsWUqoQrCWGj6AD9+TtinXwsVnB1DcqKCrxBbq+K7av3fBIsFXKksjbzZ1sT5ciDqP8WmyR1bnHhnHkzCNMb68UkeoWLK4rn/f6GwVDOi22iA/NnWIPdmnN1NW/1Un04yOj64Pvo9xXeFIe7C4zPgasVDSk04M1A/nArGBLFIrK6Ty8/bNJbZ/r8UGRNd8vp9iDUflLn2WKhrxl/lzIDeLDeuOgiEjZrGAd7SM4CrhJ0ah6ixzeX5xic7r6A10uYLUG5gDPJfXKI/ia8l95hSa7zY1jAO2+kAdrB3DI7G/YIoWisobCp4AtEtq8fw1y7laWRNasJdi9ccShgAr88p/7ZgQfmnOmvaFQiIj8V9tEa68rnyP5R0Wjar1kEe9tDVbszg9143EVcxL8GCFwxL7Bt1Y/qLzWJruB8k4sfXtYpQz+HA/goPvONh3u3ztOTXDbrp8VrEMpElm7uVPsPuDD6AxJgb/EAzioEGyhQiEi8nazgq14Az4OXKdoVJ3nYnhvYYo93N0fjLr5p5PcuWo64BT1hd5RbLJbIjgU0LeIVcbh3hgOmnu2vapoVF5j8EOBPZPaPos0qRDp1v0y2KwIPqD7ZfUyuK+9jgN03xQRWbNHgq3aaiTHGFylaFSNB0s17NuVA9tXp1sFrOIU5gLPJDgYJ46+wNdXn+gdLcHudXgf8IqiUTWT8N9Hwzi0NdhiRaN3ePltLEn10pa7MFtZEun+/dIixgEvKBpV586B8IG2s0yH+ouIdMHMI6xUCHzR4XxFI/Prnt/Vwb7zJtmCnv4d3XzjlTnwiwTHZGjNSr6grtF7WoMVS9AA/E3RyDaDqwbCJ3XwbO+pn+p7AgcluInX6q1ZIj1TmGIPRzneC/xd0agav3gDvehERKQHKw9vDXa2G8ejs5ez6opW+MS63iO7/cr2GvghUEpu1+fU0Vd6rfpH75kX7CmDcQ73KhqZ5EBzIdhEnX3Uu6KY0wFLcEf4sbIk0nMtk+3JCMYBcxWNbN83DZqKgeMeCaaFl4hID7U22U8s4n2AHsHOjuUOxxaDfZVg8Tqvn7r7A7ODPedwR4IDtOWAF5mgftK7CsEWDoL3Az9TNDLldYyPFoMFhaJ3NQTfEjgyqe0zuK812HxlSmTdtAR7ecPh7A/8VNHIpJUOxxWCTe18UkFERNZlnTnF7jHIAw8rGqn3N4d8a7CKPcUX9fDnfpTkKDmcQ/BI/aV3zQq2ohjssw4T0VbPTAww5GgsNtlNCkXvMzgbSOxu0dj4obIkUhm3nGIri8E+58bpJHgXu3TbAsqvAP+FQiEiUjmFYH+vg3rQfDTFflEHY1qDPVTJv7RHRZ6OEfze4MUEB2tkIxylPtM3WoNd5RFjgWcVjdT69bIh7FOcbI8qFL1v3+BbA8cntX0Or3U4NyhTIhW+XzbZpV5+Q+G/FI10c7itHfYuTrFWRUNEpPI6N0ucaPAZYJkikhor3Di1GOzY3jgTskcFrLaJ1u7w84RPLML44DXqP300KZ9ibVG5Sv4HRSNVlpnxxWKwox86w5YqHH2jA6YAA5PaPoOftwXTREGkN+6XwW5vr2VP4E5FI5VKGKEVPtAWTG9lFhHpZYVg11hE3uEBRSPx5hrs1dpk3+qtX9Djx+yiHFdRPuw5qXZaAZ9WH+o7LcFeLgb7cGeVXMWQ5PurReQLTXalQtF3xk7zHYDjktzGSIe3i/SqtnPsxWLgEDdORY/gp8mzFnFQscmaK3EQrYiIdE1hij3cMYJ6oBk9ip9E7cCF7SPYtxDsb728TumZlsn2JHBPwgPZNCr4APWnPh5ggl1DjjFAm6KRSCXgojdgdGGK6XDEPuYlmkjw2VdAa0uwB5Qpkd5m3tpk34oi9gX+qngkfOyGH+cGsXthit2jaIiI9L22idZeDBYM9nd4TBFJjL9YxOhisLPaJlp7b/+ydTro3JJ/qNq2Q43PqE/1veJke7QO8p3fLi9RRBLjIYOxxWBn6lXffa8++Lsdjk70klqHt4v0qZYpNu8NGO0wlfI3mJIszwMfbQ32+Tln2hsKh4hI/yoEaxk+nD0NmoAViki/WWnQ1D6Chr7cFLFOBawNhnMD8M9Eh9WZdNgVPlD9q+/NCtbR2mTfinPsYXC7ItKvlgPNb8CYQrC5Ckf/iMoL1CSfzbdooHOdMiXStx4Jtqo1WJPDPoAOBU+GksPluUGMLAa7UeEQEUmOW06xlYVgU6Mcuzncpoj0LYP7yLFXIdjUvth19Zb11Lp1HDe+m/D4br1wIV9RN+s/cyfb04Vg78f4CPC0ItLn/lCC3YrBgnZd9Z+GqT4amJDwZn6/N94WIiJd0xrsoSKMBT4HvKSI9JuiRYxpDfY17boSEUmulsn2ZGuwQ4FD0OP4fWGRw8RC4L399fb6aJ3/Aue7JPzAboMpY4Jvrv7Wz7PBJrvJhjEK4yxAE8Le96gZhxaDfXhesKcUjv7kZjHfqsSY24tWttfyHeVKpJ8Fi4vBfuqws8El6JD3vvSMw9HFwNjCFPuLwiEikpJ1ZrA72kewt8FXAL0htvJi4Ce1A9i5NdhVYP32Mr91XkwVgi10+GnCAz40V350R/pZ4TRbXmyyC62GXR2uROd99M4E3Dh+q5HsXmgybalNgIbAMcC4JLfR4dq2c+xFZUskGVqDLS4EOwPYmfI8q0NR6TWLzPi/DYezS2uwX/fnxFxERHqmbaK1F4J9p72OHTvPx1qoqFTEPcCYYrDj7zvb/tXfjanIbgDPcSnJf53l5zsf4ZEEKEyyF1qDfbEGdjS4ShPzinjejVM3HM4urU32k5lHmF4xmwCjgw82ODfhzfQ44jJlSyR5isGeKQb7XJzj3Z33S43tlbMQaK6D7QtNdvEtp9hKhUREJN3azrLXC8GmOmwHnIN2ZPXUE2YcXgw2vhjs/qQ0qiIFrLmT7WngdwlPQGQxl6gfJsvsYM8Vgk30HCM7J+Z6k0T3/R3jy3WwU2uTfUsT8GSphW8AWye5jQZ/nDfFHlG2RJKr8zzJiQa7UX4LtO6XPfeyGWfnBrFtMViYFew1hUREJFtagy0uBjuvDrbDOAV4QlHpkscxPlsHIwtN9tukNa5i57FEERemIBnj88EPV59M4AAz2Z4oBJtYO4CtMc4y0KNMa9dm8JmtRrJLscm+PyuYFjMJM2a6bwWclvR2xsalypZIOhSC/a0Y7ESvZVtgOvCqotJlD7px/IbD2brQZOfrgHYRkeybFWxJscm+XYRdKB/2/gdAj4q/hcFTDhPrYFSxyX42K1gin5Cq2OvcW6bYvHzwOST8nBeDi8cH/6MW+8nU+VzthY2X+RW8wRE4JyS9T/WxJcCvDX5YCDZX4Ui2XAcXA4MT3sz7W5vsbmVLJF1az7F/ApPHBz93JRzu8AVgfHmqI2+yErjRje9rrBMRqWLB4iLcAdyxb/CtO4yjcSZSftSwWsXAXWZcteWu/CYNR9DUVPIvM+NS98QfVLz9SjgbmKJPcXIVTrPlwM+An+Wn+a6U+AJwDLBZFYbDHYoGP66DX88KtkQ9JPkagx/qcGTS22mmR6tF0qzzC7lfAr9smOY7RSWOdzgK2LbKQ9Nm5cPvf1kIpoN8RUTkP2YHew64kOAX5+FAg+Ni+LDBBlUSgoUGP7YcP2iZbE+mqeEVLWAVnN/nYT4wMtHVADhzbPAZLcH+qo9v8hUn26PA1wl+RgOMNZhAuTCQ9WLWfGCm57i2dbLpme0U2eNiH+JL+X4KmvrkQGemMiaSDZ33im+An52fSj0xEyjfM7eukhA86MYNODe0BpuvHiEiImv0pl1ZE2Z47rn5NBpMMJjgMCJjV7sCuMNg5iq4vi3YsjReRE2lOwDBm4HrEn7dA2K4esIMH6s3taVrgGmF2cDs8cG/vqL8qMRhnf/smoVBxeGeCG61HDelrRou/zVoKdNJwe4HN5pnNZneAFpF4hxXRyXuSENbB8Y6bLXnzItTaAVawc9omMreFvN+g0MdGis+/+vfyfgcM27D+W0h2N+V+wqMExGfimIGJv4eVj5WQSod14hfWIlCGtq6cgC9Wqgu5bgqKnFbGmKxfAhaN6yjzrrAbGD2hBl+2oK/sQ8xhzgcYpAHBqTwspYY3AnMGAg3ZuFJnl44J8GtIXC/wXtScP1fLQa7Qh/X9Bs73bfxEoe6sz+wL+n4trkdaANaMO6woczqfHRS0twXp/qYOKYA5BLe1MfrYFRSD2gUkd4x+gJff8BKDoyd/a1czNobqE1J81cBfwFmm/EnhnKv7psiItLbxgdfb4Wxnzv5CPIODcD6CWxqqXN9+acIbl85gkLbRGvPUi565aDPhmb/qDm/S8H1L41z7D53sj2tj2W2NATfEtjXoB7YA9gd2LSfB5MngIeABy1izqqYeWnduinveHOrWQFzgb1S0Nwji8FmKGsi1a3xMh9UWsI+OSePs7vDbpSPgujvHTirgMeBR4C5BsWBcL9ewiMiIv0ueNQAu5ixlzujIhjpMArYHoj6qhkGTwH3x+Wi1f21A5k3+xu2KMuh77U31eSDFylXJpPulmKwD+hTmH0N5/pmdLCHwY4421J+48S2lHdrbcy675hZZvAS8IzD08AzGE/jPFoH8zXpzr58s5+DMz0FTf1rEfYkWKysichbjQ9esxJ2BHaJjW0iZ7sYtgG2NdgCGE5lHkNcbLDA4VngWYfnIuPJ2HmkYwRPZO1bYxERyfz9s25Fju0sZmuHrXG2tvL9c3hcvncOt/L/bsSaC10x8LqVj5hZBDzn8KzBcxjPuvNs7UAeyXqxanV6rYDV+QauW1IShU8Xm+xafeSqfsDZYHmOTSixkcF6DgMiY0jnfx4WOysjY2XsuMFrMcREvGoxr0bDeFWPMVS3xuC7ePnRlroUDPwfLwT7nbImIj01+gJfP1rBRrURG8Vx+TEKMzYEwKmNYb3IWNQ5C19lzlIilmMs9IiFHRuzUAUqERGp8vXneh0Dy4/xl0oMzuVYtnw4S3R/XOM6pvc0BL/HYP8UxOH1qIY9WybZs+oSItLthdyVXlv7IrMpP7KadG3FwBgwV+ZERERERCQtevX5TI+YlJI4rO8d/HzCDM+pS4hId9W8yLmko3gFxmQVr0REREREJG16tYA1d4rdZ3BXGgLhsN9z8zlDXUJEuqM++IEGX09Jc1uKTXaLsiYiIiIiImkT9cFvOJ3yIWSJZzCtMXi9uoWIdMX44BtE8BP68G0j68AdzlTWREREREQkjXp90VWYYn9x+GlK4lHjcO344Oupa4jI2qyAH1B+i2Ua/LI12GxlTURERERE0qhPdg3k4BvA6ymJyY4r4GJ1DRFZk8Zm/zxwZEqau7wGzlbWREREREQkrfqkgNUS7GWM81MUly/mm/1IdQ8RWZ3Gqb67O99KS3sNLpgd7DllTkRERERE0qrPzm15w/km8ERqIuNcPTb4buoiIvJm4y70oR4zAxiSkiYvWAWXKHMiIiIiIpJmfVbAeiTYKoP/S1FshsTwm9EX+PrqJiJS5lZazk+BXVLU6NPbgi1T7kREREREJM369M1ZhWC/M7g9RfHZqXYF14CbuoqINDQzCTg8RU1uKQZmKnMiIiIiIpJ2ff7q9xi+BnSkKEYfaWzmLHUVkeqWD36wOU0panIcw1fBXNkTEREREZG06/MCVmuw+ZRfPZ8a7kzLBz9Y3UWkOtVP8+2A64Bcipp99dxgf1b2REREREQkC6L++KW5QZwNLEhRnHLAr8ZO8x3UZUSqy/jg61mJ3wDD09Jmgxfr0nXmoIiIiIiIyBr1SwFrzpn2BsbElMVq47jEbfud55uo24hUhwkzPLcCrjV4T5raHRtfmRXsNWVQRERERESyIuqvX1xssluAX6csXjt0rOKGw67wgeo6Itm3YD6XAx9JWbP/0NpkNyh7IiIiIiKSJVF//vJ2+ArwrzQFzGG/RQv5md5MKJJtDcFPB05OWbMXWw1fVPZERERERCRr+rWA1RbsFYwzUhi3IxsCQd1HJJsamv0TBhemrd0OZxQm2QvKoIiIiIiIZE0idhE1BL/V4P3pWytyfDHYT9WNRLKjPvg+EdwDDE7ZgHRva2A8mCuLIiIiIiKSNVESGmHwRWBpymJnwJWNzf5+dSORbBg3zXeO4I+krHgFrHA4QcUrERERERHJqkQUsIrBnjGYlML4DXDnN2OD76+uJJJu+eDblkrcAaTuTaNmTJ0b7HFlUUREREREsipKSkMKcAVwRwpjODiGm8ZO9THqTiLp1HCub+ZwK7BlCps/Z8tduUhZFBERERGRLEtMAYtgcQ4+A7yawjgOK8Xc3jjV91KXEkmX0cE3tnbuMtg5hc1/Hfj0zCOspEyKiIiIiEiWRUlqzJxg/zD4QhoDabCBx9zaGHwXdSuRdBh9ga9fW955NTKl486Xi8GeUSZFRERERCTroqQ1qBDsd8CPUhrPTR3+lA++rbqWSLKNDj54wApuAkansf0GPy8E+6UyKSIiIiIi1SBKYqOWDeFUIK0HEm9pcGf9NN9O3UskmRqCDxsAtzrsl9JLeDqGk5VJERERERGpFoksYD10hi0FjgZWpTGoDtvnSswZM9VHqYuJJMu+5/uGBreluHjVYfDp1mCLlU0REREREakWUVIbVgx2vxkhrYF1GJGLuat+qu+pbiaSDA3n+mYdK7kbyKf2IozphWAtyqaIiIiIiFSTKMmNKzgXAnenOL6bRjF31gffR11NpH+Nme5b0c49QJqLyrPrnHOVTRERERERqTaJLmARLI7gKOD5FMd4owjubmj2A9TdRPpHPvi2uQ7uNtg5xZfxT6vhqFnBOpRRERERERGpNlHSG9gS7GUiPgmsTHGc1zPnpobg71OXE+lbY4PvBswBdkjxZbTHERMKk+wFZVRERERERKpRlIZGFqdYqxlfTXmshxjcnA/+RXU7kb7R2OwHleA+YIuUX8rpc6fYfcqoiIiIiIhUK0tTY/PBfwR8PgNxv6IYOBXM1QVFem28+CxwFVCb5utw+FVrsE8poyIiIiIiUs2iNDW2Dk4G5mUg7qfkA9eND16nLihSaW754AH4MSkvXgEPLx/CCcqpiIiIiIhUO0tbg/cNvnUH/BnYJAPxb2mHj7YFe0VdUWTdjQo+YBj8yOHYDFzOIoP6QrC/K7MiIiIiIlLtorQ1eHaw59w4BihlIP5ja+Ge+mm+nbqiyLppDD58KNyWkeJVHBvHqnglIiIiIiJSFqWx0a1N9ifg/zKSg5FRiXl6Q6FIz9VP9T0pP148PiOXNHluk92szIqIiIiIiJRZmhufD/5tyudiZYEDFxXhbILF6poiXdMY/FMOPwQGZ2Qg+HFrsM8rsyIiIiIiIv8VpbnxW43kVIPfZyQXBpyZh9+PD76BuqbImo0PXpMPfoHDtWSkeAXMWgJfUnZFRERERET+l6X9AkYHH1wLdwP1GcrLExEc3hLsr+qiIm83NvimMfwaOCBDlzW/DsbNCvaaMiwiIiIiIvK/orRfQFuwZTn4OPBchvKyUwwtjc0+QV1U5H+NDb5/DA+SreLVP2rgMBWvREREREREVs+yciENwUcCcww2yFiCfj4Qvjwr2BJ1V6lm44PXrIBJlP/JZejSlhkcUAg2V1kWERERERFZPcvSxeSDjwduAwZkLE9PRxHHtEyxgrqsVKN88G2BXwDjMnZpJTc+0dpkv1eWRURERERE3pll7YIamv1z5lydwWtbhTGl6FystxRKNckH/yxwBTA0gyPwl4tN9n1lWUREREREZG3LpywueJv9KzhXZDRndzsc1xrseXVfybLRF/j6tSv4LnBMJgdf4+xCk52vTIuIiIiIiKxdlMWLKjbZt4HJGc3ZAQYPNgT/tLqvZFVj8ENrV/AQGS1eAeepeCUiIiIiItJ1luWLawx+vsNZGb7EW6MavtgyyZ5VV5Ys2Pd837C0kgscTsjw+PSdYrCvKNsiIiIiIiJdZ1m/wHzwS4CvZ/gSl2FM3WpXLpl5hJXUpSWtGpt9gjvfBTbJ8GX+rAjH6xw7ERERERGR7rHsX6JbPnAl5R0d2b1KKMQRJ8ybYo+oW0uajAu+RQd81+BjGb/UG7YayZEqNIuIiIiIiHSfVcNFTpjhuQXzuRY4MuOXugo434ZxYeE0W67uLUk2PnjNcuMkc6YD62X8cm9sH8En2yZauzIvIiIiIiLSfVYtFzr6Sq8d8CIzHT5aBZf7jMMZrcGuVxeXJGpo9kMi55sOo6pgkL19g+F85JZTbKUyLyIiIiIi0uO1VfWYMMNzz8/nJw7HVskl3xPBqS3BHlBXlyRoDL6jw3nAhCq55D/UwYRZwVYo+yIiIiIiIj1n1XbBE2Z47rn5XGVwfJVccmxwbVzLGa3n2D/V5aU/7HGxDxm8lDMovxV0YJVc9nXtIzhWjw2KiIiIiIisO6vOy3ZrCHzb4KSquWJ4DWP6IOe72g0ifWV88JoVxudwpgGbVdGlX73VSCbqwHYREREREZHKsGq++IbgzQZTquyyX8a4rM75lgpZ0muCR43GJ7x8QPu7q+zqv1eErxAsVkcQERERERGpDKv2AOSb/UycC6rw0p9zOHcQ/HhWsA59FKQy3PLNfKhzx9WeVRiAC4vBzlI/EBERERERqSxTCKCh2U8y59tVGo9nHM7feiRX63EnWRf54AcDFwJ7V+loGopN1qyeICIiIiIi0htLLgGgMfjxDj8Aaqu0IzwCXLQYfv1IsFXqEdIVnS9F+HgEZzrsU6VhKGF8pdhk31ePEBERERER6R0qYL1J5w6S64H1qzgM/wR+YHBFIdhC9QpZncOu8IGvLeTIGM422LmKQ7EU4+hik92kXiEiIiIiItJ7VMB6i7HBd4vhZmDrKg/FEuDHUQ2XtUyyZ9UzpPPzsWkMXwZOBjaq8sHzxTjiw61TrE09Q0REREREpNfXYPJW44JvUYI/AHspGrQDM4m4ojjFWhWO6tQQfA8rF62OBeoUER6ugQ/NDvacQiEiIiIiItL7VMB6B3tc7EMGL+VXwIcVjf94FONn7c7VbcFeUTiyrfEyH8QbfMidE4GDFZH/uLO9jk+0nWWvKxQiIiIiIiJ9QwWsNZgww3ML5nM55Z0n8l8rgRuBq4qBO8FcIcmOhqk+Ooo50eFoYKgi8j9+0j6CiW0TrV2hEBERERER6TsqYHVlQd/sXzfnQiCnaLzN3xyujmu4bt4kW6BwpNOY4JvnjAk4nwf2VETeJgYmF4Odp1CIiIiIiIj0PRWwuigffDxwHbCpovGO2tz4eY0zc06wfygcydYYfDjwIYcJwKFAjaKyWovN+GyhyX6rUIiIiIiIiPQPFbC6Ycx03yrXwfVAvaKxRjFQcGNm7Fw3L9hLCkkyjA++wUr4SGfR6v1AraKyRg9FOQ5vmWxPKhQiIiIiIiL9RwWsbmq8zAf5Yr4HfFbR6JIO4B6HW+OIW+ZNsUcUkr5VH/zdZhyGc5jBAcAARaVLftkOJ7QFW6ZQiIiIiIiI9C8VsHqoIfiJBt9WMaDb/mlwO8ZNqwZyu97kVnmdRdZxlN8c+BFgV0WlWzowJhWb7EKFQkREREREJBlUwFoHY6d6YxwzE3iXotEjqwxmO9wZwWwfxrzCabZcYemew67wgYteYx9ixhkc5LA/UKfI9MhLccQRc6fYfQqFiIiIiIhIcqiAtY4azvXNrJ1fA+MVjXW2yqHNoMVgtkFLS7CXFZb/VX+ebxS1MxZnHLAvsA8wUJFZZ7NzcKReQCAiIiIiIpI8KmBVwIQZnlswnzOBgA7FriiHxwzmmfEQ8FDkPFxNBYaGc30zOtgD2MOc3Sm/QGAXfXYrqgNjep1z7qxgHQqHiIiIiIhI8mgRXEFjp/qYOOZaYCdFo1e9avAg8DDGw2781XM803qO/TOtF7Tfeb5Jxyq2i41R5uwG5aIVsKnS3auejiKOaZliBYVCREREREQkuVTAqrDxwddbAZcDn1c0+twy4BmDpx2eduMZc572iGfjiJdrBvNKf5yx1XiZD4oXs5HBpmZs47AtznbAdsC2nf87ROnr88Hv5zGc3BpssaIhIiIiIiKS+DWc9IaGZv+EOVcBwxWNRFkGvOrlXVz/cnjF4FVgKbACo1zgcl53iDHaI1jy7x92Z4jDgMgwhw06/3UdziBgMLCRwcYOmwAbdf6j4lSyvG7GlwpN9iuFQkREREREJB1UwOpFnQe8/wQ4TNEQSYRilOPTLZPtSYVCREREREQkPVTA6m3BozycCkyjvENHRPreCofmrUdy8cwjrKRwiIiIiIiIpIsKWH2kfppvlyvxA4f3KRoifWoOOU4oTrZHFQoREREREZF0UgGrjzU2+wR3vgdsrGiI9KrX3Whqdb5NsFjhEBERERERSS8VsPpBw7m+WdTOxQ7HKhoiveIPpRq+PG+SLVAoRERERERE0k8FrH5U3+wfjJzvA1spGiIV8ZLBmYVg1ygUIiIiIiIi2REpBP1nbpPd7LAb8D1AB0uL9FxscFUd7KrilYiIiIiISPZoB1ZC5Kf5rpS4DDhU0RDplrkOX20NVlQoREREREREskkFrITJN/uHzbncYXtFQ2SNXjA4uxD4OZgrHCIiIiIiItmlAlYCjQo+YD3jS+ZMBYYpIiL/Yxnw7TqYPivYEoVDREREREQk+1TASrDR5/qIAe0Ehy+g88pEAP4AfKUY7BmFQkREREREpHqogJUCjcHrY7jYYH9FQ6pUi8EZhWAtCoWIiIiIiEj1UQErRRqC72swHXivoiFV4iEzpheabKZCISIiIiIiUr1UwEqhfPCDDc532EfRkIwOTI9gNBeauF4HtIuIiIiIiIgKWCmWD34wcBGwl6IhGfE3g/O3HMm1M4+wksIhIiIiIiIioAJWBrg1NvPJ2JlmsLPiISn1rMN5g+DHs4J1KBwiIiIiIiLyZipgZUXwKG98EOcsYKwCImng8EAE31w1gl+1TbR2RURERERERERWRwWsDOo87P0U4HAgp4hIAs3BuLDYxB90xpWIiIiIiIisjQpYGTZ2mu8QlzgF+AIwWBGRfrbK4DqDi1qC/VXhEBERERERka5SAasK7Heeb9K+ipOAk4CNFRHpY4uBnzpc3BrseYVDREREREREuksFrCoyOvjgWjiC8o6scYqI9LK5wA/r4Nezgi1ROERERERERKSnVMCqUuOm+c6lEp8Djgc2UUSkQl43uI6IHxSm2F8UDhEREZH/b+d+QuMo4zCOf3+7m7ZaW9FN0OpFoxVUSgWFaFshUi9FKl6iF2+C3gWRFg8DguDVo3jVQ3qSViJ4MGjTICUHgw1F7Cr+oYc0JnSJYZPt/DzsoqJipE2abPL9wPDOZV6Y5x0G3odhJElrwQJrmzv2Xu5cmOf5TF4FjvpM6DpNJby/tJsPp9+IReOQJEmSJK0lywr9Yejt3B/XeAV4GbjXRLTKy+NywkcBH0wWcdFEJEmSJEnruAeV/qbIyhAcChgJGEnYZyjq+jXgkwxO7UrGxotoG4kkSZIkab1ZYOm//aXMAl4C7jKUbWc+4EwGp1bu5tOp12LFSCRJkiRJN5MFlv634SJrreBombwY8AJwp6lsTQkLAR8njLb38ZmllSRJkiRpI1lg6bqMjGb1x4s8FsmzJMeBp4CKyfT0y6CRcAY43YQvLhSxbCqSJEmSpE2yZ5Vu3NPv5EB7hWGS4wnP4ddZvWAR+DzhdFlj7Pxk2ApIAAABl0lEQVRb8ZORSJIkSZI2IwssrbmR0az+PMNQwjHgGeAJYKfJbLjlhClgPCuM3Voy6U/YJUmSJEm9wAJL6264yNpShYMkRyI5TKfU6jeZddcEvgImgLOxl4nJ12PJWCRJkiRJvcYCSxsgY6jg4YBDwBE6435zuWGXAs4RTEQycQ5mKKI0FkmSJElSr7PA0qZw+N3c027xUKXk0YTHgUeAg8CA6fxDE/g2YKYMpiK50LeDr788GbNGI0mSJEnaiiywtKk9WeR9BAdIDtAptB4A7md7/CR+HvgB+A6YDvimDdPnC76HSJ8OSZIkSdJ2YYGlnjRc5K5FuKcKgwmDAYP8eTwI3N4Dt9EK+CWhEdDI6Ixl0Ojro3H2RMy70pIkSZIkWWBpixou8rblGvV2m4Eq9GdQJ6kn1IF6QH/AQHaLroA7ABJ2ALu70+wBav8y/TXgavf8t4BW99qFzsBVYBa4EjBXBnMkcxHMVYIrZcls9RbmJt6MpislSZIkSdLqLLCkVYyMZvXyJfbWWjTHi2ibiCRJkiRJN9fvS6SKVwO+ph4AAAAldEVYdGRhdGU6Y3JlYXRlADIwMjQtMDctMTdUMTY6MTg6NDkrMDA6MDCePac5AAAAJXRFWHRkYXRlOm1vZGlmeQAyMDI0LTA3LTE3VDE2OjE4OjQ5KzAwOjAw72AfhQAAAABJRU5ErkJggg==;" parent="1" vertex="1">
          <mxGeometry x="220" y="80" width="118.22" height="40" as="geometry" />
        </mxCell>
        <mxCell id="C3Z15jD0Rza0DjGdYUHB-10" value="" style="shape=image;aspect=fixed;image=data:image/png,iVBORw0KGgoAAAANSUhEUgAABLAAAAFHCAYAAACxjrXJAAAAAXNSR0IArs4c6QAAIABJREFUeF7snQl8XWWZ/3/POfek+76kdE33BSggiLKJoUtKABEciyDKICrKOOoIIgiFsLiAIP4ZlcFxZFzG0bowUNqmTdqwr0VZSlnskqRpSbrQjbbk3nPe59+TNGma3tx7zt1yk/7O58M4cJ/t/b7vTXJ/932fV8CHBEiABEiABEiABEiABEiABEiABEiABEiABPKYgORxbSyNBEiABEiABEiABEiABEiABEiABEiABEiABEABi4uABEiABEiABEiABEiABEiABEiABEiABEggrwlQwMrr6WFxJEACJEACJEACJEACJEACJEACJEACJEACFLC4BkiABEiABEiABEiABEiABEiABEiABEiABPKaAAWsvJ4eFkcCJEACJEACJEACJEACJEACJEACJEACJEABi2sguwRUZdSLKwYbo8M9NYMg2ttWRMTyPKizzzPRXYCzpWHTru2YP9/LbjGMTgIkQAIkQAIkQAIkQAIkQAIkQAIk0BUJUMDqirPWFWpevbBg5I5+p4rgw7CsaQY6FsBwEemnUEcAF4r3IdgKxUYo3hHRVW4f6/mGE0r2doUhskYSIAESIAESIAESIAESIAESIAESIIHcEKCAlRvOR1WWUS+Un6CefAYwZwnkOAUGNAGIt9q0+T8r8L6ovgnos2rhT5tPK322+T/zIQESIAESIAESIAESIAESIAESIAESONoJUMA62ldABsdfVFXVM1qw71IR67OAdTqgvVrCH6ZEHVSsWl5rtwgbAfxNVf8Qi/b81dbi4vczWCJDkQAJkAAJkAAJkAAJkAAJkAAJkAAJdEECFLC64KTlY8mFz/x1uIVe/2qJXKrQ8QKx4tXZImQlXXiKzSrWXxHTuzefXbIxH8fMmkiABEiABEiABEiABEiABEiABEiABHJDIKmOkJsymKUrExhRtbTIKpDvAnoRLBksirjiVZgxavPxwT0CWW4pbtt4RsnqMP60JQESIAESIAESIAESIAESIAESIAES6D4EKGB1n7nslJGMeH7JDNu1boGgFIK+HXS6Cl+bL18JVCAfAPokRG6tO63khfCB6EECJEACJEACJEACJEACJEACJEACJNDVCVDA6uoz2In1Fz6x+HjHsW6DWvMU2lMAaToimIlVdbC5+8FG7jFAn/NUFrx75rynOnHITE0CJEACJEACJEACJEACJEACJEACJNAJBDIhNXRC2UzZ2QT8mwbh4k4BSgBE2spWaYtYh8SrlmGqqhqIvADodZvOOPe5zh4/85MACZAACZAACZAACZAACZAACZAACeSOAAWs3LHuNplGPr10qiVyD4DzEu230hRWV/MWroRPFYx3Y91Z5/E4YTJSfJ0ESIAESIAESIAESIAESIAESIAEugmBFCSGbjJyDiM8AVUZ+dzyqaK4VQSXQINJVMk0qbCLUBSVqnJz3YrnXkJZmQk/EHqQAAmQAAmQAAmQAAmQAAmQAAmQAAl0JQJhtYOuNDbWmkkCZWXWMcVnTLVt72aIXNokXnXG6jl4vFChyxV666bYi6tQXOZmcqiMRQIkQAIkQAIkQAIkQAIkQAIkQAIkkF8EOkOCyC8CrCY5gbIya8Q5p05zxLoZgkt9h9ZdVblcQUf0xpLlRkzZpmjPl1BcTBEr+UzSggRIgARIgARIgARIgARIgARIgAS6JIFcyg9dEtBRX7SqHPN85TTb824WyGVtpKsmNGk3bA8K+MjG7i3ttyqMmFspYgUFSTsSIAESIAESIAESIAESIAESIAES6HoEKGB1vTnLacX+bYMSk1sFuOhQ4sO7WmV1N9bB4Ecu1EP/RaFPHjAr27R595OYP9/LKSAmIwESIAESIAESIAESIAESIAESIAESyDoBClhZR9x1E4x+snKm2N7tUFx45CiObM2eUSGrQ+HKryTusn3K+D2xzpxX1XWJs3ISIAESIAESIAESIAESIAESIAESIIF4BChgcV3EJTDuiYqTYOsdBnpeYkQdCFnprKy4xwU7FK5ayxPFs2KwoObskpWcVhIgARIgARIgARIgARIgARIgARIgge5DIB2ZoftQ4EgOIzCmavEplh25DYJSX57SpKvkSBHLD3jYf00Uo41hx2ZJXmm5nVDxIgxurv14SQWnlQRIgARIgARIgARIgARIgARIgARIoHsQSCpNdI9hchRBCYx5pvLDlvFuU2COAJFWIUrat2+PFzG+kBU0d3y7xEtU4h81fMGouXXjx85dll5uepMACZAACZAACZAACZAACZAACZAACeQDAQpY+TALeVLD6CfLT7VFygCdBUhB27JapKnku7FavNIRs4Ityw7EK3/nlyfAKg92Wd1Zs8vzBC/LIAESIAESIAESIAESIAESIAESIAESSJFAMKUgxeB06zoEDolXKAbQM17lbZu0h5OnglgHX4pNlh32yWquXAFXgJch3m01Z5Yu7TozwUpJgARIgARIgARIgARIgARIgARIgATaEwiuGpBdtyUw5unlp1iqtwMdi1dtB5+6kJUewhbhyo8ScOHGBPibCy2rO2sed2Klh5/eJEACJEACJEACJEACJEACJEACJNBpBALqAJ1WHxNnmcDYp5adLAZ3iOgs9Y8NhlgRuRKyUhCumqk1F+gCeBHK2wmzvJQYngRIgARIgARIgARIgARIgARIgASyRiCEXJG1Ghi4kwgUPbP8RPVwJ6Al7Ru2hymp/W2DQQ4MBonf0uPKtw29UA8/YviqKr5Vc3bJyiB5aUMCJEACJEACJEACJEACJEACJEACJJBfBELrAvlVPqtJlcCopyqnRNS790Cz8/PjxQjerL2DCgLdWni4b+tiTEMBa7tbqym6YpcR/Lz2YyXfTZUV/UiABEiABEiABEiABEiABEiABEiABDqXAAWszuWf++yqMvKZ8imOWreI4rJkBaQtZCVLkMnX2zV2V1UPgscBfK7mY/PezWQqxiIBEiABEiABEiABEiABEiABEiABEsgdAQpYuWPd+ZnKyqzxsz822ah7k6h+LkhBbftcBbHvFJs4NxJqcwesagN8a+PHSv6vU+piUhIgARIgARIgARIgARIgARIgARIggYwQoICVEYxdIMjChfb4of2P04jcCMUlYZtKNQlZ+bZaDqpr7cs6KF7ttSw8sKHyuRtQVma6wAyxRBIgARIgARIgARIgARIgARIgARIggQ4I5JskwYnKBgFVGf1U+fERlZsEMr8lRSrHA/NiR1YHwlXruABPgWdcxeWbzy7ZmA2kjEkCJEACJEACJEACJEACJEACJEACJJA7AhSwcse60zKNrlw60ymwb4bqp9sXkc7OqnR8U4IR56hg3DgiDZ7BlzeePffRIHnGPvXYoNqzzt/Z1PKdDwmQAAmQAAmQAAmQAAmQAAmQAAmQQN4RoICVd1OS2YLGVD12nG05twtwUUeRMyFEZSJG3PqCilaHnBUq91c37LwW8+d7yWhOWFUxQPeaf/WM9Xht8Zynk9nzdRIgARIgARIgARIgARIgARIgARIggdwToICVe+Y5yzj++cqZaPTuBHBBkKSpHCnMuCgWXrA6vATVvzW63sXvzjqvJumYVWX8UxVXqeKHAl2jnreg+pzSJ5L60YAESIAESIAESIAESIAESIAEuj4BBwMH9oHdtw8s9Cqw0Etd6akWekL8/xUn4ndCVmMDoq4RT0SjUHwgKvtEY/uinu6HJ3uxZ/P7ABp5qqXrL4p8HgEFrHyenTRqG/fEkpNssW9XxflhwmRtJ1WYIlK33WMEl9WeVfJYkBDjnqg4ScQ8AKOniIgN1edMBDfVnDmvKog/bUiABEiABEiABEiABEiABEigCxAQ9B89CI5dGIngGBEZJ6ojFTIc0H6A9BL4ohV6qGoPAD1FUKAKR3wBS2BDxQBqVBAD8EGTiAV8YMT/X9kH6F5V7BDFJiOmzvKsuphxt+C9Tdua7PmQQAYIUMDKAMR8CzHuyfIPWR5uF5ESAJFUdlZ1SSFLcX91nyHX4ZRT/B+qCZ/BS5b0798ncreoXg5BH7/7lf9mUOhznuKW2uJ5lcli8HUSIAESIAESIAESIAESIAESyEsCA8YOciI6yUTkRAtyvAhGqmIABAMFMkwVgwTaFyJWpupX+DuzdIcC2yGyXRS7VbBDjVmvijdsMe9EG62N2FXL/sOZgn6UxaGA1c0mfOzKZSfboreJyGwAvnre3Jk8xZlORfzqHKT6N9fDJXXF89YGyV/0xLIrDiApAzBO9BAdBTxAX/Qgt9Z+vKQiSCzakAAJkAAJkAAJkAAJ5AmBY8aPi3jWaKjJ2IfylEYmxnWNqcG2jZtT8qcTCYQnYGHI6GPsiJxswT5HRCeryjARFCpQKAc/G4YPm56HqhoAuyGyBarbAXkLYj0Qq1//UnqR6X00EkhR1jgaUeX/mH3xKmLLbVCd5W/7bF9xqmJUOgJYjqjtNcA/19bvejhI4/bxlUtnwrHuEeDjUDhH1igxhVl14Jz3rRsoYuVoCpmGBEiABEiABEiABNIn4BQWfR3AF0Ti/Y2XfvygEVSxR6D3Rxtqfh/Uh3YkkBKBwYP7R5x+pxy8tOskAQpVMAKKPiKSj5/33xLodY31NYtTGi+djmoC+bigj+oJSXXwfj8ny3h3iEhc8aolbrpiVLr+qY7vCL+2zd4t+Vm00bp10+zZ25PFH7lqUe8e+wpuE8WXoeifwD6m0FXciZWMKF8nARIgARIgARIggfwhUFA47k4Vua6zdpu0/s2t2GmJLmisr/lp/tBhJd2IgKDfyCFOn4LzofpZEZmkqkMB9JYMHgnMBi9VfUNVrnW3VC/LRnzG7N4EKGB1g/ktqlp8oiWROwDMaTk2mGxYqe7Gahs352JW/BsKV0Psz244a9brEGkqKdEz/vHlnwb0dgBTmxoSJnwkJqIvqSe3rD9n7opksfk6CZAACZAACZAACZBA5xKggNW5/Jk9BwRGjx7sNNqXwpIvQXSM/6W8iERykDkjKVTxmsJ8y22o5eerjBA9uoJQwOri8z3hiYrjYcz3BDhXBaF+cGVSgGpVjjK5ouILVodmTNHoiX651vRYiOLipDdbTHhi+WQofqgwnxQEbFao8ETwggtzXc3Hz32uiy8Xlk8CJEACJEACJEAC3ZoABaxuPb1H++AKCoaP+7RasgDQsVD0yPfdVvEmTKF/VzHfdN/d+OTRPqEcf3gCmZQbwmenR1oERleVT+oBuQfAha2B5GDT9jCRD66CpNuXwsRsa5tslaWYWEUfinnmlk3FpXVJS1u4sGD88IHXCfRGAH0T2beW27YuxUq1zA3rP34umw0mhU0DEiABEiABEiABEugcAhSwOoc7s2aXgDN8/Amw9D8E+Gh2M2U/ut+mRQ2+4W6peTb72ZihuxFIJi10t/F2j/EsXGhPHDZgugFutoBLOhpUqscEU/XLFVwFVBRveMb7Su05pc8kzVtWZk045yPFMNZPAByXULxKJKYJVhpo2Qbt8RyKi92keWlAAiRAAiRAAiRAAiSQUwIUsLKG27/V0cHQoQWI9nTQKxaB19MGTPPnSbEN7A887C9w0bMxioaGGAD/nxS/qs7aOLpS4AgKC8cUaM9rYMm1qd8rn19DVtXn4XrfiG2vezG/KmM1XYEABayuMEtta1y40J5Q2GcG1L5RVC5NVn46YlQ6vsnqSud1BXYaxS2Ng/CrhhNK9iaLNfKJZWN6AjdBcXVC8cp/McmvWAUqVfT2DX2HPo9TTvF/KfMhARIgARIgARIgARLIEwIUsDI6ETYGFvVDgTckYsxYiThFqjpRgAkAxgqsAYDprRBPgL0K3QFBtSrWK2SdBayPRaPvIhJ7D1u37gNgMlpddw7m3yzYo//pYvSHAI7vikcFO5oeVX0GBv8a21rz9+48hRxbdghQwMoO1+xEbdp5NWy6iHujqrksaJJ0hah0/YPWGdAuBsEfYyq315099x/JfEYuWtS7R1/nMgjuFsigjuyTt38/5KlAhYp9x4a+AyliJZsAvk4CJEACJEACJEACOSRAASsjsG0MHTc8YulxlmWdqYp5EJ0pkJ5hoqtitwDPK1Cuqi+4+923sWfTDgpZCSkKBo8cHSlwLrEAf9dVISDd6jO7Ak+Kul+LNtS9HmY90ZYEfALd6s3QradUVSY+vvxYqHxXBJdqsq1C7WBkSoTKVJwU58of9hvG0htqzipZkvTWQS2zxj/10VPgyf8T6fi8eBjxyn/LNNlbWO655s4NNo8TpjiXdCMBEiABEiABEiCBjBOggJUmUn/nT6TvRwTySRFcDJERaUZscX8Hqn9SyGOxhupXACS9gClDebtSGBuFY6Y7Iv8CyCWJvnzvSoNqX6uqVomLf4lur3mzK4+DtXcOAQpYncM9dNZJK8uPVSMLxJLWnlfNYlK4Y+WZFKAyeYthECAC7FSRH6vn/Ht1cfHOZD4jnlwyrKfa37UU34gn1oYTrpr13sN8BBWeZ+7YMKvkGYhwS3SyCeHrJEACJEACJEACJJBlAhSwUgYsGDxqVKTAvsyCXAnItJQjdeyoTf2PgF/FPtC/YFetvxuLTzMBxykcdbJK5LoDu9bmCaRPdwWjigrLuNc0bq1b213HyHFljwAFrOyxzVjkyU9UTFejtx3YffTp9kFTEbGaZK8sznwmYscRl1wFVrqKazcWl6xOCnf16oKi7ZsushT/DmBYW/vwwlUc8epgQFVdqZZ16/riOU8nrYkGJEACJEACJEACJEACWSVAAStFvMPHTnCaG4VfkW3xRKHb1OjP3f3e/dizaXuKFXcnNycytOgMy9Zvq6BYIL260+COHIuWR9H4VdTXV3fvcXJ02SCQRRkjG+UefTEnVi07Tox1B0Q/2eHoxd+HFW4nVkusTIhN2Z8VUYVWK/SO6i27f4P5870kOWXCU4snw4s8BOD0FttMCleH5Rd53LhYsH4ORazsrwVmIAESIAESIAESIIGOCVDASmF1DCsa4di4S1Qvg0gkhQihXRS6H7AeiDXuvB07duwKHaD7OEScwtEnH8BepvDFK/ToPkPraCS6OBp1v4L3NtV1/7FyhJkmQAEr00QzGG985dKZtmXdDsiFQcKmuhvLj53fQpbuAeR3H2jBLZuLi7clY1FUVdVTJHq7AN8CYKcmXPlZ2h0ZTJBYIE/HXL25eu7cJ5LVx9dJgARIgARIgARIgASyQ4ACVkiuhYV9HPS4VyBX5Uq8aqlQgQ8E5q5ofe33AURDVt4dzC1n2KiZYkcWKKRUgFBN8rssAMWjUbP3amzdWt9lx8DCO40ABaxOQ5848ZSVK08wcH0RplSBwN+EpCNi5aOQpYB/Le/LroldU3vO+S8Hma4JT1acB2N+JYrhQeyPtAkuXLX4+m8kBZ5RYxasmz2vKrW89CIBEiABEiABEiABEkiHAAWscPScwrHfhMj3O+vYmgINxui13paa/wlXeTew9o9twroVlv6TQHp3gxEFG4Lqw9F9sS9jz+akGxOCBaTV0USAAlYezvaUp1aeoFH3DgBz4W8jbToiGO5JV8jKHzFLGqCmbD16/BLFxW4yCmMfe2xQpK9TLopTk9nGfz28eOXHaRKwFP7RxucVesu6WSUrU8tPLxIgARIgARIgARIggVQJUMAKTs4ZOu5DYmMhRCYG98qspaoaiLwcM96l2LJxXWaj53G0fiOHRvo43xGVL4ugfx5XmoXS9M/RRvuL2LH+aD46mgWuR0dIClh5Ns/+zitV944Du3nmtG4jTUHAahpWq19Y+etwKJ12vFDRCOBhNxK7pvas8wPdUjJhZfldIuIfHQy8a61ltJKKUuhjPhxvTIEXKWLl2RuL5ZAACZAACZAACRwVBChgBZ5myxk+9tcQ6xIROIG9smCoqntV9efultrrsxA+D0MW9XQK9XIIfiiQIXlYYHZLUvPHKBqvQkPD3uwmYvTuSIACVh7N6viV5SfYRu6AyCHxqk19KQlJGRKxWspIqYYUGCuglmCDEfuiDR+b/VqQEBMfLy9WIw+LYEAQ+0M2qe26atII42uDMYi8YCy5Zd3HZ/M4YbjJoDUJkAAJkAAJkAAJpEyAAlYwdE7hqI+KOAtVdbSIdOpnwqZdWJDVMavxM3j33TeDjaDLWokzZMwp4th/BjC2y44ijcJV9X9iDc5VwFp/swIfEghFoFN/WIWqtJsbT6ioON6ycYeozms6NtjBk6qAdMgvvd1Y8cpKtabEUyr7xZLvrDtr9s8gYpJN/9BHHunXf0DPynBHB5v2XIU/n3nwyGCSc50xCF5QkQVri+c8nqx+vk4CJEACJEACJEACJJA+AQpYwRg6hUX3QfTL+dJ7SaHvKeRut776rmAj6KJWgwf3jzj9/mIBs9DJwmFnEVTgN7H66i8ATe1X+JBAKAIUsELhyo7x1MrKmWrpXdosXiV/Ds5aSlJUmxlv9k8pSuAakxu2szhYjgIV64tL/B5ggZ6Jjy+7G4qvJxL/mm4VbBst5NBbfUP4iWKVJfY33po169lAA6ERCZAACZAACZAACZBAygQoYAVAN2jQgIKCAU9CcHzL97IBvLJromoUqIo11JwHNLUR6ZZPwfBxC2DJ7d1ycIEGparAQ7H6mqsCmdOIBNoRoIDVmUtCVcZVVk4rsPQuUVzglxJ6N1Oq/bHajDubu7NSwauKXSIFp6wrLl4bxL/oyeVnW57+UYDCI+2bl3gHR/2ChE/J//CdXVLlGV2wbs6zz0HKku4mC1wUDUmABEiABEiABEiABA4jQAEr+YKIDB87x7Ks/wQwLrl1Di0Ur6u4X4zV172Yw6w5S9Vj+JiJatmrAfTMWdJ8S6TqKvS/Yg21X8m30lhP1yBAAauz5knVmrRixTQR7yZRueywMlIRpVLxaT/2DPfLShFtzAiu3fDxkn8P4j/qhcohPfe5fwTk7EON2zMjWjUJX/7/CbHjqiMfVa00KmXrHOeFILcpBhk7bUiABEiABEiABEiABA4nQAEr+YpwCou+CdGbBDI0uXVOLWrVwy2xrdW/zmnW3CQrKBgx7i+AnJ+bdPmZRf3ddaq/iDXU+Cdn+JBAaAIUsEIjy4DDwoX2pKH9p1nGugHA5XEjpihIhd7B1dFwOkfM8reUrlj/xHMlKAuwU2n1woKJWwdcr4J/E8Xg1iOCIQWneAhSEa6SCV4KLDMGd6wbvOFFnHJ1LAMriSFIgARIgARIgARIgATaEKCAlXw5OIXj7gdwpYj0TW6dO4umPlgGP3G31NyRu6y5yWQPG1dq27I4N9nyN4tC9wF4IFZfc13+VsnK8pkABaxcz87BnVdQvcES/Vyy9KkKUqn6xavn8FgZUIc6HnSdQi5aXzx3VTIu/utFK5efHQF+DsF06OHtrYL450q4OjyPlntG7ly3YcOLuJoiVqrzRD8SIAESIAESIAESiEeAAlbydeGMGPtHwPqkAAXJrXNnoap7DxxrfCjWUPOvucuag0xDh/ZzIn0WSfOJkaP6UdX3BfrTaEPtjUc1CA4+ZQIUsFJGl4KjqkxasXS6LZEbVJFUvGrNkOJuLN8/k0JWx/WkL2op8IFRvbV62+6fYP78aDK6Y55ePrLAlXtg9CLJ0DnyVHdd+bWG8RXVcqjc+TaPEyabZr5OAiRAAiRAAiRAAqEIUMBKjisyYmy5qMwRESu5de4sFIgC5g+x+torcpc1+5nsEePnWzAP5cuNj9kfcccZmnsd6/3R+ppbOrMO5u66BChg5XDuJi5bNjwSsb8HNV9sEpeC5k5DwMqaiNW+9oQ3IyYbaVOL9XK30VxVM2/eu8mwFD30UM/I2NFfgeA6QEcls0/2ehjxKe6wkw2vjZOfy/9HIeUe5Pa1Tz/9QqDjkskGwddJgARIgARIgARIgARAASv5InBGFK0QoDhvbiBsKVnVBfCnaEPN4f2Bkw8pjy0K+xSM6PVnVfUFQzuPCw1TmqLpMkG0vZxKAPGvfG/5uBM3nn9MVAx+Eu2Gx0TDAKRt6gQoYKXOLrTnxGXLxtgWrrFEPqrAiQAG6MHNO4GCpSlk+T9OQmgtgUoKbdSy4toWItgAla+ulciKIA3OJ1RVnGmp3gXgtHR+8aYjXPnjDuPfMuy2Pn5PLBVrwTuzZ78UmiMdSIAESIAESIAESIAEjiBAASv5onAKx1UAmCUiefVZUJsFrD/GGmri9whOPrS8s/BvfBSxfieC4XlXXPKCGlWxW4CdKtgsqu8psAOQ9yHqioF36K53tdQX6ER7ANIHQG8oBkJ0iCgGatN/0z6A7FXBfW59tf9Zjg8JhCaQVz+0QlffFR1WPehM2TXuJKh1pkBOhegZUIxQIBJ4OOkKUen6By40uaF/dFCN+YGx999fXXzRzmQeU1asGGXEvQkQ/whmSo0nm/Z7pfGEEa78NK3iVZy8B36Y/+jtOXOuT6McupIACZAACZAACeQ/gZ4YOLAntH8n/+29C9i1az+AD/IfWWoVUsBKzi1SWPSIQEtFJPjnj+Rh07bwPxdA9bexhpovpx0sPwJYzjHj/gMqlwvQKz9KSlyF36MKgloo/iaQNarYYdRstyxrY0y9rYja27Gzene73Vdtg/ZAv1F9EdE+TsQZomKGWWIPUZi+qtIPFvxdaKvc+pqqrsCDNeYfgU7+JZp/QHJWUVVVZGJjY5Fj26eq4AyInqOK8QB6BKohUyJUpuIEKvpIIxUsjXnWdbWzZ7+Z9FTlqlXO+F3vXWEJbhZgXJiUYUWneLFTidG6h7Yj0Uxw71uz5/IWjjCTSVsSIAESIAES6GIE7BGjz7VgXwBFz04u3TXQR72G2sc6uY6spaeAlRytUzjulxBcJpC8ElWa+iMBD0QbqrtHg+9hoyc7duTPUD0u3/qNtVsl/oHALar6lIg+ZUTWeRJdjXffrU36+Sz5cmtv4QtY/j9Jex6HD02Po4EABazOnmVVmbJy5UhVdwbEOtVSnGdUTxBpUumTz08mBajYkeCLAAAgAElEQVRMxgrAVYFqsXA99rmPri0tbUzmMr5y6Uzbtu9Ro/6W56RNJ1MRnDqqIZVYScWrpib7+sW3Z5f8V7Kx83USIAESIAESIIGuS6BgxNjrVa2bRNC/M0fRtPNdvTvcho3f78w6spmbAlZyugXDxy1QC/8mkEHJrXNoofquKu6Mban5eQ6zZi2VM3zs1RDr9nw+PqgK/wRMBdQsinnWS9hevZ7iUtaWBANngEBygSQDSRgiGIGihx8eaPfuPVFse5rAu0QgZygwyO+IlzRCpsWnhE3Zk1YTxCAKwX0a1R+vKynZksxhVGXlkJ4Rc40Y+MftOjw6mIrQlCh3KvESHRlsnytm9Ix1JSXPJhs/XycBEiABEiABEui6BChg5W7uKGAlZ20PG/tPtiU/gUjalyElzxbK4m1jzNfcLbWVobzy0zhSUFj0OxV8UoKesMnlOFQ9iKxVxYMx4z6GrXU1FK5yOQHMlSqB5MJIqpHplzqBhQsLJg0ZMkaAUTDepSJyQeDb9jItZPmjyIKYpcAKE7G/u+Gsc16CJOlKtXChPWnooNkC/EyhE9uCbV3Aafa1aj9ZaQlXfrAA9ahqNGrZYzfMnt2Q+mKhJwmQAAmQAAmQQL4ToICVuxmigBWAdWHh+ALpuRiQaYFOfAQImbaJqqrgmdj7H3wK7zck/XI77XxZDlAwYuyxCvmNKE5C3jXLRwyCZ9TID9zYzhewY8euLONgeBLIGAEKWBlDmZ1Ak5Ys6W/16NFP1T1PYH1N1cwIdAVrNoSsOMpRAJ0mHpg6hdy0TiK/D3Lr4MSq8kmWkfsU8JtNWkHEoVRmIx0xLMhxwTg1vaX79p/69oUX7kmlXvqQAAmQAAmQAAl0DQIUsHI3TxSwArG2CgrH/VZFPpUvu4NUsefAjrD/jNVv8HvDpvgRI9DYc2LkjCi68sApmtsAjMlJwoBJFIgKdIV43tcbt9ZtAPybBPmQQNchQAErg3M1+bHHJkgk0i/So8e6NcXF72cwNPDgg07RlOF9rFifkyOW3ADBR6DaL2mObAtZ7QtIsKL830QCuIA8sFc+uH1z8QXbktU/rKqq7wB1vySqdyPMTY3JArd7PZUdV36I1uOC/r+E/FVrAY/u/KDx0s0XXLAvZLk0JwESIAESIAES6EIEKGDlbrIoYAVjbQ8v+qRl6X8KZGgwjyxbKTYYI1e4Wzc8leVMOQnvjBj3UwBXCqR3ThIGSeIfG4SsikIvRUNNdfhPL0GS0IYEskuAAlaG+E5dunSmWNZdIjLvwA+rGqjeHQX+vG7u3K1Jj8iFrUEhU6uWTlET+RagnwIwJGmIdjMdUmtJGj6ogQpWKfDNdefMfSapj6pMqKg42bawGILhSe0DGhyx6FOA0brjqiVniBgt+dWSe9zG2M1BGtgHHBrNSIAESIAESIAE8pAABazcTQoFrMCsLWfEuGegODXI5UiBo6ZgeHBX0KPR+ppPp+Cefy79Rg0p6O38HoK5eVOcf88gpDaq7iewpe61vKmLhZBASAIUsEICO8JcVSZXVk5zVO9S4IJ2r+9V1QcE+PWuaHT95vPP/wAiJt2Ubf0nLls2xrZwlUIuEcEYRdP1zFbQxu9+rBDaS8qla9OFe7rDCO5bN6vkziCBJi5bNtxyrJ9Dm0S6tJ5Ud1i1T5riUcGmMO2PKKrIl9+KRB5KeoyyqiqCJ54wKCvL6NpJCyidSYAESIAESIAEAhOggBUYVdqGFLCCI4wMH1MiYv9RBAOCe2XWsqn1lchGdb1PxbZtXJXZ6J0TLTJ83Gli4d8FcnLnVHBkVlV9H7C+FWvY8J/5UhPrIIFUCFDASoVai4+qNWPpimmwvZsAuSxRs3MFFoll/bu3f/+a6LZt26uvvLIxk9rRyEWLevfp3fMSUb0UqscpZDAEBYGErJbxZKFZexu8MYUubuwh/7LxzLmbk2Jf9aAzede4ywHrV0lt4xik088qXr50hKtW8aqNUugLei5QvPbZZ59KJEwNfeSRfoW9e881wKY3I5FVScWuVGDRhwRIgARIgARIIKsEKGBlFe9hwSlghWPtFI77BYAvBOqxGy50IGtfWFHgLrehJtAX3IGCdrKRM2LsFQK5FZDxnVxKm/S6OFpf42+2yMXehfwZNivpdgQoYKU6pQsX2jP695+mat0gFi5vDZNABFJVA5E3jDH3q+etalStqd23bzfmz89k8zyZUFk+KwLrCgU+JNAxqugTemtwBsUsBYwo3gb0+n/MLnksCPLJT1RMR0zLIRgbxL5VJPL/nwz+WM6IcBWnJgX2q+qxb5eU+M0TO3wmV1ZOiHjmHr/BpjHenW/V1q7C1VfHgjKhHQmQAAmQAAmQQOcToICVuzmggBWS9aAJA5wCr1yAD0PEDumdlrmqugpZ5DZUfwZANK1geeRcMLyoTAXfEMHAfCirafeVeLNi9XUv5kM9rIEE0iFAASsVev7OqxUrpqlrbhDB5+KGSNA8vUnQATYq8D8AnnAdZ03B1q1b1syfn9Ef3BPLyyfZFr4Kyz4JqtMg8Js0OqGHnF7/LP/A9W5V8+C6Wc/fCEl+DK55N1mPXwK4tKNaDyspg4JVS75sCVdtxrMGxsx+c968dxPNx7SlS08Ty/6hAB9TlcWq8r23atdRxAq9iOlAAiRAAiRAAp1HgAJW7thTwEqB9dBRU5yI8xtRPRkikRQihHbx+15B9amYNF6K+vqtoQPkr4PjFI7zW8hckSuWyVCo4o+xZpGQDwl0eQIUsMJOoarMWLpiulraRrzqQEEJsItJAf8mvkWqusJ2nFe2x2LVDSUl/q10GZNlJlRUDIiIXg7Vs1TkeABFAvRq25YpLIYm+zirJ07RMag+EbPNl6qLz/Vvu0j2yOQVyz8D1d/F3TWWMSpHlpHOjYJtowXpt3Vgd9yjprHxqncuSHwT44zyigsh8j1Aj/VzqGIxbNzJ44TJlhFfJwESIAESIIH8IUABK3dzQQErRdbDxp3kWLgbgjMF4vfUzdqjij0qutxtjH0LOzbXZi1RZwQeOu6YAlsegODCzkjfPqcqYqqm2N1Sm/wCrXwomDWQQBICFLBCLpHJFRXTHYObAHz2SNc46koAEetgnL3+bixVrTKqL+wD3qgrKdmRyRsMC3/zmz79RxYWAzJHgA8pcDxU+4U9XqiAJ8B+iOxS6A4BdingNglaKv0FGKyqA0XQRwXvitGvvzO75P+CoPb5imUWQWViEPtM2GRUuGpSmZJXpar3uZ5Xtra0dHci62nlFV+yBHcAKGy1E1/Esm5f89RTq9jYPTlrWpAACZAACZBAZxOggJW7GaCAlTJrweCx0x1HrhXg3Ka/PUWslKPFc1T126ZUK+TR2Pv77sLeLQ0ZjZ8HwZzh40+ApT8R4ON5UI7/5fersYbqDwHgZVD5MCGsIW0CFLBCIJy6dOnUiO2UQfUzHWsUHe/GCqBr+NqHJ9BVqnhKLeslqD799rPP1mdSqCh66KGezsiRJyBizYbqRwTwb8gYDqDDLcN+03E0iVZYD4V/Q8h6CLYqdJO42KKWFYXlCYw9TCyMFDUjFNYggTa8s27D/UH6NhUuW9ZngI2fA/L5ENOSkulholVA0SlRoiC7rtr6e6r/sm/Xrofq5s/f32HcsjJr+mln3CjAAgA9fLuWuhW6xDVW2Tvnzn4pJQB0IgESIAESIAESyBkBClg5Qw0KWGmyHjFimOMVXCqWzFHB6aIYmLaQpf7dRdiiwONQLY9tcf8CbPZPnHS7JzJ87Gyx5C6B+KJRPjxl0frq2/KhENZAApkgQAErIMXjKiqmq9e0E+ZTTS4Jd1altROrtSIFqkVkJYx5S1SXRI1Zu7a01L+9MDPPwoX2pMGDpx74RfJRgX5YRP3dWf5tGX6frBZNxh9MVBSvQ7DIGO8V9NTn1n6sNPlZdVXBbbdJUPFtauXyyxX4GYD+mRngoShtF3ombyhMMZZ/X/C5b+3YUZmogf/URx7pZ/fsdScgX2+z5Fp3eCmwTFQWvEERK9PLhfFIgARIgARIIKMEKGBlFGfCYBSwMsLaQeGYqQ7scwA9VUQ+rKojBegdWMxS9VTgnzTwv/x+DsCrsWhsOXZsruvOu4HswjGX2GLfDmBKRmYivSDGGPMxHh9MDyK984sABawA8zGjvPxYqHWHiFx0mHnS44GZEbIg8j5Un1TgTTGmvNHe/dL6OfN3BSg9sEnR4sUjIj0jH7ZUjlfI+QKdCaBPU48ulYc81WVm06Znqq+88oPAQUMYTly27Djbll+p6slhjzTGS9N+YacoNHU4gjTj7bKMOfuNefNeTYRoRkXFWDXqf4PzmQT5qoyN7745Z87zIXDTlARIgARIgARIIIcEKGDlDjYFrIyytjF87Dhb9DgLUiiKkRCZrCpjYWG4f0s2gIPHDNVTYB8U/gVF1SqyVoAGVbPR3Rt9De/X+31/gxxIyegAch3MGV50tYgugMioXOc+Ip/qpug+9wTs2bS902thASSQIQIUsJKAnL6s6jhR9w4Bzo97xC5HItbBI3xRAVarhdfFNVUfRBqXbZj1iS2Z7JPl3wDYq3fBiTZkohgUq/GWG09XrC0NsOMqxUVZVFXV03Gj/w8inzvYXD5UpHiLOE2BKSvCVevxP9XVonrRmnnz1iYa6NTKypkRD/cBek6TXce/8h83Nm6kiBVq2dCYBEiABEiABHJGgAJWzlDzCGE2URcW9oEWjHA8HaK2DFTLikC1WcAS8UQ1Kp7siJnYVry3eQuAzJ0cyea4Mhg7MmLs9QK5QSCDMhg2tVBqlkdt9yJs7p7HNVODQq+uToACVoIZnLG86kTx3LsgTU34ChJOdo6ErIM1uCpoOHA96wZVVHjR6J/+sWnT2iB9pgIvWFWZvmzZiDeff74h6BHAwLHbGU5eUXGlqN6hgL81ucM1mWixHvZahr/byUTswwU1fSTqeV9bW1rqb6Hu8Jm2tOLjlo2ficGMRHZ+3zRL8JLG5LtvnD+7KtV5oB8JkAAJkAAJkEB2CFDAyg7XeFG5Ayt3rJnpSALN6w/XZvsmxyDsjdF73S01/uVjR52QGIQPbbomAQpYHczbjOXLTxQPd8G/QUIksXjVEiMVEcv3TeoXv0gFzMEbALeK6NPGll95Y9xVaydnsE9Wltf1pJXlx9rGfkCgp2mCJvJtMB1eUYbFqrbBM7GLK14Mhf7Ei0a/984FF/hbqTt8pi9dfpGI/EKAocmmQQBXgZdFccPqc+c8nsyer5MACZAACZAACeSOAAWsHLJuEhDkuoPH23KXuF0mVey0RBc01tf8tNOKYOKcE3BGjLtXFN8M3CssixWqwVdjW6r/C0Asi2kYmgRySoACVhzcxy5aeQIi3l0iKG7ZeRVYJ2lDNL5PgkgpClkQqCoaRbBLFW94lnXfTtt+fGtx8fs5XU0pJJu2ouLHUP0SgL4J3QNPQApFtHHJxG4rP1wi8evAHzTfdER/+VpJyd4Oq1240J7ef+CVongwWU+wNjW7/g2RRuT6NfNmP5UeCXqTAAmQAAmQAAlkigAFrEyRTB6HO7CSM6JF1gg4zohx9wnkmrYfB7KWLUlgT/FJr6H6MQBeZ9XAvCSQaQIUsNoRnba44njbwt0CzG7teZWKsJTUpwNFJqkAlngJ+MfJBPhAgR1iy/d3qyzcNHt23jbum7ai4lYY9W/ZG5zpxR02XhP6NIWyQLu2DC5cs2fn4kQ3EE6oqBjQ09NvCCThtbdx8vm/oF4ynly/5nyKWGHXAO1JgARIgARIIBsEKGBlg2r8mBSwcseamdoRGDasr2P1/rGI+F/Od/qj6n401lD3YvqfcDp9KCyABFoJUMBqsxhmVFbOgKt3W4rzjlgjqQhL7eh2rI10fFthSx0p6yoCGMUvHdf94erS0vX59gNscuVjEyIo+F9VfDgX31R0uOBTBtyuaVeHcVozv2eMnP/WubP964Q7fI5btmyMqrUAQNxfgMl3islzsO2vr55bvIo/70iABEiABEiABDqXAAWs3PGngJU71szUjsDAooFOD71XRL6QD2yinjsFW+v+kQ+1sAYSyBQBClg+SVWZWl4+xdHIDyH4ZEK4qQhZfsCkO7KaComfOtWch0eLQuRJ43nfl337Xntr69bdGW36nsaKnLKi4gbL6LezsQvriAWehlDVfoiBdlu170kveMWz5Iq3Z89+LRGyGY+WHwvHvlsEpW3tkgtXh6xVZKkl1oLXn3vy79luxJ/G9NOVBEiABEiABLo9AQpYuZtiCli5Y81M7Qj0Hz3Y6Rm5Vyz8c6ezUTXRxugE7Hy3ptNrYQEkkEECFLDKyqzjTzttihr5rkA+F1jfCCRItZupwEJUFvpkHSzFP2IIYA1UfyoiVdt27nx365o1+zpT4JiybNk0y5K/KDA90S2EQdZ9NgWrNjpkcykJF0sHby3Fo1FjfWtt6ax1icYzvaLio5aHBwHMbLELJpgdiurbK2QRjLl99d6df090ZDEIW9qQAAmQAAmQAAmkRoACVmrcUvGigJUKNfpkhMDIkUMdU3CvAJ/PSLz0guyPNkanYcfm2vTC0JsE8ovA0S1gqVrHL398Coz3HUBblfKsiljtVJDEuZILWUl1lMTrba0Cv4VlVURV16yfM2dXZy3PqRUVvwP0n8LcGBN38QaevHAjDb7zqeO3VJOgJPgpnMj31hQX1yeq4NilFSUQ/A+AIcFzHy5etYhsRvAI4H7vjZ49/47iYjfcyGlNAiRAAiRAAiSQLgEKWOkSDO5PASs4K1pmmMCIEcMc9LjX3xSR4ciphNsTjUaPxXubN6biTB8SyFcCR6+AdXDnFTzregBXtk5QGjurQmsngXMliRw4TvxlqMB2Fbmm76BBD798yimdcs3qlIqKL1mid0ExqJ3G1/F7JzTwcG/DcMJRYuGqJbNR/Y7p2/uBt888c0+H1VRVRWY0uvMF+F3rjrSAY+2oZoU8rBL7AUWscGuA1iRAAiRAAiSQCQIUsDJBMVgMCljBONEqCwQoYGUBKkOSwOEEjk4BS1VmlldNUfV3XrURr1rYBD7q1wZmKj7t8qW8Gyudupt9VY252jXmN2tLSxs7400yefnyEyOCJQCOaa6oM6po15A9UB3BhKum8QhciH7+Dcf5U6KdUJOWLOlfYDvXWIofhGGRTHBT6MNQfJ/HCTtnbTErCZAACZDA0UuAAlbu5p4CVu5YM1M7AhSwuCRIIOsEjkoBa9riyimO4LuAXtEh4VQFqXR2QwX2DaDuhKhfgf1QveStkpJFWV9xHSTwRRsnEnlZBRNF23c+z35VycSfIysIIVwddFbFNrXksjdLZlckGtH08iePsdF4CxRfCTryEP2x/g+2fScbuwclSzsSIAESIAESSJ8ABaz0GQaNQAErKCnaZZwABayMI2VAEmhP4KgTsI5bsmKiiJZB9fJAyyGwqNQmWgjxKG4Ngf3DCVl+rg48GlxjLv/HvHmVgZhkyWh6ZeUCGHMpgAkAemQpTWvYIxZ/UpyJ3y7JRDAVvKIevvpm6ZznEwpYi5ZPtgvkJzCH30AYzydZzg58HoVl3fbavFl/yzZjxicBEiABEiABEgAoYOVuFVDAyh1rZmpHgAIWlwQJZJ3AUSVgnbC4cooKbgf0kgRizpHQAwtK7VxT9WsJE8o/qfoS53xcs6ClQJ2qXvF2ScnKrK+4BAlGLlrUe0CPHiWqOg0icwF8SID+maopvGAVZyI6KCbIDigFFsPI9WtKZ69JNKYZi5efKJbf/0qOTTb2IHnbxmixV5HFtjE3v3Le3FeS5eDrJEACJEACJEAC6RGggJUevzDeFLDC0KJtRglQwMooTgYjgXgEjhoBa+Zjy45TWHeJoLTtAbUAss8hbpJia6ZUdnHFUR2C1xrQsqUu1a0APvtmSUnCo205fAvJlPLymRZwLCzrdAAXCTAcQCRMDXEXd0A0cdW+jvXJ5leSxFbgP1zHuvOdWbM2JRSwHis/Syx7sQj6dWSX4s6rQ+Gae3I9DeDbryXZERaGOW1JgARIgARIgASOJEABK3erggJW7lgzUzsCFLC4JEgg6wSOCgFr2uKK4x3IXQKd0yqChNrddHAeUvFpmcJ0RSw/Tkr5Ayk2jQb66c7sgRV3pZeVWVNPP32EAMcBOEUA/3jhFAAF7e3TE6vaTVKSt10q4tFBgWtBo8buX1taurvDFKtWOTMadlwkFv7QegNhIuEs0PS2WTpH2j+jlnz79XNnP5f1nzZMQAIkQAIkQAJHKQEKWLmbeApYuWPNTBSwuAZIINcEur2A1Sxe4W4BzoknfKQkCqUkJKUqQMVZEu1mLZiGkdDKb5t+ze6dO39dN3/+/lwvwgD5pOjhhwc4ffoU2aqnWiKXAfgwgF6HUQ0GIpEc1GEpqR8/bA3pquDqNc89898oKzMdJZr6yNP9Ij32fVVU7koo0gUcawCxzVPoC6r67dXnlzwbYC5oQgIkQAIkQAIkEJIABayQwNIwp4CVBjy6pkeAO7DS40dvEghAoFsLWP6xQYh9N6C+eNVxU/BUBKlUfFomJB3fBKpGQE3jYIR21or/Z0WsH6yePbshwLrpNBO/T1b/SGS4WNZkiHxJFHMU6C+AFayo4Es+A6JV25LqjTFffbO05P8S1TlpyZPDetqNt8Hgq23tAghRR4QN4eMK9EWPIlawJUQrEiABEiABEghJgAJWSGBpmFPASgMeXdMjQAErPX70JoEABIJ/mg8QLJ9MZpSvPDbiuT8SyCyNc+Qs0af9UEJQOmJUOr7xYKe0M6s5kALPi9pfXDPvnDfyaR47rGXhQntG//4DPNVhViRyNYz5DGCNEGg7CuGWeIZFq9YNfgp9xbPwzbfmzn0iEd8Zj1aMtRz8AkCJbxdChGoNm6KPC+iLxljXvX4BjxN2ifcAi+wOBHzh3f/n4H0a6HB3ZncYLMeQEwJtv8zhesoJ8mBJKGAF45QJKwpYmaDIGCkRoICVEjY6kUAYAuE+3YeJ3Im2xz32xHQb0R9BmkSApsbfgUWpVESlNISjJkzp+icRswKO3RVYF7+xa/sSzJ/vdeL0hU49ackSf3ddjwLb+ScFbhVgzJFUE4dNRfRJFLF9PBVZCrg3vjFv3quJ/KYtrpziWFgEqN/rq/kJOIFHLKUAfu2WngfF8yr2ta+dd84LoSeCDiRAAi0EHPQbOQC9Iv0jEF9YPw6WTFXoOFEZp8AxIugNlcPfggIjij0K1KtqnQWsV8FbqnjLhdYj4u7GwIG7sWZNlKiPKgKCkSN7IVbQHxodELEiY0UwA9BJCmu8CAoBGQZoP6gcErBEFZAoFHsBbFXBJlHdpIpqtfCmDa2NWu4evG+9j911fm9G96iimuPBUsDKHXAKWLljzUztCFDA4pIggawT6HYC1sxHlk617MjdCnyilV5YgSgOlQBaQNyL6wL5tRTawWyEitF+yQSY4Tbxf6/qXffmvHnvZn3lZTHBtMdWnmxF3J/DsmZCtecRwk5HudMAHRdz23iCXxkbt62ZM6c20dBnLF9+ou2JLx41N6oPUFPS3B0k7FC0U33agvna3y9ILLZlcQoZmgS6FoHBk/oXIDpaHWsOBBcL9FRAmn72ZOExqnhRVf7qut4SuOZd7K7bEeynRRaqYchsEOjZa9SkoTHjHite03o6D5aMykaiNjE9NfqK2LLcNMYWucBGvCfbgbp87IuZZRTZCU8BKztc40WlgJU71szUjgAFLC4JEsg6gQDyRtZryEwCVTlu6dIJtin4AaCfjhv04GgDaAKH3FPZkdXinY5vJmMkInxYjRqFoHTNzp2P52wXVlVV0w45FBf7u75CTU2ShSNTly0rsiC3CmQ2gCG+KNR0s5/fsj5DT5CdWwd2hamq/CCK6F0JbyCsqoocv889D4KEfbLalh4kf/uhduTj1ymAUWC/qP56Pxp/8M4FF2zKECqG6d4EbAwe3Ac6MGPvrdC4Cva6aGjwd5pk8/HH52Ds2D4FMRkhnjlbLes6QCZmM2mi2KrqQfAOPOsBMR9URl2nHrtq3z+4myaTP1M7a4jdOW/zehpY1LtHxBqutjnJWOYqMVIsIs2/GzvxUeh+gTzpqfffnmf+hqhsw+46f23FMvz7uhNHeTD1sGF94fazs1lIQQ/3m6rWtSLol808yWIr0Kjw7nYbnXuT2Wbk9dz8bD6sVApYYWZuZG8M2u8Ag8I4Zd5Wdiree88XzP2fL9l+HAya0DsrSSLRYY5l3SliXZKV+OGC7gHMadHGSF04twxZ7zCNQPUHSaLZGDasV7Z//oYeUbDaQ4ftQg7Ze4+kCmFHNNrypVrnfdhItfh4fmVl1vSTT59YIHIDgC8kDJ2qqJSK+NVSSDq+7WK0/GvWPpVYeNzb61751kXnVmdyiuLFKqqq6tnb1U8YE+tlO84re/btq63dt293psWz6eXlx4gVuVJUL4FiNID+CthNYlYKzxFOyScjZhTXrimd89NEf/T7DeoH272+KtB7gpTVWkfy/K3hjhCvxBfXml6OCrBdgTcPfBj/7T4r+oe1paWNQeqgDQk4w0adKFZkCUSO6SwaCl0Zq6+ZlaX8BRg+fJCjvUaqhXMtwVehGAVpdwQwS8kDh1X1ex69qYqfi6tPRD1sxq5a/2hYlzoWHni8XdNQgKIeGOIOcRwZqWrNsSD/DOhESJvjf/k3NoXqOqP4DYAVbixWh17Yhs2b/Q+cIX4L5d/AMGxY3wKrTyUEH8nD6rp8SapaGWuomZPLgVDACk7bGTH+11C9VAROcK/MWyp0mzHyJW9LdeAvcVOtwi4susQW/CFVf/oFIyCq9zU21HwroXVh0Ucc0XsEckbY9i/BqkjNShX3xxqqv5Gad5f3KnAKx10uIr/MozlRGNwdNe9/D9u27UnpA3xeTUtZmXXCh8+cJAbfFtEvtnTCTVhjmiKWHzv0X2up5mw/kFSPN4aYNJsfUKYAACAASURBVLHk+/tE714/Z86uEG7hTB980JlRNPFCVb1TBFN9AQXAf4vBX13LvGPv2rVpzfz5Ge3zMqGiYkAvD/MVcjGAafD7hqj2DCJkpSBatfJQ4F01uG7NeXN+nwiSX1/vKH4ogq8kskt719XBBayAgWKfCKoVeN1S/OKVC+Y8Hm4iaU0CQD4IWIC+HK2vOSWD8yEYNqwPvF5jCyL4kFrWFwGcJkEuBclgEamGUoX/8/uPqt5fXU9XY3vdlhx9s51qyd3dz0a/kYOcHnYRLPsUiF4lwEkQyequn2xBVeg7CvwnjD7neqa6S68vCljZWiZNcSlg6YLG+hr/C8y8fChg5eW0dIuiAglYGNnbKXTuB+TznS2itoWuwFux+uqTACTbQdYt5uqwQQwZPcqJRG4RwZfzZXD+6SBVc4HbUOt/TvW6toDli1czz5wkjl4nIl9qkZXCilihBKl0hah0/duupGyJWapGbVy1Zu7c/87Kwn3wQWfq+PGn2kZ8seZIxV3kac/oAxa8tR/stt9ev+aZPSgry9xtSmVlkWmnnTnPUvWFrBMATALQV5pvA2t9Uu0tdSQzefXAUYzvvHHunGWJeE5asmRYL3V+D4F/5PGIJ1URLc6uK1cNtotgjYq+Fo06P3nrouKs77jLylpi0LwgkCcC1tpofc3kDAARDB7cD9JnasS2zhLBF0RkRh59CxVuiOofx9CFnuKvnjHPY9vGevjiNZ9cEXAwomiUrd5MC/Y5EP2cQAbnKnnW8/jrS/Cw55k/2zbWROtr1wLoWrt3KWBldZlQwKKAFWSBcQdWEEpdyyaYgAU4hWO/JGItQPMlXHnxqOr7qjrP3VL7TF4UlMMinOHjT4CYX4uI/xk5Lx5VfSYGfA4NNRv8grqygCUnLV4xVo3eLID/zfjB0TTvjQokYrUjEGpXVbpCVDvyoXLHW0qZFbNURf68pmT2/Eyv2hkLVxegf/1HALMAIueIIu63z/7uoKadQcb8UiGv2pa+vrqg4F0UF2f0lqSpSytn2hYuB/RYUZwigP/B4vDeI2lPDiph9MbV581dlYjnlEUrRvWwvacBKWpvl8quq/bLW5uPCa6DYrUCz/XZt+PB5+bPZ4PeTC/yozBePghY/h+/sfqaYenhH93LKYzMVDEfF7U+K4Lj04uXV96NCv0vo7rUa2isArLeLyyvBt8JxUQwpGiSbZtTLbHmid+bMw/6WmWTgypeAPSXEO+1WH3ktQC9T7JZTvDYFLCCs0rBkgIWBawgy4YCVhBKXcsmqICFEWOPdSD/IfA3NeRHawa/V6Co3httqLmpa1FPu9qIXVh0ni34I4AeaUfLTAA1MLe5jXt+gh07mk6HdV0Bq2n31UdOt5zIYkD6H8anaVSakojVIn4F5p1vQlYHsxpKgxHUup5e9nbp3IyqzkUPPzywT4/eZ8G2/01VPyaIL161Zd/UWFywBYpHIfKMqrVq37uyrvrK4oxu6RxVWTlkkKdXHjhyM10hp8HoBEnzjdumR9Xvo665+e1PlDSpxh09xz1WMR2ir4hI8w2E7d+gISaxJbeqGhHZo9BXAVktkKV7JVrB/laB3+E0DEAgHwQsf9dHtL66VyonvOHvvhw6frJjaymA+SL4aIBhd0kTBbaoMfdaMOXRLXWruRsr49NoY+ioiY4d+ZhA/Es5LuzSf2uFxHPwUoG/+y0B4JoXYts2vpr3R1cpYIWc5XDmFLAoYAVZMRSwglDqWjaBBSwg4hQW/ezgDmX/77hOf/zPTwBeiDV4s46q23gHjB1U0NO6HgK/r3hePAp9T41+xt1Su7Klp2vXFbAAnPjwwwMR6ft9gfhnNA/fyXNQxPLJ53I3Vku+0DOe6R1ZcRWQQ1V1qIWoRsXG9T0GD/75y6eckpGbQGYsXFiAgQNnwJPPQvRcgRwbmk/TPMoeEX1OFS8ZS5/cF42+VHveeTshEkLaSZzZ3yGm/TbPttQ6WUT9D7FnKNCv/fHCjqLE3Qhn8JOou+/Wty+8cE+H2RcutGf2HVCqsB7NhHAFVU9F/BsEHwfkZePGHu9RP+zNl6/OzJymMn/06b4E8kTAQtSK9sHmzftCkR48uL/jDLhCoHMgvoDVNXsShRpz81c8K6D431hD7H+BkMzCJjs67AWDR452nIKLBJitgpKu0i8tG9Ojft8Q1b8B8ueYF1uMbZv8o4X5eXSVAlY2lkBrTApYFLCCLDAKWEEodS2bEAIWCkaMnw/oDwGMz5tRKuqN6sXulprn8qambBdSOG68A/xeRPLmi1wDXeJ63jewtc7/O6Lp6dICFsrKrBNPOH2mRKz7D9yKc9YRc9pOxAokLqUjJKXj27b4TMWJt8gTzPhBFegRt1GvefvCuZvTfI/IpCVL+jlOrxli3IvF6Akq4u+66plmXN89qtDXAXkNqk+qmGVvPv98Q0b7ZK1a5UzZtntGxHNPswSnKuRcEfjHk+IeeeyoP5UKPhCD214vnX1XIqHNF/kifQd9HcCPDuMTQpqTJq1WY6pYB1hLFOYFV+wX3yw9pzaTIh9UZcafHu+zZn6xf506HxLIkybuQNTbewy2bvV7PAV5rMjwcR8RSz4P6KcFMiSIU3exad6dic0w+l9R3f8fIbh1FwSZG0dhYZ8C9LpAmwRQlIpicN7dUJm50YaKpFD/dtvH1eB/PN1Xga1b8+/3BgWsUHMa1pgCFgWsIGuGAlYQSl3LJoyAhaFjRjoR649QnC55ciOvKvao6o/cLTV3dC3yKVdrRUaMPktgPyaQvilHyayjMZAb3OiuB/Hee/6t2k1P1xawDuxRL3qoqueAod6Flup9HV7hnuZuLB9UCB3hCKqhfNtOejaFrHgrQLDeU+/qN3v0eDxprylVa/qylSeKcQstsTfBcnZYxuvtqTtUxToOMCdBMEiA0SryIdGMCFft3xIqaLpB7zUIXlf1fr1m9+4NmD8/c1fGL1xoT+8zZDRETxLR0y3gEwAmAM3XDSdvrK5bFHLj6tI5v0r0fi6qqurZb797vwBfarILt2h8DvtV8apY+F9j5M39VvTVtaWlWzP5M+TkBx90vJHjiyyx/lkVEwzkvlcvmPViJnMwVtckkDc7sNzoNGzb/HYAij2cY8ZcCbUvhar/x9Lhfe8CBOgWJqqqwC6I/CEWNT/Fe7VvdItx5W4QljN81PEC5zJY+KQqxufTLUq5w5A4U9OxQuCtA999LHTV/T221q0L/Vsum4OhgJVNuryFUChgBVlgFLCCUOpaNqEELECcwnH3AvJFEfTLh5Gqqt93+YlYQ815Xe5yklQAjhzZO2IKvmYBd6XiniWfjcbIF90tGyra/t3Q5QUsH9bJi6qGevC+JcC3j2jAfZhQc6jBe2CNIJ0eV5kSoDLboL2j9eWq6M2Nxn1gbWlpq8LZkfGM8hWnWqLXqTEzRGR383EBOAL0BnQ4LKtQVZtEnkw9SRbrLqDptr9NMPbPdr2/7W91GW5QPnHZsuE9jDXFv5XBMvo5laYbDHuIr2MdLjj5/xaDyD9U9X+Ni9+u+cSc2kQcRi5a1Huo3ePPUDk3HC/ZA2iFBfzGU1O3p0/BG9XFme0PNnrhs72G9N73UQu4HAaTRHAiAL/v3NOu5V332nklL4SrmdbdjUDeCFjwTkX9xpcS8m3+lu9bAvm0qo4SOTqODCZi4n/LCGAxPHNPbFvty91tfWZlPCNH9nbcyKcg1hcAnCSCAVnJ042CKrBVVF8yntztbqt+Nm96Y1HAyuoq4w4sClhBFhgFrCCUupZNSAELkWOK5lmKBwGMzZORKlTXqaefOSr+Nuo7YlhB356/BVCSJ/xhoH9xXfe72LbpnbY1dQsByz/SdOKSx08QY74PaMcCQJuu2i16Q6CNLumIWD7tdP2TzFigMSRZiap4TAyuX33+nLeSfTM6o7x8MNS+0RJ89cCRtz6dusiPHLyrincEWicqf9hbgL+unzPHF+QygalpqIW/WdZnyHCnyDaxsWrZ18Do2YLWbws8Bd6GmB8bIy+bxvc3vnXxxduTMvJ7YPUfPEc9vRuqxybcPtvcmH0bgF8c6NNV7hnr3dfPm7Uh08cEj1+8eKClvT5pQS8S6GT/dkRtEeyaB+QduGL2eQ+47rVPzHk+6Rhp0G0J5IuAZTQ2223YtKJD0MOKTnQs/TYg5wm0P495HSKlqnsPNK8vV2PdEduywW+8zacjAoNHjS4ocK4CcKWqjqYIGnypqCIG6D8gelfM2//XvDhSSAEr+ASmYEkBiwJWkGVDASsIpa5lE1bAwrBhfR2rdzmAj+bL71V/XarBD9wtNT/uWvRTqHbk+KmOpy+KNG1SyINHPWPwHXdL7IH2vVq7h4AFwO8hVNB7yIWiek9C5TZOXyx/hgKpG+kIUdnYRZWxmFLnqfevb26sXoyrr07cuF1VjltWWaoqPxVoUYerO92VFWhCEr63/CML/hG6jRAsN1H8Ys0Fs+sgkrkmsgsX2scVDBjpOtZAB7gSgs8Assj1zD179u+sC7sDzF/DVo9+06yI7cf5JoD2N3FEReQfUL3XAKugjXWvn3/+joz+hFG1Zi59fKRtvCvF6CcgMhoiQ9DxbjpXVV+giJXRWehywfJFwPLEvdh7t+7hOACtyPDxs0XMtyE4QyB5cctNvk20QvcBsjDmxn7Q/tuufKu1k+qxMKxoZsTSO0VwukAGdVIdXT2t/612vYH5ldu45x7s3LmzUwdEASur+ClgUcAKssAoYAWh1LVsQgtY/jGq4eNuF8G/ieRHDyb/SxcBFkcbqv+p5Qa8rjULgauNOIXjPi8iv8yjFlPvGA/fcLdW+6LmYU+6MkNgKqkYnrBoxSize/++1z97vv/HTVJJ4+SFFQO83tatYvRrkOYeRXGfNjux2opXSRP4xukeC8yY6BRsJgOMyTOCH5p9ct9bF89OulNo+vLlk20P3zvQQP3ijhqapzLX2fJRwAiwT4HtUCxT1QfW1A1+Axm+jW/SkiX9ewP9dzf2er/6ouLU/xhXFX/nE6Rgvih+ABG/j9h+QJ9SmPtsx3ptj+tuX1ta2phRZgsX2if0HDrNEu9rTVe/AwMV6BPk9kUBXKi+EDPm2tc+yeOEGZ2XLhIsbwQsmH/26mt/3f6no11Y9AkLejMgJ7BHUeJF1SRiKR6MeXt/hG3b3u0iSzAXZUYiw8fMsizr5woZfTTfMJgp2Pr/2bvu+LiKa/2duXtXcsNdEgZLMiUEg6uMIZSAcQPjhgGHUAKEB6YECB0CBFFCCT2UBHiEhAckEc0NcJER1RRLbjgOxQFJNrYkGxfcpL175zzPykVld+/s7t0ic+f3S/5gz5xz5pu58p3vnsK8BcRvWA2br8CGDZvc0huzHo/AihmyWCZ4BJZHYOmcF4/A0kGpbcnEQ2CZ3XsfQT5jOgh5mbHaULHQJcT2eYG6VUszw6dkeLF/O3+u73kQfpEM7fHoZOZ/WtL+Pdau+rrl/IwlsAbOmHOwQeIBKXkr28FbFp96cqXO4oumzxssBVQbzhEqtTDqHJeisZqSYDo+7pZJlAyLZCzCqiOQWaWQfPOyU0aVO/muUud65Bjnqz9Iu4qYO83JoN/VYbAYaGBVg0OIe7dnGR+6XS/KrfWG6k512HI6A0UMes4vu/63YmxRvasRZAAOeuutrA715hHkN+4FywEEZKm9DdX10hw7BVXq5HzJuHbx+BHRaxBp6vXE2g4CmUJgsZBXWqurH2+CnPD1LBxFBj8CxsGZEpKe6TvLijRn3GJh+zOord2a6f6mwD9TfZkE8FioziOR9t/HFPjWpk2or9tM+CRYU3kSgG1pWYxHYCUVdo/A8ggsnQPmEVg6KLUtmXgILADCzMl/F0SqwU7Yzu8pR4H5O2a+y6qrVvW59s7RuXNXM7vLCiLqlgkLVAX0mXFTsK7qMahAiRYjI1/C+s0sPcCU9AARqygfMOiK4Ibg80t/NVrrRXrgtNLzSOB2Avo0zncYLSKylLR2nllsZFF4Rxx2wdH/aMuLoltFJTHo2n+fPKJlxEJYjX3fnH2kMMQ/wI24ZvLQOtiMWpLyFtHB/9riYQlETWUyEBF8U2Rkry7mSUz2MwTqpoWXxh8PBj5giCsWjTvRq6HTBs9FvC5nCoEliW8Nrqn6w851CF9O/omCxF9AODDetf1Y5zFonQxFtFW9Hcs/iXshXsKX2+dOQXzLXri2TFrS8kBN5VAAWu95rjruEViuwtlSmUdgeQSWzgHzCCwdlNqWTJwEFkSPwqsNH+4hJKWDfcwgMhAA5D+smuoLdGiFmA1kwAQjr+AUAzQzA1zZ6QIvs4Ebdr6DtnIrnntrMtdGA98oKxA++15iVU9o5yB8b9v2+MWLP/4ExcWO3JKqJZSV3fVBAv0PKHT4SZsEahKVpaw7GmuJhltRVclKNdyDaRCgp0nYdy4dPbrOaVMPnfX+voID9xL4PCfZVP2ufXgdN58sCflwMMhPZ2WhbunHH2/XOWepWqcrdoqLRe7PftauSwNy2pFxEQDVtVNFW+mHWjVxpBn2LfBlYKY05G2LF8xfutfh6Mpm7H1KMoXAAuQfAzXVN6r0Zt++vY8hFn8h0KF7H+KpWRGDP7SkfTnqVn2+t760RUfykE5mbv2fd9QePDs1iP+4rTB4obWl4SRsqVH1K1M3PAIrqVh7BJZHYOkcMI/A0kGpbcnES2Aht6CPSShXH9gzZcWh96Gg+B+s+/bLTPHJTT/MvIKnCKSas6V9hJI2gZetBroVGyvDZuBpcwBJX01xseh3+LGFpl/cQJBTWtqTkHMtyRcumzh6pY4vg1+feyj76DEiDFM14XbNceQydgm2SC/Untds/h5PY57fdJEuk1kMqHS6RYBxzedjTnzPCU9FCPo6dT+NIV9UoZ1O8k1/j2Xdrh3GWIy2Xsw8w+LbpRms2gasdb3WVCzguSCrUgQNy9fdTzhYkLhWgEYAHCpgHS/e0cirJs/ZVJv5ziUNG5Zi8mRVUN8bezECmUJgMcunrdrqy83uhUPgw9NEGLAXw56SpTH4IWurdR82r1adT388o2dhnk/wnwXRxB/PotO7Uma2QfyRFaQzsa4qdfXXPAIrqRvvEVgegaVzwDwCSweltiUTN4EFwJ9b+CYIYzJmxczfgPn2QF21ugvvbcPnzy34CkQZkWHF4O0MLg7WVD8Q6eNpvHdYdzeuuFgcPuC4PqaQ1wqKzP5JgdvXblv/gG53twEzSn8hwHcDdGDTmj7a/EaYYu/ac3ch1AThmOe2RNmNdMXGjMoNAD32+Wcf3q0RIUOHzpx9mCFECQF7IhnSeXISBtLx+Kp6Tl8ajAdtQRVkZ638/JRjN4L0A/kcLSRTgJkOevvtTu1lu3wBu4gYlwAY0pTIjZfA0iGvmpBYrxHonopOYimGDWuVv5xMCDzdqUUgYwgs4F9WQN5l+sXjhNDHC28kigDzVtvGL+x1VbPD1SFIVH1Gzt+3T4FP8uMEPpmIdn8Ay0hf9zKnVJ1KYkwP2PZvsW7l6pQszyOwkgqzR2B5BJbOAfMILB2U2pZMIgSWkdPnXEOwKnGTzhvnbsCZQ12an7ZqK6/f27oRmj0KBpOPKjLndPG/pZTXButWqvfOsCP9h0JFXg0ZXuiXDdcScFl0boK3McS4heOHv6MFckmJMbB99wcE84UMdIqLxNp902/0bJd/MXMobqUW7lp49NpW0eBR3evepqC8Zun40d864XjItA87+c3tDwFQaWc/mrETXhWs9t2O+jn/J4M0JwDx9VcdRW3GkjHFZb6+R6CHPxD8KQw+moT4Nbh17Z94HvpWcxwegF3yzHgVRPd6JNbe/ehkCoEFYAEY34Iwee9GPLWrY8Z7VkPDedi4piq1ltNgLaf3gSYZ94AwPlPqb6QBhbSaZMZmkHzJ4obbUVvrWOIgYWc9AithCKMp8Agsj8DSOWAegaWDUtuSSYTAwn77dTdt8ysCMiaNEOC3Aw3WJdiwurpt7UR0b/25BXeDKCPqfDKzZNCMoG1fFu0jVjx3Wff2jJn6Ty/7iUnyJgLOb6o40v2YgSWS5BmLx41q1VIxnGN9p8/NzyJ6AuDRO6JB/C1lYiKiWqQVNiW0tEBxORWwmU09QkuV9PrCZrp2+SkjZun43O/NuWeBoBjwvf4rdEQIG3Mu1yviD8wfgLl8w7ZOy1dNPnq7DobJlil8viy7a4+GQyT7jhJCHMEsJxHQtaXdeB/2eMmrJvZnSPA9Czv5yjOW/Ev2Ju3l+jOIwFLpqpnRtWYv23Mp+dpgXZXq8GjtZUvbs5zuvX5q+vy3g3g8gdrvtetsAwtjYC0BTwa2yz9hU/WGpLrsEVhJhdcjsDwCS+eAeQSWDkptSyYhAku1RM8reI5Av86gVX9hg6+za6rezCCfEnXFZ+YWLiFC30QVuTGfGRuZ8ViwrrI4mr5477Ru+IjB02YdBDJ/L5jPDSnUjFIixotcs31KxZRxWi2XB86YewIxngU1TyXctYh4SaymBFZMOsKsNWYyzGkHwu/sRiI8sSTbd4cOkXDI2+8c4pfBN0B7XxHkqAc/ymYyOADQ+8x4dEsH37zKYcPqnbYiSb9T35KyDr52cphg9CfC0QCPikQ0xvOgh52jGXm1e8075Rl4Eyzuqlj8/gKNtNUkQeapTRYCGURgJWuJnl7mFQFpn4y1q1bslWDk5B9gkrhhx0eeM4nQea9cY1tbFPO3DNxt1VapmiOBpLnvEVhJgzb0bstcatVWjUyqkRbKVUQBE123q1lNKm03taUuY4I8AksHf4/A0kGpbckkSmD58gqPF4DKuoqp/nKyUGLmLUy4M1hT9cheU1Khe8GhfpOWZQ7G+JzZvi5Yt3JORhJYQ14tPYBNvptAv2zmoB6JFWSmyxZOGP6s7iEdPK30hh0EWTEIoQLW4UZMJFSTaKym5FNMOtREd+paRYeh0YYF8DsI8qU6qYMoLzf71W14HkCb776kRd7EuHE7OiTcvjWLHvtm5MhNumfQLblDX5u1b3aWORHMBzIwloBDIunWWnuYyS5EXe3Jt92jf5YNeduiCaPK3cLC05MZCHgEVmbsQ7K9kMAdwZroX8WS7UNS9PcszPMLeSWT+J8dUT89k2LDUxo7Ao2pBAuYVS2M6o9iV6A5wyOwNIGKT8wjsDwCS+fkeASWDkptSyZRAgs4KMufF1y6oyPdTzJl5SzxN8sO3orvV32XKT4l4ocvp891QrAqlp72oRq5MPjN4LbghU6Ng+K93ya0yKI35h1IAn8EeFJYRVqpdvRlgPiCz8eN+FjHmZ++Xtq9vYmnAZzmJB8TlxGByFI2YtKjJiSJzGICg7kGxBd+Pmb0207rV7/3e3PWWSDjrwCydOQzRUb7QMe8Oc1XyOBLNnTt+MKqo1OfRjhoRunpINzHjD4U4auENg4tNs7NqKsIZ2Iu+YwbFpwybHGmnBnPj8QR8AisxDFsIxqqA8EtR2HdutR1iEs2MLm5HUy0u5AI1wHonWxznv7YEFDdiMB40arHvdhU5Vi3MzbtO6U9Aisu2HQneQSWR2DpnBWPwNJBqW3JJE5gqW6E+feCxE2ZsnJmfMY2bgyuq3w3U3xKxA8zt7CMCCckosOtuQz+noHHgjVVdznpjPee66Q34u8h8or4QSJMdOQQokdjBRmYRVu2X1Bx1jit9t5FU+f2kwbNJCBfZwGO/jVVstvXPbPiLviu9GqReDqrCBFpDQT6U3Dr+luXT57sGIbff9rbh8D0lQDor2MhJpx0FIaRifugJsk5QXTOFgReXTFmjCqKn9Jx+My5hxoS/Yjo5ypCjoB9doV+xo1TuCOngV2skVqNQPF7Ar7rPpswzIvESunJSZ4xj8BKHraZpllKvi5YV6Uae+wNQxg5BROFwJ0EUvUfEvkTujfgkZFrYEYtgPsse8tzWLdus+tOegSW65A2VegRWB6BpXPAPAJLB6W2JeMGgaU65MGgT4hgZsLqmbEJLG+w6qr/F4CqLd12R+fcPmZ29mdE1CMTFsHg5WzLS4JrV37g5E9KX9YGzphzsM+mB4lojKrVo3E/jkLkkIoq2gLCgxULP7xbt67O4BllZ4Pk38CsVZRcy8emKLtNZCndCZJZBPqMyTht6Zhhq5wOBEpKjH4dujxLoHNU/bw29Tof82Y5otFKYOdWbGfmM5d2MN/SqSUWuxW9GYdMm9Mr2/D1M6R9KIOuJApFD2id67BHttkbZ3Qf4onUanGUPwhCXuOlE+rtdaZLeQRWpu+Qq/59E6jBYUBluur/ubYYdW4hTBUNPoyIYv7b6ZojniJHBBhYxEFck5Sv3h6B5Yh/IgIegeURWDrnxyOwdFBqWzJuEFjo0aOTz+gwWxD9LENWv6OKDD9h8fY/oK5OfVxps8PMLfg1CE8QKGJ5pVQtjhkWgWcH5LZfYu3aLU52U0ZgDS4pO8gw7YeZeDRR826AjrxDBAJHtVokEl8zBa9fOG70DKfFqt9/VjK/XUP2tkdBuFhHfpeMo4/hlLmZXtji9t/SXET/mG0pMGbZmFFRi6Ht0tf/zXm/ZMiHAeRSLF+jk3mS4gI/lt3VImskCOrL72tgesMygvOXn3SS6kyY9tG3pKRjVlaXn0qf7wAh+WICH7Pja3W2k2PxklCtjqLG/oSxZYMxn5muKz91+GdOvnq/ZzYCHoGV2fvjsndss5xg11Zr/Zvrsm331PXo3cv0iWsBXLKXdBxUf1PVv1Pqi7D6q6z+7BLAAiDVmTOZ/0q7ty8RNLEq4s78d6tB/AEbv61y1aBHYLkKZ6v3U6+I+20NNVVPJBXkBJSbeX3+DuZfpjvCxSOwEtjEDJ3qCoEF+H15BVcKUEbUaVJQs8T7sIPXW9+vatP3FzO38J8An5YJH/Aa0wf5j8Ga6j/qHOeUvNCotEFBeJjBo3d3BImeHhje9yZzmtyZVXHyMgAXVYwfWa2z6IFvlBWSKYTKngAAIABJREFUz1aphIfpyDeV0birt1bZIiqrpY7EdIZfQZNExj8Ft268Xit1cPrsPuwTLxFj6I+5FX3To9lIkpJi2J+TLKeybaxa1rB+HSZPtmM9O8mWLyovN2XVpl7SxwcIwtlEmAygY6SLS7NHUPMQxpMyGIUoCzLhE0i61iOxkn06kqv/R0hgKZKgAYwgiC0w6gHaCmAbE9sE6ghGRybOApOPwD4QmaHIX6KM6KaT0IlgvBGorQxfwzIhxamaXJht5tBkCPkogbqmyqordpjV2asH0VoJLifmD9mmJUS0gSjYmM4QqnvZSFgxmEBmtmQ+SBAPgUo9ZxxAoA6gUMRuSt4D3Vi76uhGQl4RWFP9Suj5c2uE6qBlTyXCYLdURtCTDUZ22v8GMKvTsT10jlIxGO8FaqtS+vfC60Kov7E/SgIrp+BUQ0ClgCVjqO//7TOkhrDKVtq088NGMtYaXSeLvwRqv70lYcPd8g8zTZVGSOpOk/bBzBuJeEqgplqV22mbo2NeT3+HrPkMHEhE6X8PYF7Bks6w1lZq1UhOusNF/3zrQMryPwTwyS0jr1q+NmndocMQXwTaLAX+d+G276/XIhaYxeDp80aBMB1x5NRq+dnyOIdJLWx8udwz4tK7a3r4nfx681Yc8c1kjU55xcWi35BjHiOB89XFq20+jfF5HeEhUATVfyHxuG3LabKzf8PyYcPUBTWhbYrPwxhnlZQYA82enQxfII9t41wYOI+APAbUV/jWtxXNFblCXrW2FWTGJyRxzYLTRiyIcaWeeIYgsJcTWOrUWgxsYpbzBagkYAfLYXN9iCgIDWIIIUFGI4HAtgCr9hmykaxS10VmMn2+nkQ0ggVNBHAIEXVqix8L1JdyKxAchPXfOaelZ8gZberGzpoafyNCvwx0r7VLqhsfYQMD70LKZ4KW/QWEsBHgemymbcAqReZEq8Wh/nyb6NYtG8Y+7WEHTARFlpkthgPiYgg+lEJRuxnwEht9Q5jB71qWdRm+X/2Fi3tHyMnJQdDnd1FnK1V+07yYQVcRQT33aRuhuqhSPhYIBlMTFeSX9aipWZvKBXsElj7aP0YCC9i/HbrJpNT9MQ3qTobvVoAcm4bp71K8kryF2R5hWXJ1vBoSmif9m7GxcmNCOtTkTr16+Nr7/yoI4xLW5YYC9REAuCew3X4YP6zKiGycWJflz+k9kYVQJYOS8hzE4s/u9MHaqlMBBHXmJpXA6l8yu0+Wz3iIBMZxpNo88dR3ak1iKYb5vzt6L96+eOLIl3UWfkDJ3M77tOPfCYgbdOQjyWje/ZtPD0NmuRKV1cQKEWzBOGXh2JGzddY3YObcSQDfz0QHtqUvsjprayrjdOAZsAAsMci6bptlLexYs199xZQh6r+1yXHQW29lSdPM7rxdni4grgPRwc0uzBoHOJ5Uw1jmEGAzY37QltcsOn2UV9i9DZ60vZLAYg6C8A3b9JRlG68DGzZhfXYQWK0aYWj9AxtmKxuJhJ49/bBtASE6mEb7GwE6fyeZ1Saisxo7w/FVVm31s23uuObk5JrU7m4Av6YMj4ZTLaV3NOr4WrJ9ix3cVrrz/KmoGbcKx6qzmIWGBr+vXddLifDbTHiZjXamWD2X4Ossuf05nToZmXQ+s3IKrpVEtxGhczr9YqCe2b4rWLvynnT6kUzbHoGlj+6Pk8DSxydmyby8niayHiLQuTHPdX/C5kAgcBjWr17pvupUaizMNnPpXCJ+JpVWo9piOQfgawO1K5dljE8xOGLmFfwJwIWZUEJBRVeD+FarpupJ3SU43ed19bSSG/TavAKT+EEInL7rx4h35QheRL1bh58zV7Jx2cIJw1boON5vZukBpuSXiehIJa9xl3dUG7MOjbCWuN5UiZ/e1N78beWwYY4h4n1L3szztff/HxFGRH1xdFx9agVcO7yN1ULqicU7AZ91bqbUtkoGmoOmzRlCJJ4CY2C0egcRsY1ywKPuR4R5LdI132OWvymfNLpN/mOQjP1qKzr3IgJLfVbbToy5Adu6Aeu++ypFe+BDTv4wP9FTIOqT6VFZikQg8NuB2urxKcLHLTM+I7fwFIMw1S2FSdKj/mKuDHBwLGpXfZ4kG2HV+nMLf8HA0+kmWaJfHPibQDAwFt+v+U8qsUnUlkdgJYqg/nyPwNLHyiOw9LHSkvQILC2YYhbqlt/XNEUZEXJinpuUCbxeSnlWsG6lVqBIUlyIX2mWP6/wYwADMyJohfm7ANGxqKms1F2SaxxAE4NUVDK3t/DTPcQ4O+Y0wQQislSRTwFxv68++96PJx+t8vujj2IWAwfNGy4ElYRe1lTKR7qIrKaeRkk31CDIGOAqO8g/XzZxtDPjXlbmG7AteDsYvwHQpe1Uw3Da3MgbqQACM5Og7WDaCIHnNrUz7tUh+zSstgkRFYHYNVv8GcwngmgfBmerFGja+Qw0W4TGoYsl4krpjiI/LWjj9wuXfbhMt7NomwB8L3eyrRNYqtYdiDaS5HcC28zLsGVFStNd9hyP/dv5c4xJEHQPM/alzK5RtDKwpb4IW1KbGpTQo9Qlr9CflTUDRIcnpCc5k1VnI1U/bR2IrgzUfKvqPKVrZPlzC25jwmVgdM7ESDXJfFsQ9Y+gtlal9reJ4RFYqdsmj8DSx9ojsPSx0pL0CCwtmGIW6lmYZxq4n4BfxTw3SRMk5I3BwJa/YP36H5JkIilqfXn7DRPw/RWgwqQYiEFp6IOooDcDaypVaQ3t4S6BVVwsBg44Pt+EfT0Bl+32IlZSKlb5XYbUPMJXTHRrRQfxBoYNc0zz6DtrVrdsy7yCCDeBuVnnNo17uxbQCemJnczaKpmmbDcCr64YMyZ6kVNm6jfjnZOEkCqMXLGw0Ye7p8XJmt7vMYAbIq6AABHWM/PKHek7D6zfsv7NVZMnO5Odet64LUV9Z83q6tua1R4dAxuWjhq1DUQxrNjZnb4lJf522d2nMPMlRNSTwF1VrazdHSgdrMVKXCmPnOYw8FqQxV2LguuWadW0c16mJ5FkBNougaU4A9oMwpeW1XBexkR0dMvv6/eL4h314U4icEdkQoHNFmeosWMUpth1Va8n+Xi5pL4w25fLtwiiW11S6KKa0DncpOo7BbdsvwRbM6I1t0CPfQeaPr9K2ehLIPV+lEFvAVwVCAZHpTBKMuH99gishCHUVuARWNpQwSOw9LHSkvQILC2Y4hDKMvfNnwxJf82Ernkh/1lOCzBfi7qV/41jPWmb4s/J/z0LUiUD0t7EhsHbpORL7brqF2IBxL2XkZISY0hWj4OExPWAvLCVE/GQUvHMUeeJeI5kvmXR+JEVOhf+ohmzfwoYisRR6RChQtdNh1uMQcJ6IpBZoWeo0WHVgujZrQFZ/N9Jo+ucDsLAt8sK2bb+uLPQYHJqr8RywhIGKOyKVdFXJohNUB0OCItB8rmlWzeVu0yOqJW6uoLDp87ubZK4G0Icz4wXwfxekO0vlnX2r9EhZ532v+nvqlbWPgHzBAhcJJgOZOAgEDrQzk5W4XQ5EVGR7Gtkzapawm+wMO6Va75cXDFlSputQRbLHrRl2bZIYIVq6RCWwua/WWurH884/HNzc/yU/RtmuhjgnIzoEtMEJPXSAaZnrdrK32YcdmEcMnvkF5FB7yJDuhjtcrGx0y2+Zok/WcHNL2bcl9xuvXqbpnkDgU4HITejSCzmPwRqq+5ytSNhEg+zR2AlEdwWqj0CSx9rj8DSx0pL0iOwtGCKR8jM2W8AyPcCEfWPZ77rc5hrpJSTg2tXfuj2HdB1X3cr7NXen2O+yoSRGUIExhXNHwu9EBnL4mIxZNDPD24kr3gneRXmLh8PIRXPnFBRaH7Eatf+gaWjj3EkcqAixwYefZIhxJ9AOCDUMSo+u1rnzRWWo5l/rC78qk/R5zbJX38+dvRCpwep/+zZHThAlwtB14IzJZ9YCz4tIRVtpYqDg1HH4CUEqgiAX/jPuFFfaynQFVJpqAPezWefNYiAZYvd0M9M/d9+dz9h21cQcDkBHULuMLaD6J/Mdhkb+DywdePy5ZMnq4LS7o2SEqPI6D6ATJzLUg4E4TAwuu+8PO8+dVokVAuv9Oc0ShLwupR8X4duxqJ3NaIp3QPB0xQrAm2NwGLmLUx4T0j7d4G6UI0hV/4sx4qbo3yXLl182fv8liAuJaBnJpEHoQLjRB9YNZWjVWSr41rSK+D35xb+EwTV4SZjRiOGWCJZ3mHXGnOASsealWlxvkOfXF97eaEQuAxEvTLmHDJXBhoCJ2Djmqq04BKjUY/AihGwBMQ9AksfPI/A0sdKS9IjsLRgikso1IQl+2YicWWm/Du0Ixr9NxbX/62tpLOb3fcfCp/xHGVIKQUGXrBqKs+L9TwkTmAx05Ez3z8IVvBmEC5ovGfvGhqVm3VvDi08dbptMOE7MG6B2P5Kxbhx25yA6TdzZle/3e4aJlaEwZ6QuiQSWc2xcvLQ4XfCOsl0m7VdvLh88rAtUaWZacCM0mNI4BEGhiRoOROnW8z4L4g+IubFWw3rXyvGjHG1pk3fkmV+X4e6QSS5L0GeQCTOAvNrLOXjiyeMmq97rFuBV1bm67818FMTvouZ+dfYRV61FGR+T6XakZSVW6n+3S8nTNjs9kYMLpl1kMgy1IVvEICjwLQ/CL7d6YUOj3lTf+Igr0LTmfEGDHHPZw1rF7kcMec2XD9qfW2JwGJA/S14zQrad2HdyvS0lo7ltOTm5piUfSuYfpWBhbW/pKA1viF1xe5jQW63bFZOn1Es+K1MKo6/s8PgAmZxe7Du2zI0dsDN3NExr6evvf9SQXRxJpFYzFJ1w1TdlDJ+eARW6rbII7D0sfYILH2stCQ9AksLpjiFTH9e/qnM4lki7BOnDpen8auBoLyqTbxPqjbYuYVXEqA4mzyXgYhHHds2j7XXVqn3s5hGwgRW0T/nHWhk0W0EbsaepYLECl1woy2X8TEJXLVg4YcVOgWh+78++3DTEHeDxBiAzWaqk0xkOa4l+rbaDHoBwcCdi0892bGC/6GzZu3rt8RNguhyVe8oQdsxHbgkCofqWzHjQyIuZxblS1d3mYYpQ9y8FNDAN8o6SwocJwzjUADjAAwlwN+4LtXynN6zA4Hzlp42ZlWMa6WiGWXdJdkTiHEKM08IVzg3DBG0UhL/HUyVMKh00YIPVuqc9Vh8G/hGWReDAxOEz3c4Sx4GcD8i8uvErET8A9Pqwd0j2XoOTwPEXZ8ueX+R22uLBQdPNjICbYfA4lVgvBCQ9DjWVta0lT31dy/8KXz8IBONICArc/zmVbbElXZd1RuZ41NLT3q1N3PNOUR0TKb4qNLaASqX4GK7pmpuxpNXu4Drtt/+fr95BQMX7IwITDukzPjcqg0cBax2/FCZbmc9Ait1O+ARWPpYewSWPlZakh6BpQVT3EI9CwaZBj1GwHFx63BzIvN3zMFTrLrvlripNjm6Dsoyc4LPQOAXGfIuuTIQ3HIY1q2LOQgjIQLr6NfmFQSBe4hwlnPKnUsphWpH9aOxVDLgM/WM25dNGFGrcRho0BtzJ5FBdxKgCIrmliKg5RQNpmG3lUgsOpmxBIzrFy/6cJ7TBX//kvntumdvOZ0E3UvAftF80/VBVy4eHHbNiXRQGZAgbATzdGLxlU32nM/Hjq5IxFbrzWAa9NY7+VLiRMEYBOIRAA4G4AtjZzUMjFw0ZsRyRx+KiwX69vUN6tjtILb5FJI4YEdNnklE1KpFbDQiiAkMiU0AvwnQUpDx/sI1X1XA7dpRoTp33U5k5iICFRFwCoCIhX31a2TtThkMD1lj9f2ZTOK2BacOW+yIqyeQcgTaBIHFvFoyPx3k7c9g7do2Q17t2kyjZ8EYYeBJAAUESujfbrcOCIPXM9ODwdrKe93S6bYef07BaRCkOvplBGahwFLGCgncbtfijYxNG4y0ET33P9g0jNvAoX+rGtPb0zwIPKahpurtNLvhaN4jsBwhck3AI7D0ofQILH2stCQ9AksLpriFOvXq4Wvvv1YQbsyUf9dZyl9ZddUlGV+PMS+/r8n0TKZ80GPwE1ZN1RXxnIW4X+iGlszuQ4bxRxCdvtuwI8GTPBJL+RCOSGHQBma+uS6w/gWdbnMHlMzt3CULV4NwGYFUzZHWw3Gd8WxF5DkOUWbfM+GPP2Tz09+MHLnJyXL/mbMPN9h4CruYa32WIaLqNBFYNgPfgPgNBn3BZM1dOmbMd05BeU74NPu9uNg3eMgxB9sSKhqqCKCjAN6vVQrdzr+gobpbjG+CWfaApaNHR23tPXhaaX8WOJOBfQRQyMAJu2td7XRCP3ppj9cMbAWjgog+I0ll2zrT+8uHOaSUxgRKo/CA10t/4jPoRJKsiLxfApy7K2IsNr+jkFctDhYzz6YG3PDpWSOWxuGyNyWJCGQ6gaU65jHzs0Gbn2grYd5htstv5BU8IoDzCdQ+iduprZoBVbPpX1ZN5fnak1Ir2N7MLcio6Csw1kjg8WBg01PYsMHx3+zUwqVnzczbfyjYeFillhNRq8Y3elpclGKeGqityqj6ZuFW5xFYLu65gyqPwNLH2iOw9LHSkvQILC2YEhASRl7+aQLiyYyJBFZ1nLbL32JT9YYE1pX0qf6c/HN2dLW+A0QHJN2YswEZsIJH4/tVnzqLtpaIi8AaOv29PiIYfJCBSWGNOqbbtbiZxksI6c5jfBkUOHfxuOHlOl0J+5fM7mNmG48w+GQC7UwPiwCvrg/x7E6YOa3u9MCrbOHWJZNGfOVkom/JrG5mO+N6YrqWCM1TJFtOjnoyUkFZhVsNKY4oCNAnDJ7OwOfWNnvB8sknrXdaeyy/q458HaVRBPadQ+CDGVDRRq1ajYaByGbwh4vGjTzByd6gqaVXksCdIHTWhj422AMA/UcA/2amefWQby6bMEI1NIhNi8NCil6e0YOyOxwDQx5CEr8gguoM0jwyLazFaCmDUbxklDHR1Z9NOrENhOo6nYK95/dMJrAYvB2S/24FrPvaSrHniCcjZ//+PmG8SYz9MqIroWodApRZtTQ2EyOJjJz9JwlhvEDIjEghZmwG+F9W0C7G96vUB5e2OoSZV3jejo85dwDone5FMGOTVS8HY1P1N+n2JZp9j8BK3e54BJY+1h6BpY+VlqRHYGnBlIiQmdNnAAQ/SoDjfSsRO/pzeVVAGMdg9TfV+nNSLinM3MIHQTwlEz6CMvO/rdqqwfE2AYqZwBryaukBhkEPEWMsh0+hatyRWEksrTkRNtvRVmMK0hZsPUu32PWAGXNG+ZgeA+gQrRDFKEi6yhg0gYCBr0mKmxY2rJvmWOD66afNAfseOFoIPAPGvgk/NjGfnPgtNmaQQdW3eBfELzPhP7xOfrX0V9GjnGK1WFRebgbWbDjDR+IXYN5P1XpCEwLTccmsivCK5xeOP3GKk+2B00ufFMAFILSLcPT3qIjxADX1M5RiCawk5q8ZtMAi89mlC8uqnFJNnfxv+XvfkrKO7U3Zl4C+RHwmgOOhavWoJN5WwzllMJL9nTPftYmu9tIJY92l5MlnKoHFjQTLu0HiK1FT/e/kIZAyzYaZW/AMQOc6foRIkUsMLrdAZ6Cm0rH+Yopc2mXGMHML3wb4xEyIElJnEQqrAF+IDSuXpRgL9811KexiZvNDgKqlkX6CkBnXWLWVj7i/UPc0egSWe1g6afIILCeE9vzuEVj6WGlJegSWFkwJCfXo0clntL+TQFeGqxeckO64JrO0JZ1m11XOAGDHpSLZk7r0KfBnySdApMq/OF5pk+2OBN8VrKn6fbx2YlrAUf8oK+Qs+1ECnRS6nDqFczhGJ+mlFDra2bX66ERWPUPcWTHhRK1aHYXPl2V372ZfTYRrGeiuDXCKiCxmbAHo+c2+hltXjBnzg5N/fd8sy/NL+xUCjnWSzZTfdxJXGyHwGiS/JKRvFdV8VVXhcm2nopK5nWU7cR0x/5wJBQDy1cMd08PRCFo9S9y6aMII9VIfdQyeMXc2gU6MUEcr5jgpnbQ9BjYSsIKB7+yg9YfF9uaFjsSn00Ja/K66M3b01RTuiHjpw6pIINF4BrrtSbvUTxlsaXrPGkPF8j+UoKu8SKwYNyhJ4hlKYDGDv5DSvsWuWzU9Y18qYtwTX8/ex5EQbxFRxxinJkWcwcvZFpcE1377QVIMxKnUl5s/XEC8qNKbd4TMx/HnPE7DkaYxr2Hmm6y66hfR+GGhzQ+zR34RGeIfIByU7hdiZv7Yqq06OpNB9Qis1O2OR2DpY+0RWPpYaUl6BJYWTIkKmXm9zycYd2ZCFLBaCzOetmrx20yMRlf+Gbn5Yw2Ie0Dolyj2ic5nsLTYHojaVZ/Hq0v7pW7Qa28WZCH7ERBO3lm4ebdNxwCRqMRShNmO5FeEJUef932A7VOWThytlW/Zb+YHXf2y4QUwRsMp5S6cO/GuwXk3mYnmB4Py0s8njnTcfEUq+NutvZlg/w67O+Y5G0mjBIPxvTTEPbAxx+bN65ZNmOBu+ltxsRhYdPSBYPF7IvQjRmG4dL5YMFD1pyTjzCXjR8yMNk8RZtyO3gPQv1U9LceHqblmHeIqjC9BZlQJwiZb0uPUu/NLFUNc7dYIFBeLIwcd21NawR4kzLEArmBCL7XesD47rDvMHAugj1jKqz493auJFcs5TYZsJhJYDKwl5j8Fau2HgFXbk7HuNOnMMvMKPibQoDTZb2n2Wxt0k13zrSpgmjHDzMl/HkKcSY2NJtI6dtcK4+2Xo7Y2an3EtDoau3GfL6/gHmJclu6C7gzeYIGPy+RIS4/Aiv2AxTvDI7D0kfMILH2stCQ9AksLpkSFzJ6FA0ngfhBGJarLpfkrA4EfDsf69Y5BJS7Zi0mNLzf/ZgLdSEStStfEpMgFYSaeb1lbT4qn++Au81oEVlHJ3HxTGA+DeCyI/GCmGDoBNtqKh8RynBcFxYjkEX+xrWHDgOWTJwd09mDI67MPh2G8zYRQ8e4Y+YU9Jlwksxi0ipjvWli//jmdCJpB0+YMISHmAdhHORT3GnQAS0zGZsJ/KRi83PZnfbHO3rJ+9bhx7rbGLikxDs/qfKJf+K5j8GEAeihSL1xh9jiW8oOEHLJ43Kivo81VBdwh8Co1djJsHHFsSjxEUFO/SFklbABjHcBv1RsNd34+duzG+LyJvOL+L8zuQF19Xcwg+gvgMWI+EERCd+2t1rkHK4uBD4O2vKpisjORG8d+elM0Ecg0AouZbQa9E9wePBM/rHK1Rp4mJEkV8+UV3CZA6stj+gejhkH3WLXfPp5+Zxo98HcvOBQmXmXGoRlQK4zBvBoWjwqsr3buTpspIOr60bmgj7/xg8z+6YzCUiShAN/WUFP1oK7rqZbzCKzUIe4RWPpYewSWPlZakh6BpQWTC0KmL7fgfgKuIKJwXeFdMBGDCmYpEBxZX/vdOzHMSo1oTp9cv5APMOPsTEi5lJJvCNZVPRZv/SsFmiOBNegfc3pl+cXDAE0C1AHhPXOip+yF35QWc5rf2/WjsbTv+63tSYCeKp8wXK9tIzMVTS29hAxSaWGhekVqaNtvioID2jo6mTkA5ukNizaevbxYj4QbNKP0MwKO0HlKdHzQ0ROTDJHFbJcGLbrWMtqt+nJR6Va3azT1enpG+5xe7c8m8FWNbehDe6lIFMdnQH8ttHbh2BPzQBQ1PWTI9LkTmOhxcHzFbxMlrlo++I2pmmztKO6/mYEPJFm3L1z06TK39wAlJcYhWVnte1D7rkGbngPoeHDkZgJ60WUqnVCUUYN1xcdnjf5Cf688STcRyDQCC0CVZHlhsLZaEfd738jrM9QP1ookTvbimVmlJj8ZqK26Ndm2dPX7cgpvIME3EEg//V9XeYxyDDQw80PBRnzS8k9sjC7HKk5GbsGfBNHFlMYIb0VaA/SOVVuZKV/jW+HoEVixHq345T0CSx87j8DSx0pL0iOwtGByQ8jILThLAHcQkUpjT/tgxqNWbeXVaXekhQO+nr1/TkLcS0TpT7NnWAED/bG6MqE7W9TL+5Evl+YKPz0Awjkc7qIfb70nrWik5NXHCqV62Thz4aToqV5N979oxjsziaUqfBZxxPRmGiNtslM3q8LtPhaTFow/Uasg8aDp824k4vsy7WFqfJHn7QA9GZB4aNmEEbXJ8HHo66XdgyYuBOEWcGMEWjJGaDuZPqoYP9yxxtjg6fN+S+BbdkZ/RXVH65hoHLyoesI+avyplPK28uCmd3Si/OLBVBV+72jI6wi4EYKyVGRnrH4qu41zaBYLuvSTU4dlWiHpeKBpc3MyicBiQKUL/t2qqby0zQEZg8NmXuG2nUR8DLPcF92J99+smsrL3Ncel0a/mVc4a2d3Iq0/oXFZ0Zwkmb8P1m4+AMjMtALNZUQX61k40BR4nwidXNEXtxJeFbDsozK1w6NHYMW9sTFP9Agsfcg8AksfKy1Jj8DSgskVoZ4HHOw3pIr+Hu2KvkSVMH8bqK06IFE1bs83cwovBuEuIuS4rTsOfbMCInAuVq9eF8fc3VMivtwdUfJmnmlk3yWZf70r3CzqPVmLlGrhqtYcl4msEM+gyBP61g7Wn7jotFOqdAAc+vrr3aXYZxkIec7oJfiZNXxkm3J7gwwVCR/5Zx2fB82YNYDgW+RulJGO5dYyiq0iRpCJNyrsmYyn6rjTK6vHDXE9RfBQY58cw2fvZ5L/aiI6Kz6Po88Kd3SZ+ZmF40c6diAcPGPe42C+gIAO4azEQ+JE8lYviinyWglYw4z7pW3PhhRrKs4Y8QMo/kzacJb2L5nfbj9j2ykEug6EPgx0AWDuTuvUCswkRe6+bFl8e8UvTvzGbR+TcYb2Jp0ZQ2AxM4iqAoHAz7F+9cq9CeOWa/HlFk4XhHFpX2Nj5MurgdpK1X007cPoWXCyIegxUJMU7fR5xdLG74JrKzPxI5KrqPhyC+cIwkhXlcaojMHrpcSVdl3VSzFOTYm4R2ClBOaQEY/eAdKSAAAgAElEQVTA0sfaI7D0sdKS9AgsLZjcEvLlFd5P4MszoRuuWhMjeKRVs+ozt9aXsJ4ePTqZRse7iXBlwroSVBDqxsx0uVWHvyVa7D7s/bbo5Rk9/FntrgToJnWRbOlvRCJLi5AKs3rHVEStG+xuxRoBKSpso56BV7mBf1MxeeQmnT0peqN0Ign8fVctqd1z4o1E0zG6R3eQgdkLt6+foBMRowrQ+2TDVCL8XMdMkmQUqaAKh9UzsbpMfkG2/N+Fiz9+0+30tL4lJR3N7B4FQsh9IfGwKszu5pp0PuMz8dULx458NKrd4mIxZPCxUxmhZgi7c7Yd9Wsd6j2WXSCumi2jMQ2G/gxBrzLZKysWfrTK7T1UKYZDRY8RgnARCz4ckvcHUftQwT1Vd6/JCJ9GyZKJnrYDwXsX/HL0Xk1euHm23dCVQQSWJIGPG9ZUOUZCurHudOrw5RUWC+D2dPqw5x9dnhmopTMSfSFxYS3kzyu4n5mmECUv4lbXT0WoWFuDP8Hm777XndNW5YycPr8yBKv3o7QNbozqztjoS4/ASt3R8Agsfaw9AksfKy1Jj8DSgsktISO393hB4j4CHeqWzsT08AOBmqobEtPh4uy8/MP8LB7OhGL3qrmSxfaJqF25LNEVtroHHvniW/uIrKxfq1AzAB0jVQjKmGgshUD8xFkdg+7imhVPV0yZYumAWTRt3qME/o3qSBlWPllkFuGboOTTl0wYqSKqoo+SEqOoXbcbGPh9y46RTlNd/F3FQmwC+N8g+o9k8egSzbTHGHygQ2e9n+cPNBxIwBABugUUKsqe0HAkk5pqb/ogEI2uGDd8TjTjRTNm9CBuN30HGfmzXXKJkk2OepSAJgGm5wvNYeZHELC+XyM6L1s1+WjXO7wVlcztZxriYiYMIImfMrj7zmLMkdMMQ2ypItrkg1aW79GKccMSCk9N6BD9yCZ7BFbqN9zomX+6YYhXUm+5tUVmzLWo/mzU1KxNqz8dcnLNju3/j9IcCbQLAwY/bNVUXZtWTFJlPCcn16R2K4ioY6pMtrLDLBn0iVVbeSKAhrT5EcGwR2Clbkc8Aksfa4/A0sdKS9IjsLRgck2oZ2GeX/BzDIwmovB3c9eM6SjiLwM1Vf0TKVCuY0VXxsgrGGOAVOZWvu6cZMkx8z8sG9diXdWaRG00u68WPl+WndvRnrijHfID1NhRZs9wjJJq4Ur8pFLYNTkWe4+POFLdgf4dZLp40aQRH+uAWTSjrAcF7bcgHIqix+dPJBeCEnzNovEjtbo8DZkxbygDrzE41DlRKdXkL3QgiCqzgzSTxPgWhKWSeXl9cJ9Hvph0pKtfn4ueLjeD+/7wE4P4gMZIJv4lNaadxTXiJqyaWFMpkoY0CxZMPD5q5E/R9HmDAX6eAPXHLfyIcbPcSDnUI65a/EFgVLGgP0qLV/gsXvLpWe7XMev30syuHbLbX8SQRwjQIAb6UGPx/T2jNV7rJdFtGzdu/r8vL5ywOa5D4U2KCQGPwIoJLleE/d3y+8IvtGohumIwihIG3rWIzseab7VS8pPlj5HbZ7zRWPMx7V9iGbzNIgzBmqr/JGu9mabXn5c/CxDprUXC+DoAe5IbX3jdxtcjsNxGNLI+j8DSx9ojsPSx0pL0CCwtmNwU8ucV3MnAbwjU1U298epiG4OstZWL453v3rzCbDMXU4j4ISC95B4zByVwiV1rvwysSjjwYc+9taTEOEr0GCKAJxg8JCx4sZJYSkk8RJYW+RNbWqFyJcKM7QxMI9g3LJiokXZUUmIM8XcZDYinQS1IvkgnTms9kY8rM0rrG9afsnyyc9fBviVlednZwSdBdAoBWU4PQYxcSSR1KlVQRbBVAPiKwXMWjxvxj1DyoIuj/wuzO4jONFD4xOFsYwKBj1cpZromYiKqdinVXAEDGxcu/LC7U1pd0YzSiSTxIAgHNvNb007LtcZOPDXXEN/8xlnq/0O1zYC1zHiJwJ/ZsJeV/2PTf/DKZFt3X7TkSkqMnxldfwEYJzLLAwl0DAT5IJunFu7WxfgCzFcHNnSZVzFliFZ0pZYfnlBYBDwCKx0HI7eDPzdb1aRrTuimwRVm/ogELgqkl6xR6YN3MNMVRPF/0HALvhCpV1M5zC19bUGPyM2/wkfiT2n1lXkNGNcHMrAOlkdgpe5keASWPtYegaWPlZakR2BpweSmkC+vYBgBTxHop27qTUDXHYGayuIE5rszNa+wcEcdqGICznNHYfxamPkb2DzZWletuIKEx+77a7+XPujayQw8DIHzY00PdLx7x0Ni7bohh1niHntRLMdGGtWC8dh3ddsfWz1lnGNR8f6zZ3cw68XVBLpN1YrU3gUNBqXVighVUsrTF00YVe5op7hYFA0+7hqAVe2yxvbhGjaj6XXYW/XzJga/zxJfgsXUxbUrFkAzHdNxPTsF+s2c2dVk81hAFIFxEoiKmtaPaqonweXGHaq2I3T144XjRzi2Jz1iWulVTFD709gMwPHhaY1SfKSTW3r2kFetNBJ+YMZ7grnUtqlcrt+2uELjedI9B7vkhr7+zgBhy7NgUD4YI4hDZ70ZLDvDDqc3sLyiYvLI6lhtePKxIeARWLHh5Za0mVuwiYiS1l1V188dkbCfQvCl1uoq5xR3XaWxyvXq1cMv/U8BOD3xf/liNd5a3ma+yK6t+t/ENbUhDd3yDvP7sxOubZHIipnxA0E+FaitvjkRPcmY6xFYyUA1vE6PwNLH2iOw9LHSkvQILC2YXBXq2rWz37/PSwwaRdS6drertjSUMbDAqqlUd8KghnjSRHw5BT8ThGdAdHjSjGgqZua/Wlbwdqz/bpXmlKhijZc+FX1l9DhFSH4JhFD9Asd7tUvRWI52lDOOtmInslrOYGCpzfKaRaeOmqcD7KA35xUYlgxFOunIt5LRYFpC1fqJrq4YP0Lri+bAqbOPNkg8yUT9W6VZNXVAw3a0Ne2MuqmUjHkC+DxoYNaSMcNXgEjGhUW4Scw04JWZvUR29iQi/IQYI0AuMutaBy+G1TA9WzFh+MVOM4qmlT5ERBeBOeZ245lAXEV4HJv9wVAF3wn4jMGfQGK+LblMt1GCE367f2emI19/dz9iOQ7Mh4NoBAEH7+5cqP6GMQfAuGzNVuOlyguG1Wvr9gRjRsAjsGKGzJUJ/tz8r0DiYFeUJaCEweVg+o1VW/lpAmoSmurbt/dxxIYqf3BkQopcmMzMtVYDHYWNlZUuqGtLKkwzt3AlEXLT5TQzLIJqKlB1ms6rbCr99Ais1KHtEVj6WHsElj5WWpIegaUFk9tCvp75N5JBNxCom9u6Y9WnPqRYsI9Jcyq735+TP5mFeIaAdrGuwU15BtQd7DKrxvcysMKV+pShO3HRjBntsxra/wvA2JYOpyIaS4tL0IriSoTIUpdd+ocE3VVx6vD/Om1cUXm5Kb7bOJyZHyZq7HygtY5wiiMTSm9vCeLcLyaNcKwh1ffNsrxsy74XAmcQ0MHJ/7C/RyO2iFS9MJsZXxFhGpMoryeav/yUYTVx2Yo8iQZNfetQMvznATJf1dMgIL6c5rg3JLYVhVLpJK6qmBidaDyhrMy3ZbP9IhjqxXp3B8Jo1hy5xhjWGB8BtmdW2PnR7atf/wPwJwZjud2AFz89a0RdIo9KOKyGvl7anWw+1oAYBFUTjTAIRL5Q50LGx7bFpyajPldsp2TvlvYIrPTsr5mb/xmROCI91vdYZfBCtvmq4NrqD9Pli5mTfzEJFRVNzet3psEhCX49WGOdC6x2jOhOg3tJNenPLZgZ94c9dzxTDWQ+scg3ATUr0ttUoMV6PALLnQ3W0eIRWDooNcp4BJY+VlqSHoGlBZPrQj33G+gXvldAdJDrumNUqAgbBv8+WFP1QIxT3RPPzc0xkX0TEV3tntL4NDFjKTNfEqyr0qo3rmMldCc9sqS0r0H0MSK0nY54R40tTa+5P45RVRHcTyaRxbwWoPtFVsdnPx1z1A9OAB704lv7dOloXrij64Hq2LibNIqBUwhvgkLRIysF8bkLFs7/wKmukopRK5r+zqUM+TsC9nPyO6bfSbnClgqHJGG8wEH5jejACypGjtwUkx4n4ZISY2B217EG0VgGCsE4XisMNGGwnRxr/Xu4IyiDNHzhpOHvRNN2RElZHmfZ/wdgRDQ5N0krZSeqPo2HOz7iq3GFTeZ+z8wfQGC1wcaf508a5nqaiaqR1r6DOZAgfyqYJjAwDAwfCWPMR5+/+57GcxT7YfBmNL4A99xvIAnfWyDaN62QMEsS+LhhTdWxafUjRcbNnPz3SIifp8hcRDPMWMLEVwdrqsrS5IvfzCu4B6Df6NR+TLaPLHGZVVep0gd/dPX3fDn5xUKI25ONcVT9zMsYdJFVW/lJWv1oYdwjsFK3Gx6BpY+1R2DpY6Ul6RFYWjAlQSjLl5v/LyJxMsVS3icJjjCzqgP8vlVbNdztj/a67vrz8g9jpmeJaHfXe925bssx5F8sS96N71d955bu0P3yqFfm/Y8Anm1542xqJNZILDU3njmO81rcilsC0dxmBA+iMwTLbZZXV5w6aq7TEpTtojfmHSgId4L4rHCbEhe/QsSS5Y0k6p+sGOdck6to6jtHQsj7CDiOATdbiNoM/APSLgkK33dLO4mlGDbM1XzeQ56b1qljjw6/hsAxAA4H4ydwdw0JPSuOZNJO7YGgnbt00mgVXRRxDJ75TpEIyqdAGNpSSMtODIcpPtKq+cMVv47IpBkzAsQoB+E7SXjls6UfvOY6saRSomXXn8AQhSTlKGEY1Rvkuid1miAkdFh+xJM9Ais9m+/PzZ8NEqPSY72JVcZSCXlNsLZaKwXfdX/37VPgZ1ZfOs9wXXeMCpm53mL7SNSt+lznHSJG9RkvbuTln2FAlKTVUYZK3bw5UFv5z7T60cK4R2Clbjc8Aksfa4/A0sdKS9IjsLRgSoaQmdP7EpC4l4ji7kzvil8qDphoFSyMCnxf+YUrOmNTInw5fUYQydeIKFQaKl2DGZsh+bfW2ioVwOHaR73QHfXoV+b9FcAFuxcXT2RVPHOa35ebYat1V9e2GQuRpdLkxGvCZ9/66bhRXztueFmZb+gmHs6wH3Qqkqa1psbaPW8x2VctnHCSSmWMOk2lT9k+/B7AheFSB3VttljnejDulCQXC9C3FePdL4I9cMacg0kaUwg8lAiqhkvPdBNXWiRSywPRCHBt+aIPezkRMUOmz50Axn1o0iXD0WaMGxg/6eSQKrhr3Q7+6NoP1XcDqkD4ypBURv6spz6acOxmx+ctRoEjXy7NNZiy5591YjVUGqw3koKAR2AlBVZHpf7cwukgjHMUTLZAmgksX8/ePycReml1bKSRbCgk8ydB3j4RdXW1ybaVkfpz9+/nJ9/SdPrGqjMu+IG0pm+EAcAjsFJ3KjwCSx9rj8DSx0pL0iOwtGBKilC3/fY3/cZ8VUqAQI5XrKT4sFMpMzaC+Barpko1l0nt6NZtH5/Z6QpBdHdqDbe2xoxPmeW1wbrqj9z0JbS5x5SUvs9Ex7VSrJWu12JWPHOUinjnRZmrftKKyGqtYwtAdwdYPL341GEbnQD/Wcn8dgFz23WCcB2Axo5Q2uRac+3MqJNM5y/qIubqRDsNnlZ6DhHuJqDAyc/WeDSZEapxhWVg3AWWX2wPbPh2+eTJW3R0assw0+CpcwZDGNftqKOl6hX1YqBj08Lb2roSFIzrr1oE+kMC7y+cMOJ4J5eGTJ1zOYh+R6BeUWXjoFl0iaPWdt0hrqIe+WjrUSlfwEZAVDPL+cEAHio/e8Q3Tlh6v2cWAh6BlZ798OcWTgNhfHqsN7GaZgLLn5N/DoRQL2pa/w4mEy+b+XE78MNt2LDB3TT7ZDrtpu599u9mtvNVEiHmRiVuucHgrWB6zqqtvMotnW7o8QgsN1DU0+ERWHo4KSmPwNLHSkvSI7C0YEqSEJl5BS/vuM+eTqoWbhqHaijCwJvB2spTU+5Gt169/X7/MwBOSrntFgaZ+QlL0h+wttLVmtmNEVglpY8S0QW8i3xpajweIiaeOVFvwBoF0h0YCS0iq6kO5rUCmPzJko/ed4qsUa4PfKOs0EfBBwmkCnTvGRpMSVPfmHFnwJf16Odjj9vgdOgGvz73UDJIdV1SB7QxdVDDXlO9KhKGgalgepTs4AoU9FhXMWSIayF+ylbfkhJ/dvuuw2CLO4i4gIGuqahTEiMUreHWJJIY/JeKCSMvddqvI6aV3gPgN0CEF3tNe9rHy1FfI0KOOLkUddUSn2aPG8DEoS4V6wH6lILyvvlnDi8HvKgpp3OVCb97BFZ6dsEjsBpx9+UW3rTjW2txKv5dcdppBn5t1VS+vCOFzZVOO072Mu73nj07+kX7j50i0pPpt3qvIcIbgZqqyQDc646coNMegZUggDFM9wgsfbA8AksfKy1Jj8DSgilZQkbP/DOEQX8jUPtk2dDRqwpIg/Afy7YnYO2qFTpz3JLx5/Tpz8QfpvNDkloLg1VG1w1WbdXzbv9b3Oruesxz0zrJDh1PIoHLQVCFcA2nG27Y+63jrTgKKZXSuVHSCxkfw7DP/mz86G91DtWQqaUjwLifCINbyWusaUc5slls29eXTxrtWOC6/+zZHfz15uWAvD+qb5HtbmPGn2WD//5Fk3+elE49RU+Xm2LfjRdJ4OFMuFg47qEj4RNBg6Qryk8d/kQ0/WeUlBjf+rs+T0TntpLTtKt3hCIlnTafraUril+O8+Od22QegdZA0pV1NdtnrLhyzI/zMuh4aDNDwCOw0rMPHoEFoEthFzOb/kDgy9KzC82s2iz4CGt11aIM8CU9LuTmdjDRfioRR21WkmznmLnUYnEO6r7NmFROj8BK9q7v0e8RWPpYewSWPlZakh6BpQVTEoUMM7fwOyLkJtGGlmpm1ALyNqu2urHOeErG/u3MPOMCAj2ZEnNRjDDwLhg3J6OhiuM9VLWi/9k/3x5IPv/5TDSegFBhNAb7G0kJCkX+pLpgu+adP8ZUvtZaJdH9HJD3VkzW67p3xBulN4PoGoC76wS3hPY91HUQ3wO4pHziiFcdDxwzDZk2bzgDzxKh0EmeG7dH/W87AbWQeHqbtf5R14taM1PfV17pkNUxr52wAo8Q4Wwn35Lyu/bhSNy6eoDINod/Nun4qB0ID//H7N7t2hnqj0lM9WqcH9DYHr74Uw0bsUpkfsS5zhFeAZL8h23w/9mu375t6a9Gb0185zwNbiLgEVhuoqmvyyOwAOT0PtBP4gEQpT5Mv+VWEZYEgsHTU/21Vf/EpEJy/3b+XONZEKXn3/+dS2TmjyyLL8b66uWpWLWODY/A0kHJHRmPwNLH0SOw9LHSkvQILC2Ykilk5hY8TkQq4yWtg8H1AL9i1VSf53Rbc83RTvt193Xw/UWATndNZxyKGmsd0+NWA4qxsdKxHFOsJrTuxy2VFs2Y0d5f3/4UAVwgCYfu/N1U9Z+YuQMRibCOJKHOlTZXoZ3W2CLZUKXYkRxbPnHUbBA5hqIPfL6si9nVfgaMiSAoTBwHExqY+XHpz/rjojHO0VBDXi09ACb+AOBMR+UI5eDWEbAGLG8vnzjqLY05MYkc9NZbWZ0sX3ciyicWjxLxkKQVZNfe8JiWoC3c+hixLYK+wk9PG7YqmpIjXis9ggU/TEQqqtFxaD2YMbDGiRBPu5yNl4BS8+Od22weEZOk0gY/X8FB3w9Y135dxRR3010dN8YTCIuAR2Cl52B4BBZg7tt7CKR4LBMKuAP8aiAor8K6lavTcyIywepBWWZu8F4iXJ1Obxi8iG15VXDtyg/S6UdT2x6Blbqd8Agsfaw9AksfKy1Jj8DSgimZQr6c/GME0XugxiCbdA4Gl1vb6ydjU61WNlfCvuYW9DFBH6c7Ao1VwAzz76zaKtUo0PWhdU92tFpSYgzGPn2yhfkLAKOZuROIFHnTBYzuTMhqVqi7TRBZatW7GYLlMMyxn40/XuvwHTm97FiW9qOqNBbvqk3VCKINQJF7uxEIRUcx3pPSuHnhacM+ccJaFYy3zG3ngvjP4YjCJpyGYjtXMlDVIAO/XXbqGNXR0NXRd9asbtnbjFw28DMDdCMTDiIOrW+vGJoPR/UPyD78S4cOekNemzMewvgDER8eCRwte44EXgypgo66Gj2Nl3xKZG40LEL1TZi+sgXdKkD/lvXbV396zpgf9opD10YX4RFY6dk4j8ACfDn5IwXRn0F0YHp2oalVfiCwzb4PP6xan35f0uaB359bcN2Od0D1kS2Ng7+wpbzZrls5NY1ONDPtEVip2wmPwNLH2iOw9LHSkvQILC2Yki3kzy1YkSHvBVW2tG+x61a9lOw1q+ARo2f+qYYhXkmBragmmHk+BF9pramuSIYvWnfm2A0zDSr5oEe2T54AW46F4P1ZwiCizgDvx2AVrROW6NC6U2tHU0Xx3GHlLYu+s8TfpH/75RXjxm3TwePIqaWXMzCWgexd8gSxjVlmM+0keRiqQ4Ig0LMLlnzwgmOxeGYxeEbpUMF4nkA/bekHM1RHt2omrCKgzI/sBz5yIFZ01tJMpqTEGNCue55g+yAhaSwRnQOE8oyTdJZi9jCuCXE7zyht+MGe6JTWNmRq6RQCbgOwX0sHHW07PhQxkFbKuKO+Rg8TidpKytwWfivyl5hXEYu/MMmyhoZgZcU5o2ugOmp6I6UIeARWSuHebcwjsIBQwVYhVDp95/Tswh6rO6KdL7NE4O9YvVrrPSHd/ibJvt+XU3ClEPRAkvTrqq1i5juT9fVX14mmch6BFQ9q8c3xCCx93DwCSx8rLUmPwNKCKdlC/rzC3++4ytyRbDtO+pl5y44Oyc9btVUqKlkFsiRxFGYbufwng+iiJBpxVK06MILwkmVvvQJr16r1uz4c786uWSwpMY4MdjuMTHESgY+AUOSNitLiAoAKAG7WclnrBppKIouIbUkXVEwa9nddTE4oLva9e/vtdoQLNfV/YXZ7ozN13rCPub5y2DDVgS3qKJpR1oMkP0Qsf7VbUNXPAhoI+IIZ3xKMf24NrH1z+eTJrh6YovJyU67aeDAB/UhgJBi/IKCDE8/htKZU/57QgQ9/KJ9cu8G4rvKC6Ps3ZNq828F8vcJMywetB0Cht0ebo15NnYmQT809CrO7LhR3b6p1JwvODKxnyf8yDMwNwvhik1z7jes13lJ9WNuQPY/ASs9meQQWDDMn/0JqjMBKb/Qvsw3GeQGmeagPBNNzIjLAapbh9wu6CEIUp9UbRg0D91u1lSoaPiOGR2Clbhs8Aksfa4/A0sdKS9IjsLRgSrrQvgWH+hmqm3lauxGqdTLzO5YVPA/rv4tabiZhTDrt191s7/uU0h2RzryaCfdYNVVJKyTveOdNGMxICpipaGZFO3/DD8cBfAIT8sDsA6EHMR3KhH0J8GvduVNAZDUeQKphopMXnDpscdJwiaS4rMx3xEb7TCY8p3BpFOMfGFQB4n8z6PVNZsH8FWMOdrVbW6i+VYPvWB+JQxh8CohGqa7lKV+/pkHXDrTWwQOI6Uq7rvNfotVi2r+kpN2+ZteHQHRJs1TalmvStBkTaRU6JnrgtSXiSvnayl8VeSW5gYlnExlzpS0/b9i4rbxiil7UpB5KnlQ4BDwCKz3n4kdPYHXrto/P1+kqIejO9OxAE6vqiyPwChjJfUFN+0KjO8CCDTCKiOiEdLrK4A0s8UiwruqudPrR1LZHYKVuJzwCSx9rj8DSx0pL0iOwtGBKhZCZV/g+AcelwlY0Gwz+Qkr7d3bdqjeS6Yuva/6xIkukve4jMz6B5MustcnryOzafd+NDelbUuLvYnbvbQfxcwIfQgZlM1NHIv4JSwwAQUVpRfbZDSJLLSSaHsbMegQvXDppdJ0ba9bVMeT12Yer6CoW6EtAHYjeY1sulZJmLFz24TLH9ENdQzvl+pbM6tbBNMezwb1I8tkgUsX6tc6LJl8S1SMtQzGuKap4nE4T+KTPFo+Yi+LIBf6Lps/NNyQ9COCMsD5o2U5OmqDDcdcivxIhvuKZGzXMYieWDJVOS+8H6q1ff/ar0Vq169w8Tj82XR6BlZ4d/9ETWD0K9jUNuokIV6ZnBzyrmYoAM28lxp8DdVXXZ4qPHoGVup3wCCx9rD0CSx8rLUmPwNKCKRVCZk7hpSTwVCpsRSWwGD8w+IlgbdWt+mEFsXvtz8m/D0LcGPtM92bszAr7Z6AGlwCVjtll8VpOOU8Qk6MqSuuV0n38JA6DwFCWsgsJEgw6EIyhIKiira3XkEwii1DPjPs+O3W4+uKrRT3EtOYIwkOnvfO/YPt4lpjKRF+zxbMqJo+sdkN3Ux1FU+f2E6oQP6GAEGqD3UWXuHLbF9f1ub5btF0Gg4MrTh/9RTRfh06bo7pk3Q/CibvltHyJ6Wg3qtbS2ygaD3nUdJ2JzI9nbtioq6YOtayRxXixPmDdUHHuSWtcP0uewmYIeARWeg7Ej57Aysk/wCS6i4jOSs8OeFYzFQFmDgL8nFVbfUmm+OgRWKnbCY/A0sfaI7D0sdKS9AgsLZhSItRz/4NMw/iYQD1SYi+CEVYDmBZE/RTU1iYrAIbM3MIlROiXzrWC+TsG32HVVj+bTD8ym8BqvXJSeXxHTX03X9r2QIJRQIINZu4K4EhiLgJRt93T3CKymtz2Q10DgW8Ey3GfTBr5n2RuTlPdQ6f+P3tfAl9Fdf3/PXfevCTsWxYQkuDaol0UUQFBAu7WXVNQUXGp1VatWq1ba9z3/lywVlv1LyrY4NZaURBI2EGlWhfqbgKKCass2d68mfNnXhIIIXlz573Jm3nkzufTT/183rnnfM/33Anvft+95865CMzr6reYbzs1DHeLaegTT+icvdc4jWgkEx8Mim237BL3uJvbIKmwdyHeeAGHGF8Zwhr9/slHx70y/eDXZh0vWNwF4GfOcTtWtPJCuErWR7uvZTv1a7Z3N47eY7KuXrjemY0AACAASURBVPSJtgQlRZ23H43zhPPEQglYntDo2kmnF7D65O8fDtH9EHSca/LUgN2bgdiKgacYa1ZeAMAKQrJKwEpdFZSAJc+1ErDkuZKyVAKWFE2pMRqYFc7TpgB0RmritR+FmT9g0/xddN238zoCS0a/AftZWvgjIugd4V/WJ4P/Y5jmeKz99gvZMYnY7bImHDFlZo7I1I8EaEOoBkvLJxX9kIjjlI0pKRH7HXhk1+5G3d6aRXshRN3BlMXgA4gxlgh7Ik4xXWkejWwZDLzaYODq/xaP+y5leTZumHEF1wnbz18t6xWi6EkEGgWGLVz9iIEMT4SrZKRRT7N0YkHu87bT4ZlGxJj4fvHxa+N5GfbqnPMJuB3ggW3bJSBa2Y5c8pTIrqfWeJP14U6E2rFLzM04ZlSwhVu3GtHpXou9crOl81kpAcufmnd2AUvvlz8UGj1CRCP8qYCKGmQGmHmqUV15IYAOO8bgJn8lYLlhKzlbJWDJ86cELHmupCyVgCVFU4qMQuHcwjNAmJaieO2GsfsywqKbjDUVj3cEllBOwTVCxNrV+PYwuA7gfxhVK+1bEDt088Au68KfTpnZtXum9gsBMYmJLWaqBdhuDP4RQ7zVsLH7J/EaVvvG2o7ANPSJ90LR3ptyMmENJk3rw2zqIMoFYoLWUQD1aAunpB6wxIB14X9SuPvKa04P+Ofs3CwL45n4aEKst9UgAJrTqTKvcQTVn6z2xsBjVoRvWl581KZ4uRzy6uzrtkkxJQBn7Wznsq9V82DJiWqbO+Yi6SsdhKsYPYyNAO5FNPzkwrNH2f+tnhQwoASsFJDcRojOLmCFcgpGEOFvRDTEnwqoqAFnYHoksvkibNiwOQg4lYCVuiooAUueayVgyXMlZakELCmaUmaUM2gvXWhvEzA4ZTHbCMTM9k7gvxi10RJs+W6911j03IKFRDTSa7+u/DF/bzKuNddUvuBqXALGba5Lf/5MWa9u3XAhsXUzAz0B2NdD/wCi7xj2ApENe4eWJcxZ+MF8bclFx25IIHYqh9Dw0sWZJrbkaeFQf9NCJlmUyWT9XIBOBmFok4DTtAZuGxozasgMH7GseNTyVIL3JJbdT+y1uXsK4qsAHAhgTwC2qOeocXgSP4BOkk2cmK8SRtcnlhSPqGsvvaGvv95FRLvY/dKubmtnmzQGSaGpGYejX0l/gROu7ATbxc61YEw2TPx52VlHVgdwyu22kJSA5U9pO72AlVc4RgDPAsj3pwIqaqAZYH41Umv8CltWrwsCTiVgpa4KSsCS51oJWPJcSVkqAUuKppQZ9SrspWfgXiL8KmUx2wnEzGWImtcb6799x1MsfQYM0sP6ZwRqtVHC0yhOzpjBnxgmHYW1FVVOxsl+3u76dHjpW31CrN8A4FImdG0O1NQDyv6/KBFtYMY6CK4HUx2BPgJo+gZeu3hFcXEkWXAdOr6ExaF7v9nNzAz3I03rwbDCxLyPYPoFCEcSEGv4ttNa2eLfLTt93CMgklz+d2gG0s6HvTx7GATuJMJAbvyi32Z/q7RKSjJ7RyFH0k+bognjxHd6a2+hqP0eSwdOmzUgnKndw8BEaXGpxcsmC8+2k8pVssiOvhz8JDLesdfVLi/kTuxEwPw3CkXvXHC6atruZt54YasELC9YdO+j0wtYOYOOJiGmEqive/bUiN2eAcbrEZMvwbrKQFzkoQSs1M04JWDJc60ELHmupCyVgCVFUwqNQhl5Bccw6N8pjNl2KEYVmH8f8XiHkpY36HwN2jN+5hc7Psh43qiuvMR9kxv3yOOuMw99fkYPPZxxGwGXMJDZlnumnZb2UQLs44YRZhgEfAnwdDat6YsmxG907R56B4woLdWGA+EIeoetrUZY9M7oETL5FwRcyITV0XVfnbj8kkuMDojcIS6Hvvr25RrRTWB0ZXAXIrLr7agtOIGR1ECc3CT1edJJxIsukSAzak0Nw/9z8pEfxnM17KW5+wuN/wzgaKmEJWK39CPNg6RfR3/BE67sCR1lC6WmMC5fUhz43aBS0yDdjJSA5U/FOruApeUVnCBA0wnw81dHf4qvojozwPxGJGpegvXfprJfabu4lIDlXDKvLJSAJc+kErDkuZKyVAKWFE0pNWq8jfBFAtknrnx77JtFiOi+SD3uwQ8VnvUYD+XmvyZInOxbYo2K1VorypPMdZVvpAKH43p1eOniLA31D4Gt84kobINqcw0b3xODEWVCHZhmm8J6fOkZR85ORYKdLcbQ0rd7aiGyBZNie+fcTsfWHKvd2dhyqxG3IJBoBUWjpyw74+i4tywMfeXtwzWIyURxbiCUFJfs6rgqYbJiU8vp4HBDoOPMaWO8tJraztimmCYzZphbjPPT4CizI03paqAELH8q1+kFrNxBJ2kkXgHI7uGoHsVAKwZ4RkQYl2L16pVBoEYJWKmrghKw5LlWApY8V1KWSsCSoimlRj3ze4cz6fcgujGlcdsONpNNXG+srfjAGyx9eui5PSqJ0Msbf4l4YQbRl5HvK+x+pB3avL0ZndR6OCZicf1kgCeAkNksirS7Pnbw2nSfsf1/9jHDdcQ8zTL1aREt8nWoW3euW7fJ7DMo3FAe52hWIvTulmNKS7UhQFYPre++lsDtIIwFIwNgqdq64sR7j67C72LsQvhxH6j9ZO1PGNYMJuvX755yzKp4voe9NPNEEtoTBOrvHkPjCCnaXXLRYb2tmpOMg0dKuHIQzJqOMkcBmlOD+nOdboJMlHs1To4BJWDJ8eS1VacXsHIKTtUEveI1r8rfbsPAWxHgUlRVVAQhIyVgpa4KSsCS51oJWPJcSVkqAUuKphQbUWZuQZFJmEGgjBTH3jkc82oT1mVm9ap/eoFDyyk4XQhMIVAXL/wl4oNjeg5PNqoqr0lkfCJjpNbGtuMxj5V1i2ZbfwH4dICyHEUsiZV3k5AVw920IDUBrhUk3rGvPzaZl4XAWy0IMwJr63Js3IriYjORRHe3MYXPlGX27Lq1b5boOpI1XA3wwdx4k2A7j0uFY3cjrN184r8C7X3KwGQzJG5dfmJRvOawdMgrb08kiL8D0N1QKv1iuiiro09JX8mIX47ilYPwtf1vBSNKhDKzPjpx8bnHrHHDrbL1ngElYHnPqYzHTi5gCS0v/3QNolSGK2XTKRmYGWG+FNWV3wQheyVgpa4KSsCS51oJWPJcSVkqAUuKppQb9Ruwn67pjxHRuJTHbhXQYtwYtWoexdq1W5PFoucWPAnQ+UTu1pnJxm05nhlb2LKOj65dudBLv/F8Oa5pWw4e+dQ/u1PXbn+FwCnbrqqXE7FsB3Gi2OvVODu5bLEqyqDvwfwWAa9GNarWoqYVsYxas65h/Qfnn7Ip3ZqqJ13ckhIx7GejiwjWXwi0V8sbFNvyLadLyFkljd0XB3LTXM6qMQFmumZrlJ5cUVzU7h+fn06Z2TWzW+i3BNzjlLab2O2/MG1HcfQtWXq/hKs2/oREwVQeMa1z1G2DTjMrNZ8rASs1PLeO0skFLC2cW/BLEHX4dc3+VFdFTZoBxizB1qX1a1Z+nbQvDxwoAcsDEiVdKAFLkij719W8wc+CeYKfC+DY92rwOsuii801Fa/Jow+gpRKwAlgUAL0Ke4Uy+DcE3EZEwk+QFviVaNS4EetWf5YcjgFd9Dx9ORj7NfW5Ts5d4qNXRKoqfgKg5d6kxL1JjHRc27b2YYtYolv3x2M7sWjnxu5x18EOIlbjH684T2zrBjX20gJHwVhBwL9N5kUhQr1JZsSIhtaha+33y088sVYi97Q2GfbKrCOItKcJ2DPRRCR1i1buExuVKMb441xPX7njeA5gGbCY6cx3e9O/4t1AOPTl+f11GDcy4bftuZTOwCXtUn4lfQZIuLL/Rth/HOfUafp5y08fHYibpTpmbqeXVyVg+VOvTi5g6Xpe/gSCeNYf9lXUwDOgBKw2S8RAPbN5e7R61V2Br2GCAJWAJU+cErDkuZKyVAKWFE1+GIViNxdrzxGQ40f8FjErLOYLo9WVZU7yRzycoZz8I4nEC0S+53NrpKqiJJWcSq1zdxWxFnan7pHHwDy+tWLvuCb2QsjaAchu6M8g2DsyNoCwFBbmEFmrTNIMtqyNGmjlEqyv2t2OHg7/Z9neFvMdsPiXMToSqqTzVHOsp7OLlFp0CA2tSSBsMi064b3Txy6Kl9zBpXP3C2l8NxNObbZzhc8l+dK+Jf06+kumz1UCDeaZYRH47dpIdNLyiccq8Sqlb1b8YErA8qcYnVzACut5hWcT8LQ/7KuogWdACVhKwILdE9a/hxk/COI/NlRVTvYPhcO/32oHlrelUQKWt3x66C2j34D9WNPvAZF9kszPh9nky421xjPA6oQ33YRyC+4k4Aoi6uZjMhFY0WGRNd9+mEoMjmvU9sDEjhN26/4wiO0vkLHbCVs+jmtkb4Ws1qFNBkfA+IoFLWRmu9N/rWBqIMEVDSZ/vrz4qE2pJNrrWENKy7p1C/GlBLZ/QQu16T/h6nqH1nEetAgVALgO2wCbwBI+YqaJ75w29r/xmBr28uxhGugxEIZJM+qGsO1wJLxL+pWqQTLCVTNUiV5XO73UtnjF/HqtEb1UiVcS9U6xiRKwUkx4U7jOLWDtnaHnGmcT0VP+sK+iBp4BJWC1WSK1Ayt1M1cJWPJcqyOE8ly5sNwSiUT2x4bVcS+ccuEvvU379eseCnW5lFjc4fuRWebnjYhxEzYmeEvugAFddFP/N4DRRH7exMz/iVRVHpzMTrJEJpXUerU9x2NKy7qZbN3PhAvaErHscY7HAuOgbh6bjI8mDLYLA6BaZv4vMZZAiO8YVpQttptwr6iu0b6umFRUnwiJfo055KVZBxOJ3zBofxD2BdCjubl+XExJVd2vbD2OKynotBWVwW9ENe13/zm56Mt4qA55Zc5YATwHYEBc9AlikSqjpO9kfTk2Z09QuIq9vwwLgl5iNq9dVHxUIK5D93g2pr07JWD5U0IlYCkBy5+ZlyZRlYClBCy1A8vxZVVHCB0pcmegdmC54yvF1qGcQccIIR4HaHCKQ+8Ujpm/gmmNN9atei8RHHrensOIzWmgWC9s3x5iXNVQXfFQqgFIrVvjLtKfnd03I4tKGPSrbbuBdtmJJbFudTz+5qGQ1RKOZV/7SMAaMH/AwKeA2EzEmxn8aU1D/fKPzv7FxlQXxFW8khJx6IGHZ1sR6wAhtJ8A3IeJ7BoMJsZBDN4zoUZ1Sc8KV1l4bywp2iQamBmPm9Bvj9uDqbRUOyTU9zQCP0+I1WTnJ0GMUqVx4TsZf81jk/FhkxJ/PJlgvGgy37J4/Di7Ea+L7BKtsBrnlgElYLllzBt7JWApAcubmbSbelECVpuFVTuwUjff1Q4sea7VDix5rlxYqh1YrcnKHrh3WGj3+32MkJlNYj4/smbldAANLmoaMw3lFFxNAjcQqJ/bsV7ZM7BFA35aX1VR4ZVPWT9Sa08nZ8NKy/IyLOt6EF1KlKCI5byS3Wnl2u4qViKjtsYywAS7lxa2QuBTk61bzfVfz11+ySWGU/6B+bykROx9yCF69tasQaYwDyANBcwiTITuYD6YgWEEeD/RJThPmqMAyBbNaTJwAzIb/rLs+OM3t5eXfQNhVtfQxUT4v5hNgvilqXXpX8pvOz5TJFzZrJlk4QUL1p0LP134JUpKUna7RdLztZM5UAKWPwXv3ALWkLCeW3OOOkLoz9xLi6hKwFICltqB5fiqqh1YjhS5M1A7sNzxlXrrzFBO/vUk6FoCdUl9+B0RmfGkgbo/orp6jUscup5XaN/AfHJ7J+Bc+kvMnDErUl1xTGKDkxsltY6VCEHDS+cM0FhcRcT2jWsZ8VbsjmttCVRe7MraBQfDFiRmMWGuFeU574gNX6V583dCSZk2ZAgyu4V4L7LMvZm4N5HIAGggM8YRcAAIWRI17lQm7U1BZrYExMSMj6i0vKQo2h4pI15ZlGNZDdeD+Cq3xElM/51dOr5QO8wdfUv2pvLKz67cNHq2eSbQc5pJ95R/PuZzlJASr9xOpBTaKwErhWS3CNW5BSzYTdzPIuAZf9hXUQPPgBKwlIClBCzH11QJWI4UuTNQApY7vnyw1nIKT9EE3wnQEB/Cbw/JwOdG1DgR67773BWOvv1/rOth+4TPgY4HWVw5dmfMzBca1ZW+XKTjuA6VT4Xp0OfL9wjr1pUguhyMjMazQe2viB3X3Q7oWo5Pqk8WYy0TXraY3mLT+t9WsaFiRXFxRD73NLIsKRFD+/9C07J/6MGMPcGUB42yhIleTNYhAB0LcP+Ejh6mEQ3NUN2+AMxYD4Gzlp06bla8dA8pnTdYiOgDIJwmQ4tbHG52dEn5ToFw5cw5xf5c2OIV7KOXUdy7ILzhszQXkWXKn/Y2SsDyp4SdXMAK6Tn5E0iIKf6wr6IGngElYCkBSwlYjq+pErAcKXJnoAQsd3z5Yd2rsDCcyQ8AdLof4ZtjMsOwYJ5hVq+aAfsUmOSjZReer2m4DcAgySGem9lHfo36yMH44ftKz51LOJRa20r42b42PXTq7Bxd035LxNfGRCz7iSNkOYpY28e3jyIRIYsBi4AKYnGfYfJShK1v3zl13AYQSUFywUnwTZlpyPTpelZWdg+uqckOhcJdTUGZoSgPRkicBKbjQOga/ER2Rej1BGfwByTEr5eeMnZZPD6Gl779E9bE/wNwUHt2rrC5nJXSvgMkXDXxZIL5GRO4Z/GnC75RxwbT461TApY/derkApYWzi0s3naByVR/2FdRA8+AErCUgKUELMfXVAlYjhS5M1AClju+/LHWwrkFf2DgWiLq5Q+ExqjMPNmIbL4ZGzduksWh5xY8CaKJBGTKjvHajplfMKrNi4Fv67z2LeNPep0r46zZZtTT87OtrtE/EviS7Q2st0dqe8UstT73aEcWkVgKpusiekNF143hteVpdvugm1okbMtMez/6ZrjPwHA3g6lbhmF1MTXRmzQaKcBn2MIMA6GE/ScxsEMmbXt4Wk1M+wZCmLhuWfGRK+KlcOjLZYcRrNfRoueYa9xSL8UOFK78SwhXUv4kMLbvp3HHVfPTeGwQUwwWty4dP6ayU4rJSbwXfg5VApY/7HdyAUtoeflnaBD/8Id9FTXwDCgBq80SqSbuqZu5qom7PNeqibs8Vy4sVRP3dsgK5eQfRYLuIVC7Gw1c8JywKYM/M6IowrrK76Wc5BYM1kFPEXgMiKSWalJ+XRqZFp9urqn8p92v2OVQT8w7LPGhU8v6ZWm4A+BJOzUYS4GQZTOz664sYmY8HYF+Wx2iG1asmFerdne4nENNO7WA7HAG6rKgZXTJEBgCC6cR0ckMthvEd9icconWvbmEGMOgJwC6Y9npRd+2G8C+gZD6HCcE/Yvc8iGBoXVcacIlRCvbtxf+4vvZWbiKva+2eMX073oYv313wjE2twkw4b7kaoQ3DCgByxse3Xrp5AIWtNzCkzXCKwCEW+6UfSdgQAlYSsBSO7AcX3S1A8uRIncGageWO778su5V2CucgSdBONMvCM3rHyYcGa2qnAfAsd+vllNwmiboLgD7+YabURExIqOxYfUqvzBIr1UTATi09O2eWZb+CBFPAFjfycdOkRPokyWLnGkjgOu31lDpB5OKfkgkDzVGgoGSEvHTPffM0vS8nnpYnChIXAzwUImRqTPxQBJhi/+ErpGHnW4g7NolPAlkPSqVnCQu2Sm/S8w4/l2v+hxuJmw/3xboW+9q49hx3rdhRCYtmHis3C8QUsQqo1QxoASsVDG9c5xOL2DlFZygAaXw+SYhf6qvojoyoAQsJWApAcvxNVECliNF7gyUgOWOLx+tQ3mF1xHwewKyfYRhq1b3Rasq/gSgwQlHOLfgTgZdToTuTrYd9TkDfzXqcQN+qPBNV0l4TSxLyphXy3pZDfwYNzaztnti7RrTYVdWcyyndT5TbNdGlIB6ZvqEYd7B2Dh3SXGxL+czZTlyYzek9ONw98jKzGhPM7p8ebcI4tyE58ZvR9gOfeIJ3czZt2vIjA4OEY0n0EkWIQ9gWzcJ2cdLGdCI5Tf9dATO9nza/cQJbBBRPdj++0J1IL5yyWnjpsfDccgrs/sKCzcS0dUxO6eJG8eZqxfURRzbr5RvB5/OPnbdbdUiXdu7SRaVmTDOXzTh6NWprK+K5R0DSsDyjks3njq7gBXKGXQ0CfECgezdv74+bH/xZNQn9xff1xR2u+BEPDcCugZVFRVBSC4jp+Aai+iPROjpJx51hDB17KsjhPJcqyOE8ly5sFRHCOOQFcrJH0mCHm46Rui8pHFBvBtTZnxoGJtHYcOGzXHHdcvNCXXN/KsgOtWNfy9tmdm0TD7VXLfyTTeN573EYPtKSbEOf+HfvUnr+hcQn4zGhmNtx01QyGoUGlALQRtgcTkL85FFH+sfBFncSaSQQ0rLuvXSrN8x8GsGLRdsTTdhLbNCGfWWWRcN1Vk1y8JbawJ7axszFf6/8oxcva4fd8kYTiYXg+gnBM4CUYiBrgR0A6Alwk+yY5qnH8PuxUSbmbEahDeJxd8jGVtXLl++PIKSEsdbIoaXztkDGj8KTuwPjOuXUlK48kq0kvvDEVe4apT1GFFizDcifN6S88Z9l2z91Hj/GFAClj/cd3oBK6+gSIDsyzLy/anAjqjM/KgRNe/F+m+r/cai4m9nIPYjSVD4UAJW6ioRzi24g4nsnRWNl0n59CgBS554JWDJc+XCUglYccnaO0PPiz4H5lOJyJe+zk3wOGIaB2Htdx/EgxvKzR9HRPcSyM8TTh9FzOhpWPvtly7moeemrtfKiSI4/IUFvYUWfZyJT4orYu20Oo5/tDDWN4fEegArAcwTMCbPP/Nou/mz4xlS6TxKSsSw/YbvEdJEL7IsXjz+mI+lx3ppyEyHvVx2CIhnErb/ehcTAUCoZ1AlMd62mN9i06jmUDiqGQ01Wpfu6xedfPgWL6F46WtMWVno+82bs3qbvQbCMo4jQSdYFvcjIsG2mMXcB0TdyKMeJxITvh7MHwP07Cor66lvi0e43r034tU5e3GUXwLRz2W4ksC0qxuvRSs7gguf7eflKFw1q9dRMOYZDUq8kpkjQbdRApY/Fer0AlZO/kgh6G8A/difCuyIyuDnjAbjZmxcbX8fUY9iYBcGlICVukmhBCx5rtURQnmupCzVEUIpmoJipGcX/JYEbgRRfz8xWbBuiVatvC0OBtJzC68E4QYCcvzCyuAHjZro3djyna2/+PYktHZOFK0tYpEW/QuBTwEhU2q9HEO4syXD7pnDXzGogkh7vZaNKcuLj9wMkJRLGfxjysoya9bzXiFgIFm4gskaA2CrwWL0e8VjP5Px4aXNkNLScE/q9wcWfOv2I3dtV88CI9J03O1DBs1gWO8SRIRMNgzB6zijrmr5iSfWeonPS197z5iRkb1VdI0i/BMSfJwgGsqwMglk/5KWA0aOPX9a7+TzYDJvIPCbIPPqxacdsybRnA5+afaeOtE0MA1r3By465MQVhezW7q3laRPZ7zOwpXNgu3Hfn8BzNWJz59brHZeJTrPgjROCVj+VKOzC1h6v/yh0OgRIhrhTwV2ivpWxIxegbXffhEALApCABlQAlbqiqIELHmulYAlz5WUpRKwpGgKilE4d9ABTOJZYhzo561+DLxrVFUc1m4j9z59euh69weI6EK/Lq5hcK3F1gSzetUMP48PNq8nUzqHxjxT1iuaxY8JojObG7tLraFjK1+uYeL3GbQGbD5V3X3wnC+P38ex4ZmbBA8snZHdBfp+BBrCpJ3PbB0I2tG7iy2ULvnluF+68emRLQ17ae6QENjuv9T+r81tKw2m3fOAGD+A8I7JmCuASgJFYPHGKMTKd1dgXWCPXJ5Zqg09NysjI9Ilm0EjmXkUCANA0InRd9vtkvlEdgM+Eu0JRs41oO/J4ifD/cQd5UVFjscE4/kbXlqaRehzAgtxC8D727qNswDUhkepF2PHOGnRqnmIhP/4uJs+deEntmsSmI3a6EXzLzjGt9srnOeDsnDDgBKw3LDlnW1nF7DCeflDtjVwvw+gE7xjNTFPzPiAOHpeZM23HybmQY3a3RlQAlbqKqwELHmulYAlz5WUpRKwpGgKkJEI5xY8x0Sn+3zk2IxY1r5Ys/LrtrjR8wYNA2v3EqHIL+6YebFBfDGqVq7wC0Nz3ITW1cmCbuyJ1eVhAOOJsP12wvbWwQx8R4TlFtHnlhF5akno6C9QTN71NSgpESOHjBxoMR2kCTqMgVMI2AtEGrhxB42NLfY/xtQlxePOkT9wlSxbO8YXPlOWmdvNmiCI7gXY3Y0JLSpt9wwDYDcnr2GLvwZ4EUF8AjK3gqmWo7SSow1fLjvn+PjN5LxLza0nGlJSqmcN6Z2VKUL7WMBIJusAArpwbJcWDwZjL+lGqYyNzHzP0k8WPoCSEk+On455piwz0p1PYFi3k5vjLRJiUEuyOkK0sv07/2GQ33G1XS+LiVfidZP1yxZNOFw1bHc76wNsrwQsf4rT2QUs5OTbu11vI6Kz/anAjqgMrAXjJKO6YqnfWFT8YDKgBKzU1UUJWPJcKwFLnispSyVgSdEUJCM9L/88YroHRHl+4rLAv49WVT7YpoCVk38uCXG7rz0/2bo7Ums+6PfxQbl1agdV0r6dkBtwvwU+r6WI1SwWAWyC8QmI3rdASy2yXl+yYsH3XgkMdhz7lryMnvvuR5o5EqCDifELxHbytNNEnPA5WfqpC4pH+6Y82jvEMkTmzQS+zL7Jz7PyUKzRaQSEzcT40GK8Q0CVBY4Qi3UG0Yo6a+3XK4qLI57F9NJRSYkYU3BEeEsGuoVC5oFEGAbi/oDIoJjYZ/dI4UI0HkNs+Viw8GhNffSmD889psZLSIc+P6OHyAxPBNPNFLt9sZ3HpWgl3Yx9u3Ikl5WzaNXiT0YczO34MUH0ijBxXfmEokDcCCXHirKSYUAJWDIsb7t4KAAAIABJREFUeW/T6QWsfgX9dY2uJ8IV3rPr0iOzaYJPMatjN/N49wObSxjKPLgMKAErdbVRApY810rAkudKylIJWFI0BcqoV/8CPSP8GoCf2j2Y/cLG4KVGVeXwXeMPzArlij8SxO9bayapwsrgDZZFF5prKl4PwnccuTVrB7Ez4pWZOVpELwHhQgLCdhgGagm0DIRlDF7YUGctfefccRtA3vW3QllZaORa096CN5xABzNwBIDGRuHtMMIMgzTtwoWnj3mug+iQc8tMI6aX/wzCepiB0XKDErQiRJnRQEC1fTxCCPqUmbdA8BbLpC8Q5v8ue3/hWi9FxQSRtj2spCQ0ZMgRmZloyNNZ+5kIafuCuQdA3Zl5XyL8DMwrwNrFS4qLvuqIXXXDps0cFA5pdzBogn3kMQZUUrBqPRVdvaySMVpIUg7UO++4ioPPPsJaSlHtlvlnj/7Sy151ns4X5SxhBpSAlTB1SQ1UAla/7mGt6xXbbrG9IykiPRrMjCsN1D2F6mpPfwzxCJ5y4zMDSsBKXQGUgCXPtRKw5LmSslQClhRNQTPScwv+BsI5BLJ7LPvyMBAxUL8fqqp2/qE/Z9BeYdIeAOEUX4DFTqDxbAPm1aj+9iO/MLSM62pN3BGAhz87Zw89k65jwngGFsKi+WBeWre55qPll3jbaPzoKTO71mSGxwuy9mfGaAIO4HhX7O587K60umvDuV8ef7ynPbcS4XR46eIsoP5UCL6TgMKWPlzoFu5CE7H9EGAAqGHQNwD/D4RqWKgjRrUF64NoVv1/AtsgnpmGTJ+u90SPbhbCgyHox9v+WH0ZXdd9+fJLDrbz6oiHRrxcdjosy15g7ecUoOUL6frldFl8Z/9yPa7i+WnseUXTRIjuKP943ueBFTudCqM+j8uAErD8mSCdXsACND23YBIBj28TsbzbkZxgORn8uIGGW1BVtTZBF2rYbsyAErBSV1wlYMlzrQQsea6kLJWAJUVT0Iy03EEnCRJPEaifn9iiMC+zqlY93hJDKLdgrCB6DMCPfMLGFnB7tM56CJtWbvQJw05hndewHY+SRpXO72daxoHC5C8XfqGt9LqZ+KEvzdpHN0MXAdaPicTBgJUDkOZivf+/BkFnvnvG2E86ig67L1hUaD2NzdE1MsLd8NK3+hDpl4NwPRC7kS/u4yJXJ1ctP7fd2j2j7J1aW0D4DuBVBNrMzLUgbXnUqi97r/i4z+X3HbkJnx62Bz49IzurW8Z9DD639dbUpHZZNafvorhyL7zzbis7tIQvE6C/IyoenP9F2VdKvEqP+ZoISiVgJcJa8mOUgAVoOQWnCYG/EahP8owm58HeNW4wzkV15TfJeVKjd0cGlICVuqoqAUueayVgyXMlZakELCmaAmfUu3dPPaPHXDB+7vMxwrlGVeW4FvyE9ZzCSRB4iCTW+x3E6yrTwhXmmop/BmU9L7EG7SAqOt4tHf6P2eMgxASy+Cds734h7kaxm+p2fuKt/+0dJBA4V++n/UPmdrrhL807UDOjJ4Po8606zfjg1KIf2kt1aOnbPcMQY4noFwxrT2JkWES3L+0n3obETXjDpr61fyis30/AcV7Q6UIHaTec3SCeGvt/RMHYwIQqMNYTsJUFfUvgMpN4/junHbneC8xp4oNGTJ97KcA3ETCgNeaEXkIXxZLzL7fbSlK4ss3sHnZPwYw+MP+Lo75CCXnSHD9N6t3pYCoBy5+SKwELaPxlEo8B5Ncvk9uLz8ybDBZHYM03//VnRqioQWZACVipq44SsOS5VgKWPFdSlkrAkqIpiEbh/oV3M+MqP28jtC+EMbjuUFRXN/4Q1nfgHrqu3USgX8vtHegAZhn/Alk3RqpWdthGHreo5da2br36aG/f/hbN5NNI4CwQfgxGfyZkUmzDiPOqv7UFM57nhug1i889Zo1TWj9/pqxXt67WXfbtiiDUgXk9E20Fox6EKDFb3CighYiQAUZXEPoy0JeZM0BkIywzmH7zXvHYz5zijSkrCzWssc4kjf4EcMq/vDuzGcug+QJHk4AGBmxBbwMRbQbzD2Ash8lv/CA2/DewDeKdCiHx+WHT3h6jaeI+EIYl/NJJEi4vMsmLVvI+Y2TYAuaziEbvmf/FYrXzSmJ+pLuJErD8qaASsAA9Z4+fgUIPEdEYf6qwI6p9zN4CzjGrK1+KXYqiHsVACwaUgJW66aAELHmulYAlz5WUpRKwpGgKopHed9AwhLQ5ROjuFz4G14H4SuP7lX+zMej9Bh0MTZtMhEN9wmRfdnZrZE3kAWB1rU8Ydgmb8Fo6KAk047CP1IWsjLOIcCGDBwLoybZQ1PqkUyxjaSXga9PSxi/+tHy5zPGnw1+ae8G2769/sq+4tOPau5HstmcU+8+dgtoNpQhE1IxvByKOwMKDFkUfWFJ87AYnnn86ZWbXrpmhmwn4LQjdttsHuLIxXmwCiOwjZvXMXAPwFhBtIebVFtEbpiVee7e4qMop/3T5/LBXywo1w3qMCMdLY5aepo0e3ZVcXryS8tuElQGLgOetkH7rwo/nVMi8N9J8KMPAMqAELH9KowQsAH32GKjroXuJ6Cx/qrBzVIb1V6Nhy/XYuHFTEPAoDMFhQAlYqauFErDkuVYCljxXUpZKwJKiKaBGIT2vcBEBh/iFj5mjBPw7Ul15qr2003IGnSyEmEqgLF8wMX9pMq4z11S+6kv8doJKrU2DBLg1lpH/XDhA1EVsAeckJtg9MDKa1vLxc9v+afsqgcW4tP6H2ikyPalGlJb9XIDvZlhHbz+mmCi7zDVM5pn6J+G3y0uKok78H/zC7D11nWx11vkoYaKYnEAk+Xmj2Bc7fmgfNTPsmxjsY4cAbwDjXRP0D8FZC5YUj6hLMpQvw+2dgUY3y1bTz95FVG2JKJ1EKxt3C7yxhu2C/m2Sefmi4qNWuVGKfSmKCuoZA0rA8oxKV46UgGXTNTBLz9NuJ9A1rsjrMGP+LBJFEdZVft9hIZTjtGRACVipK5sSsOS5VgKWPFdSlkrAkqIpqEahnIJrhKAH/MIXuzCNqDISNUciwvWhLO0qIthHCH1awfMrEYNuwvqKT/3ipK24PpGRPAUjXpyzlwb6OxEOS7qJedssvEzQrp1ffIRjM1ZbnDC7mH9iwrVAOzchuWf6M46aYxdNOHq1DFsjXnz7ZBbiHiKPbihwj1cGZjI2zIBBjM3MWEmE12HiucWfLvgmXXb5DH3iPR3dt/TUMnmPkMlnkN3slzCQGLv0ZWtNlLtytGEdRxhz57sFspbilb3zimiOWR+9aNF5R61MptBqbPoxoAQsf2qmBKxG3vXcwqu2/XB1q5/b/lv+ZbTA46JVlfOaLjnxZ3KoqIFjQAlYqSuJErDkuVYCljxXUpZKwJKiKbBGffYYGA7r9o/wvj0M3mBZfGXI0t61NGsyER3pCxiGCcIdkaqK25vaw/gCI60FrCGlH4d7Z/yQIeqNcWB+kIACAFosKZcrcKdNLgysYrIuXFR85GzHXSTMNOrlsqPB/CgY+zj5jlv5Xa+ke3xzbfTaD889psZxxpSUiJE/PvwOEnQpAz2bjjDKH5Z0DBBIA4sZdbF+WuCPTYHnmHgG1UaMUIPBuuhhlHdda6C42O7JFMhn6OuvdxF13XpksnkYCypmC2PR2LNNEEMHQWf7vx1nufyRwGYiXL027U9s+xP7D9z8aJQvWHz2uMpAEq1AdSgDSsDqUHrbda4ErEZqtJyCUzXCnSD6sT+V2DkqMz9qVNN1QEV9EPAoDMFgQAlYqauDErDkuVYCljxXUpZKwJKiKchGel7BXAIV+YWRAfu7w4tsmk+T0F4nQk9fsMSOD9K15pqK13yJHyeoqzWsX+CHlJSG++7T7/ckcCkTBtiL+3axuMionTV5PYPv3BoWk+PdINgc3z6+lxkSt5DAxFi7q1ZPkoJW1GKesLj4SLshrONzyCvL+urRrc8R8VHt7gRr8tK6KZej8/QxMO1+WgxaS+AFFtFrgvChWSdMrUsk8sP3m2pXrD2zNrC34pWWamP07O5WTXSQGcI4EuIkAgbbjf85djyWuwIUE7i2a1ouJpmL10OmVZwdOUqghQ2MC5ZOKKpIn2mikHrJgBKwvGRT3pcSsJq4yi44UBd0LxGOkmevAy0ZKyM19Qdja9XaDoyiXKcZA0rASl3BlIAlz7USsOS5krJUApYUTUE20vLyz9MgnnG/RcazrOz1VQWYp4LoJs+8unHEzCCaFbGsy7Bm5dduhqbC1tV6NhWA2opx+AsLeoe06OMW+CT7uGDz7qK4eFxk1mL9b+/UeYsZNy0cP9bxGuzhpYuzNKt2IogeIoJjczUXOsP21Bi8WjP1w+ZPOEJqO+PwabPGaSHtEWb+EVHsxsOknmbMiWBPKrCLwc2lbqvkTU3FGwDaxGx9AQuzTY3nM/F3WVv0VeWTioL9C3lJiRg69BeZmVs39LJ0+olg7RhiDAejm707C0AvAL2JEW6PMhevQqMLiWI3+YwCtKCB6y9YOuE4JV65mLO7m6kSsPypqBKwmnjvMbCPnqXdv+0L3/le/LvnSTUta2JkzcrnPfGlnOwWDCgBK3VlVAKWPNdKwJLnSspSCVhSNAXaqE+fHrrew25X48/OJ3spxjBAvIlA/fzgipnrYPETxtqVdn9Ruz91oB7Xa1u/0I95vayftZXtW9xiIpbkOrsRrmSWTKhk5hsW/m/sPxx36JSWaqO4n91/6xEQDpJa9bciT0InaB4xvQ7WxcuLj3K+1YiZRrw051oBuqH5KKFfNQtw3CgYX5jA+UuKx70rJ9kEJ5sxZWUhVKCb1V1kWxYXwTSPAiEXIPvIYTcC8oi5N4gaj9jKPJKTsflVsoVBMMpNzZy0qFj1vJKheHe2UQKWP9VVAtYO3kO5BTcS6Do/v3C2nAUMlBtVoWOBLxv8mR0qatAYUAJW6iqiBCx5rpWAJc+VlKUSsKRoCrqRnlvwQlBuN/aFK8YXIOumSNXK6b7EdwgqKe0EA/ohz87um5Up7F5TZ9pHqlp9WZQD2X7GNcx4ImJZ9y0768hqJ2eHTp2dqwtxGwlcDG6SyHbyLakIyIlapsV09eL/zZ8s07D8p1Nmdu2eGXqOCCe25skpr070OTPEpfUbtj4nc8tk0HmxLxKIaJEeJMJ7Co3tPlo/bWpo3A1M/ZmsPQDK2qWXlsQ0bf3KNN42KOaQVf+rcrXzKuhTIyX4lICVEpp3CaIErB2UaLmDT9LIuhOgA/ypxi5RLQsYG62qsJu5q0cxACVgpW4SKAFLnmslYMlzJWWpBCwpmoJupOUOPlGD9aqrzQBBT0oSn73OA2iOIRouxvffB7K3cVoJWDbv415Z1teI1D4M5mJqPEK10yOxHt9lR1bsmBnjHRN01aLxRUud6rv3IzMy8rIzT4fAXwno3q69B4KW7TuWE2M1szhdBp9tPurF+QdZwphCwP5y+Jyy3k0+3/nmvBkRM/TrdyWPZ6YVA6Wl2sgtA7pEM2vzMoQ4yCIaRoJywJxFjBwG2X219mivn1x7fxgaj2TyjKiwfqN2XqXVjOhQsErA6lB623WuBKwW1OQM2isstMkAjvWnGm1F5TcjVfqpahdWcCriJxIlYKWOfSVgyXOtBCx5rqQslYAlRVPgjXoM7BPO0t4DxdZLnephxhYwP2msqbw2qKeU0k7AsmfQ8NLFfcJm7f0MMbEtEat5lrkQs6pg8YM1m798ePkllxhxZykzjX5h9gGsa38HcIj0jE6+vXsU4Jn1pnnpuxOOkeuH9eLcc4VgW2Rz7M8VN490mCVSxW6VJXONyTRpk1j/zxXFxRHpWqapYUx47du9C2kR+4/xQYDYn8BdmLk72X+gGfsQoW976cV2XhG9RoL+UF5c9GWa0qBgdwADSsDqAFIlXCoBayeSdD238AEQX0yg5P7Nk+BeyoQ5alo4yVxb+aaUvTLarRlQAlbqyqsELHmulYAlz5WUpRKwpGgKvlFhpp6Le4hwZfCxeozQvn0Q1jVm9ap/eezZM3fpIE20meyo0vnZmmX8wQJdTmi/gbWTmMXEtWB6OdrANyw5b9x3TszajdtDXP8YgPOad68kop3E4rjbocVgrmXgrxso78YVxQc4Ci5Dn3hPz+yz6T5i/M4pr077OdNSMxKZuGTisZ1PkLEbxPcfmpmRFe5GQuwZ0vR9wFZ/JupO4D1BGAqgELHbD2FfcDCFjMhd5ROP+QqghKd9p51ru3HiSsDyp7hKwNqZdy23cIIGvh1Ee/lTkV2jMnihUWOcii2r1wUFU0Bx2BeROH6vCSh2KVhKwJKiyRMjJWDJ06gELHmupCyVgCVFUxoYiVD24MOFZs20b39PA7zeQGQ2GSgzao0JQf7ekrYCll2lUc/N7y/06FUMXCkjYrUhZtlXRH5smtHLFp111EKZyo96sWw8iJ8goEd79gmv7B12aXFMNOCVbPIfFk048h8yeIeXztlDA6bZdMnYdzYbAqIMetpE5u+WFI+o8zL/Ea/MzNEioZOYxI/AvJosLI9YXd5fds5hm72M46WvMSVlIWOQnqWHjVzWaLBF5h4C1MNWryziNxZ/uuAbmT5sXmJSvoLPgBKw/KmRErBa8Z6XV6gj42kCjZG/vqVja8dA3bZfn26JVlXatySqpy0GcnO76pT1gGXxbHNN5cu7K0lKwEpdZZWAJc+1ErDkuZKyVAKWFE1pYZRdmKcLfoWIhqcFXg9AMmMTgSdHqitv9sBdh7lIawELYBpeOneAbuJyIrJ3Gdk7ReQfxnomfmCdWP9nmSNkthgUYppFwBD5IIncT9jCe6sK2ddqEmFBFNrvlhQf8ZEMjsOnvT0GmiglIDuefcLCmwwIH2xkJzcDWxh4bFHxuBu8gjm89K0+GmdMAvPlIGSDsYUErbaFLIA2EngzM39Bwpozv/goqTp6hc2Vn5ISsXefQ/Ro9yyqmDSmQe28csVepzFWApY/pVYC1i68a3pu4YMAX0hE3fypys5RY81QCZ8C1vlG1Sr71lv17MwAhXIK7idBl4P5cwvWXWb1KvtHt93uCZiAdUe0etWdux3JTQkpAUu+skrAkudKylIJWFI0pYVRbm7XEDKvFES77d/KXerA/I1lWedH166aH+Qaya7xg5sDM415oXwPS7N+S6DfgZERO5rnkJktBEHQrLra2ovenXRClUyCo16c8wyIzm2v8bWMD09EIsJWZkzZQPSHFcVFW53i7j1jRkZeTdZvia0HnGwT/dyTvNoJnppJShth8Yvfr/nkqi+vuCKpa88Pf+HfvaFlXUZEv+bGRuktU7CpigIwiHkLiL4HeC2DNhNQbZFYGq3hBUsnFVUkWgs1TjGQagaUgJVqxhvjKQFrV9613PwTNdCfQbS3P1XZNSoD9r8p/zKiWy/EunVbgoIrCDhCOQVXk8CNBOrbJPZ9BtD9RlXFM0HA5yWGAAlYDQTr7kjVylu9zC9IvpSAJV8NJWDJcyVlqQQsKZrSxEiEcgoOI8IbRNQrTTAnDJOZ7fXpfKO6/iSguiZhRykYmBptoKMTYabh0+cOCEfpyl2OE7YpZsX691RbxGcs+OXYRTLwRv2j7BRifh5A153sPWDQrfhjnyMEYyWB7lgwvshuJu/4HPp82UA9zA8T+DRH405rQDUMnm8i9AfZ3W2tqRr68lv9uxrhB0B0NIPthuixGRJvmtg3+4FhEsX6f2zeNoc3AtjQ9L+PYWLW+o20fMVvnMXKTls6lbivDCgByx/6lYDVBu99+vQI6z2mAzwuKNdfMzODsJ6YHoxUV9zjz2wJXlQtb9AkDdotzJxPRLF/JpnZJNDXzOafjTWr/ho81Ikj0nMLr9qW4i1E6Jm4l+RH2oIqMT8Yqa68KXlvwfSgBCz5uigBS54rKUslYEnRlDZGfQYMCof1xwE6IW0wJwjUvn2QwfdEqyvvStBFyoZ5IL+kDKtDIKZRzy3II828BcwX7HI74c5CVgMY99FndFt5SZGtNsZ9xr0yu280IhYy8CMnW6edX47jmwwkRC2TmRaYLK5eMuGI9x39lpSIEUMOP1SDmNrUmLvFEIlojgGCbhBnqu+cvsGMVQy8UcvRe96fcPRq2cxGvTjncgJdBkIhiDLAnND71ShQMgNkUuMv9zVgtvtmbWTCajK5HKb+r/nnjq5QR/pkq6PsOpIBJWB1JLvt+1YCVtvcNO3quYFA/fypzK5RG29xxWemRTeaaypeCwouv3BoOQWnaYLuYuZ9iEi0xBHjCrSSYf3ZqF75qF8YvY6r5+ZfAYjbAiBgRWDx3401lb/xOseg+FMClnwllIAlz5WUpRKwpGhKGyO7RyMyLiASj6QN5kSBMn/PHD3OWPPdfxN1kapxCS2wUwUukTgjp80aoEO/kxlnA6y36UPQ+9GazUcsuvBkqa38R7w49zEGX0SgsGupxyOG247LETA9vCWD7vrg1KIfnPiK3aBo1Z3NwBOtvzDKC2+uGXCCleDnksS6hBsTjxqfLWA8v3D8WMcveIe9+PaPddLeAJAHILPVkUH5/OJgbRa1iMgiRhQCDWxhM4HtnVofWUQvaevXzSn/TbHjkVJ5QMpSMSDHgBKw5Hjy2koJWO0wmlswOEw0AzI/OnldlDj+7N1FIFoEk39nrK10/uEphdhSGUrLKTxFE7iTmX/UtPNq1ytsYiIWvmeTHjDWVTyUSnwdFUvPK7gMTHcSwdejKI3HROhlo7pifEfl6rdfJWDJV0AJWPJcSVkqAUuKpnQyCuUUDBeEl0A0IJ1wu8Ea+34CzDOqK49uunnezfCU20qqACnHlVTAMVPL+jHzw0R0ZrOI1VIbIMscXn7OUUtlgox8fs5xWoie9aQBesewXR2F9fvFvzzSPt7o+MSOEoas24hokqOxk0HH5BM/qktByimF1p+3SGmdxbh74fixf3byMWpa2fkkOLF+HRL5SNJsa1wmc+zo4XcgzBNCPFuejY9R5LzL0ClH9bliIB4DSsDyZ34oAat93vXc/P8D0a8I1MWf6rQTNfYlkV6PGMbl2PDdt4HClgIwWu7gkzTiuwH82LlbaewXpbWwcLOxpsJul2ClAGKHhdCzCy6AhgcI1LvDgkg4jvUaA5YZ1ZUjJMzT0kQJWPJlUwKWPFdSlkrAkqIprYz6Dy7QLb572y7qCWmF2wVYBurBuN6ornjYxTDfTCXXxr7hSzjwqNIZ2ZqR+SgIJzOQYe+KifUaIjw8b8LYq2Uc2zfJha3wG8x8yC47lhwcSOgSbXtIoCJMmGNa4obF48e8Z7eQcMpt9LQ5I5joLyD8VOYLpJO/dPrcBb3fWhZfsXDCuFed8hv14tx7iXDdLnaOlfBsCuxw1CJm066tWoA2EPhTkPam1mD+a1MXa13mllrL6p4dzVgxyygvKXE8RuvEgfq8czOgBCx/6q8ErDi85w46IEzaDGYe2NxfyZ8qtRGVYTDxE4ZJd2JthdQlMoHBnjgQXcvJ/6UQ4o8E7OPmuwczqk3GLdYaPAtU1CcOwd+R4dzC8Uw82W5Y7y+S2PfElRGz5gCsXbtb7tpWApb8DFMCljxXUpZKwJKiKb2MCjP1XJoIWI8TkZZe2OXQMnijUU8H4YeKtLhEzMV6Xo6AIFmNmDIzR9fDk8H8i6ajXZ81hDIPWlI8os4J55DS0nC22e+WbTfE/QagnvJH7Nr2nKCW0ejMuUr2L7oPNZhZ9y8767Bq59w+DvfjNecw8/8RUQ8n+6SwOzn36HNnilwH+tJinLFw/FjHc8CjXpzzOoHsOZbQkzT21gWKUzBiNpmwCcB6gngHbP7bEuaiXG3T6unFxfb2UfUoBlwzoAQs15R5MkAJWPFp1HMLnwIwcZeemJ6wn5yTxpsJebJhmP+H9d/avRbT4Z/axJLOzu6mo8t5JOg6EPITccLgdduuO7nFsGqeS9ebHDNy80+0iJ4OQm82WxRk5tOiayoXJ1KPoI9RApZ8hZSAJc+VlKUSsKRoSjejUE7+SCHobwDZu4d3v8fCW5E1FcelS2JJr52Dnui4v83ONbtqkwEeZTEumH/2WLsvhuMz+sV5R5NpPgLCvqBWEpIHrCX9TbUVBmZsZOYrq3o2lH55/PF24++4z+hp8waxMG8l8FkAZTjZd6bPm3YufcRm3ZiFZ//CvhGw/aekRIz68ej/EWNfWY48mD47L3UcJpNDvCiDyixTO2/BxNHfy+ag7BQDLRlQApY/80EJWA689ys4KKzRG6BYf8IgPg3MeNxgczLWrLJ/9dzdfkTQ0GeP/iE9dC4Rfp/s0Tlmu+cjlxj1eB6bVsb/tzmA1Q5lDxpFQptOhFy/4THHfsgqMap3j/5irflUApb8DFMCljxXUpZKwJKiKe2M+gwYpOv6n4joQqmtJWmWIJu4wFhbkVg7HB9y9WQt7QNuVyFHTFmUkxFqOOObzyufriiZ5Lj9fNTL8/uLBvMxZv5Fm7/ctmbNAxaTFrTsn2+JlliMqxeJte9CYjfNqGmzxhGF7mC4PyLpqgDpZ2w3OC2b/8siu5Fd3GfU0/OzqUv0c6DtpqweTI3G+C52WdnmMnFtoY5A82A2XFw+8dgvnXJVnysG2mNACVj+zA0lYDnzrucV2Ee2HC/jcPbUYRYRBr8Asv5ifL/K3vFrdFik1DrO0HMLDwQwiQjn2rvgvQhvCy/MfFu0zpiCLavXeeEzZT7y8vcPM80KQiNgZhgE681I9cpfwu59sps9SsCSL6gSsOS5krJUApYUTWlopOu5BeeC6FECstIQf7uQmbHZQN0+qK5eky55yaxz0yUXT3AOfeL1Lt26dv0tBP2OwP3b0g52CdSSRY8ZdSNsxXp8MZ5CNHSLzG6aoU+8p2f1+uFSAv2BsPverND+G9v2JwzUgfnZBRPGXeo0qUY9P3ckhfAWgG6elr4DBKuWuTTOFZ6nabh47vhxXznlqT5XDMRjQAlY/swPJWBJ8N5vj33dKepMAAAgAElEQVTDWqgcRLF/z4P52Bdw0FwL1qNmtTUb+NaxzUEw82hClZubE+bMo5jociIeBpDwEi8zb2XQXdGa+r9ja9VaL313qK9ue+WEu5l2r9JBHRpHzjmD+RuLMXF3PEaoBCy5SWBbKQFLnispSyVgSdGUjkaxY4QkJoPw83TE3z5mfilSVXlmOuXk6Zo7nRJvD+uYqWXHMqy7APq53fi9tZ2joNQWox6y7BSfwbUA/hAVWU/J9PoaU1qWZzHfzMwTCa36YXmIO6Vzw4kkZzCbGFSyYHyR49Xdo6bOuYgEPZK0Gu9SsGpOIZESxW4gIrxiMH6/+Oxxlc50KAvFQHwGlIDlzwxRApYc73pu4VVEeACAp0KKXHQXVragAH4yCvoHqiu/cTEyKKaaljv4BEHWsWA6iwg9OwqY/V2HgL9Eovgz1lWmy/H3UDiv4GPYLQeIEvnn21M6mbkG4OcNY+t12LBhs6fOfXamBCz5AigBS54rKUslYEnRlJZGubk5OjLvIsIFgP9/w73i0DT5eHNt5Zte+UuFH9//AU1FkrIxxkwrK9xmWwJme0u143Z3aZ2kA3dotcytGQ8BnzHxr+b/b8FClJQ4Xjt9eOncocKi++0+YQBCsnzttnaMdRbzBQvPGve6U45HvDj3PhCuAMN9H7GWE0hyMiX1wjY297LFq38YAn9crHZeOZVXfS7JgBKwJIny2EwJWJKE9t6zp55hvU6A/W9coJ+YMMN4BcCbkerKlwBEAg24CZzd30kIcQSIzgZ4X693XbXDQQOD/25ErbuwbpXdCD/wj55bMBfA6GDcZMX2N48KMG6OVFdO250uElAClvyroAQsea6kLJWAJUVTmhoJPTf/NyC6JQC3yXpFoX0j7f7pdiNtUuthr5gLgp/hpaVZYaPfxSBO+DidpAaxI91m9r2vgv2t5E2urT9/wQXHO2+vL2Ex8kflEwRbdxJRQRDqkUoMreln8GphiXHlZxV96oRj9LS5/yTC8Y7CX/PkcDlJkp4aLeI17ryiF6IW7lx0TtHn2/4Au0TjxIb6vLMyoAQsfyqvBCx53kPZA48lEXqxI3cFyaNxtLSPeFeCaboF6+3ompVzAiouUCgnfwSIigg4logOBhL4MceRjrgGEQamGsCtqAr+9d96bsHfAbKb2uvJpe3NaLsXFsDvcJRvia6PzbPd4lEClnwZlYAlz5WUpRKwpGhKV6PGyzjEPUQ0Il1zaImbwX8xqiqD3Ce0TZqTXh/vDsWzczji+dnDIMRDYAyPHR30gJmE1AGPRC22f7Vlvmv+hHG3ytTo0OeX9giHam8h5otArY4SyjgIoE0iJYxtUgJ9WbNp68+XX3KifRyz3WdMWVnIqub3Aey/03FTu/AJFV+u+XpcqtuJa4tXBHrOCmn3zv909GcoIcedeQEsqYIUUAaUgOVPYZSA5YL3AQO6hCz9dgG62sUoX00ZbDfX/pgtmguyZkWrV5YH46bCgVlatlakaRjDjJEAHQBwd/LrWBzDYOBlwzRuwbrv7EtVAvuEsguvJw23kMQu/1QlwY1N3N+12LrPrA6/DXzpeJN1qrAlGkcJWPLMKQFLnispSyVgSdGUtkY983vrmXQvAReASEvbPBqBWxZRUfT7b+anWx6JrPHTLUdHvOOmzs41ma5i0BXt9jLygKkENY1G/Il17qgmk84pP7totiMJAMa+OGcvE+JvyR4lTCpPyRv0ZPJJ0MZkxrz5E8aOcxo/etrMQYC+GMAetK1plpN9W58nNKi1IwfCidli0HMaQvfNCVd9JnNDZSK5qDGdlwElYPlTeyVgueKd0LdwPz3Efyeika5G+mjMHDvmVQPAvin2PxZzuVlvvYHN325IMSwR7l+wn8U4gRhDARwAwmBidAlEPyeggZhnbPs+/qdI9aqPU8yNdLhwbuHJTPwCgbpKD0qBYeOthPiUwbNhWlONdas+ABD1LHRhYSYqKlJ226ESsOQrpwQsea6kLJWAJUVTGhuRnlP4ayK+OQg3yibDIzN/bNSZR/jwfSIZ2LGxnqyfk0bhs4PRU+aMFZr4O8CDHaF4yFiyQs/2CsbH9N/NInTU+8WjnY8SAjRy6uwjQ0TPMVFOW03sHflJcwN75xoBT80bP/Yyp1QOn1Y2RrD1DwLlONk2f+7Z9JGcPASYtnhlsnn/gvAGJV7JFkrZuWJACViu6PLMWAlYrqnUtZxBJwghniJQH9ej/RxgK1lEDQSsYeYvQPic2JoZMWrKOrABd1jvl/8T1ug4wfgZCxQClA9GbyIOBaqJbTM/zHPYwh+NtZX27ujAPRk5g/aySPsPEXoEDlzjj11bAf6GCV/AwodE5iyj+ltbzJLdlRXO6LdnIYeiP7WYfkZE+QTuCxZLI9Xf3JGqnJWAJc+0ErDkuZKyVAKWFE3pbKT3G3QwQtqf06GvZjyeLbbujlavtE9qyf59D0zZPFtPByajBICMeaYsD2FcA+Yrm/sSSOoDnkuA0nGd8txxFNG0GE8vmDD2V05D7M+HlJaGs6P9rofgGwFy35hcJkiQbSzUs6Dr548vetgJZuwGQtB9BPRubev5i+ViYmyPHfsyiqlWKHTXfFH9udp55VRR9XmiDCgBK1HmkhunBKwE+OuZ3zuUJa4QwC3p+iMeM5sg1BOwkYFqYlQxocJia4HZEFqKH75J5HZZgeyBe2qafpBgaxSB8hmcTUA2E/oC1JWY9SDstmq36vZuNaLPIrBOR9XKFQnMjlQMCen9C1cQY59UBEssRoxIuzdWDTE2MmETGJuIUAdGAwgmYLchYAGGBoLOjRfZZIGQFdtdxtyNQd1AyACzTiReiFR9c15ieNyPUgKWPGdKwJLnSspSCVhSNKW5UZaeW/gQCOcTEE7PXLZ1PuToKKP6u2WJN77xL3PP19n+pZJEZGYaPmXugEydbmEL57durulCO/Bc0GrOyhWGVlQwsFEI67Ly8Ue+KMPS0Cfe7tmtZ+hVgItk7NPGRq43VY0JOmPhWUVvOeU1+oU59wjgt0zU1fMXyUXB24ltscWl0MSt5Z+P+Vz1vHKqpvo8GQaUgJUMe4mPVQJWQtwR+u2xTzik27tBzkzIQ5AGNe6aMUFsAKgjoA6gWgZvAajGFhyI2O6JGQWaL+4gDcQhthuuEzKJKQvM3W0Bgil2A3MWmHQCayBKrIGBDxwxY9O2sCVGdcVkT4+/eZyLnlswlYgmeOy2A93FDrLafTPtHqF2w4Qd31C2t09ge57Y98pT0+3yrb6a0BQlYHVgiZJwrQSsJMhra6gSsDwmNJju9OyCC0jQn0BIy8vPmHmxYdHpWFtRFUyG46PyfN2djiQ0Yz70bzMGZmVl3rFta/5ZhLZviHGhK+ygooNYlsUSa0xO9KkAji+fUFQhU6PhpW/tHTYzPgRz1nb7IH6N9bwVOW8OcfjAOWeP+tqJpzFTy6Yz+CRP1HfZYrYAFWdaWWDMMil6xfyzjvpS3TboVEn1ebIMKAErWQYTG68ErMR4s7tKhrIHHU5Ce4QIP0vYS1AHNjbOavmTTVv/wux0ZUz7wkNQk9wZF9sCHdGrRlWFvcunLsioRc6gX4eE9niQMXqPTQlY3nPqjUclYHnD43YvSsDymNCAuus3YD89FP5buh4jtJhviqL+YVRX2z020+7pIGkl7XjYDripoftDBDoDQMhtJo46hE+MM9ju7fSv8rPGFu/4FTZ+dkdMm3MxmJ50y0GQ7SXory7/fP4AlJTEl8ZKS7Ux0X7LGDgo4V5hTs3XEyDSXrQQY144TBfPLC6ym/6qRzHQ4QwoAavDKW4zgBKwkuI9pOUWnimIHyVQ36Q8qcH+M8BcGak1DsaW1ev8B+OAICd/z7AQXwUep6cAlYDlKZ0eOlMClodk2q6UgOUxocF1p+flPw7QeQTasdkjuHBbImtgmKOMqlXvpePxQTsRifV8elTCS5RNPbEeIVgnMSicsECR7KzwuDoMXgOhlcz7tPwJR4GmkVA6YtqcUjCdbnPgKM55WQRJXx5TZKc8r/ysojFO4UdPmTdYhMwZAH60k22CJCWbR0y4AkwwFouQfvGc8aMCfZW4E7/q8/RiQAlY/tRLCVhJ8j5gQJdQNHwdEV9DFLsVLtk/xUkCUsMTYYDBWw0ToxHQxu1t5aTnFX5CwJBE8k3PMUrACmrdlIDlcWWUgOUxocF1p2UPLtYE32PfyBtclG0imxlpiPwKG1evTDPc2+GqL2vtVG7Uc2/1D4nwowwcDyAzGRGrZYgE9Y0mOSm5adYkcvyXLetX88458l0Zb6OnzRwkODQfoEIZ+7S3If5r+YRxlzrlMXrqnLEC9BTYvpUpscerl69ZvGLmJcR0cdnEsZ8lhkiNUgwkxoASsBLjLdlRSsBKlkEA/Qr66xqVgDCR7N5P6kkrBpix2bKsi821K0vTCXgoL/9PAsK+/amTPErACmqhlYDlcWWUgOUxoQF2F/v+gOkAhlO69ItktizGdVGr5kmsW7clwOzGhebVGjpd84+LOyZiUXgyE46LiVjNzSo9Zi0pUas5A3lMDQC/CojLy88qctxqP6akLIT9cDqYnwDQc7csdIukmHHlvLPHPuKU5+hp8y4QbN4JRp6Trf25fHlkvLXa2keI2uIVjOivyicd86mkB2WmGPCMASVgeUalK0dKwHJFV/vG/fbcV9esW0F2T0Pq4pFX5aaDGbCbtjPRg9Gqb27v4FDeu8/L219HxnsEspvmd4JHCVhBLbISsDyujBKwPCY02O703II/A3QREeyLUAL/MGMtW9Zp0bUrFwYebByAnq+r05mMtrDbPbEsFvcx48x2f53tIBY9EbbaUk+Yq5no4Y1R45EPzz3GsXnboc/P6JEpMm8m4ArYtxbtjk8T2QbE2EVnjylzSrFo6ty7mHFZa1Gvg6ZCYzveth+LmWcC4oryiarnlVPd1Ocdw4ASsDqGVyevSsByYsjF53n5Q3SmPwI4sek4oYvByjTVDDB4HTH+Gqk27gZW16Y6vhfx9Nz8WUTiKC98Bd+HErCCWiMlYHlcGSVgeUxosN2FcvPHCRJPAWlzG+H0CHAdqiqkLnULKvsdtt4OasKJ4Io1drfoHvr/7d0JfBTl/T/wz3dmZ5MAgmggiIEEta21h231X+sFSTg8alttf6BV5BAs1lrE21atq8UDtba12paqIIhHobb99RA5coBX21/todYDL4iKCUEuUcjuzvP9MwEtKGRnk9md2eSzr1pf7T7zPN/n/UySzSczz0DOwB6eTrhLvzlUDSLUUvH2S9KnodbFDS8tq/OxH5YMvW/xQYLYz0UwoiOGoR2TBZiqmnSrO+jxSaNWZ6q36t7aB8SWU6A5CvR81C3bH5++UFw9v27C8G62IWymFeL7+RRggJVP7f+OxQArWHentOILYsvlKvplXokVrG2QvSl0vUDuTL6XnoFNb6wLsu989hUvG3QaYM2DiJ3PccMZiwFWOO6ZR2WAldkoqxYMsLLiKvjGpaV7ObGef4TiGIn493JVpABzUQqtswr16YPvny85jFoK/pTcZQJHzV3Uv9iOXacq3iOanaxmlydlH5nHB2W3ncRiHkil5NonfIQfh8yfH++X3vc4KLwnNB6w2/nnYp7ZTCqrRfloYwHW1L+0fL9Mgd5n5y7quU/M+RMUw4LaG62dK6x2T+2FVyK/t5LmktqzRrzayanzcAp0SoABVqf4OnwwA6wO0+3xQKdf5edg4TIIThagm9zeFbxjrnr0rrxSxb1p19yCta9n/GNTruoIpN+BA0sdN14rgs8G0l+kO2GAFdXlYYAV8MowwAoYNPrdxfpXXCUil0T+NkLVl43rTk6vfWNZ9FXbrzAXkUOhm+yx/mPnL+8Xa01dIyKTAMTfb5h1xhKC+h5qbAb0FiStuxomVm/ItHBHzn9in6JU67kKvUSA3pnaF8r77y+HAssazqjJ+ATCYx5c+nEnbT0AwRc6PMcsT5pdTpnt4dUCK2Z+UHvaCD5tsMOLwAODEmCAFZRkdv0wwMrOy3frskGfdsS+BIpvimT5Byvfg7Bh1gKqqw10bjqV/jnWrX6jsw96znr84A9wnAEVUwTyUwBW8N1HqUcGWFFajZ1rYYAV8MowwAoYNPrdOf0qPi8W/gSR/XKx7XFwAnpvUnE1mle9Flyf4fQUQpQSzkSDGvXouxcPjBfFLhPoOYB8EGLt3H+W2cT2Q0NYCe/pdRA8DcjlWLFsaUMikc7kdPS9dZ+ICa4Vwehwqs5UYcc5VXFHw9ia8zKNUHVf/QhRvR2CT2Rqm+2VVRlPBVUDlQfTsKcvP3PoCxDp0OmWsW42oEAWAgywssAKsCkDrAAxP9xVv/KPOVbsXIGeB5FYDkdi1/4EVhnVu9JpdzbefuNNf4cUQKs+gw9wiqz5YuGwAqi2EyUywOoEXk4PZYAVMC8DrIBBC6K7uFNW+SdAa6J6G6ECWwC9NNXk3g28saUgVNspMoTYpNDJIENnLSq3i5wLRPU7ewqxPjzLDqcMuV+hNAS/TaXMVY+Nz3w1z2EzZzq9e39sFAxuAnBIwa/mThNQkXMaTq/2nrbY7qtq7tJJsKyECMp3adjBRfa9xF54BdxvND2j4dVRzyEh3v/miwKhCzDACmcJGGDl2L1f5YCYhQkCvUJEeuV4NHa/RwF9XlV/mTLWfLSsbOpaUJXFTpmeISJ3dNmH5LQtGAOsqJ63DLACXhkGWAGDFkZ3zoAK7wKImwRSEsWKVfG0Qi9IN6+qi2J92dbk+3fnbDvu0u1V5aj76wYXQaaKwjthd3slVnsGHcw6tncZ/Kp5j6K+Ma2xmY+dcez6TGs3Yv6SPiZlXaAi34Vin0ztC+b9GI6pP7Xm8Uz1Vs+ru0aB7wrQN1Pb3b3foeXzwiuR+9Ip9+blPdc/hzFj3I6MzWMokAsBBli5UM3cJwOszEadbuFt0Co9R8OCF2Ltfv/HTg/CDnYv4D2oBP820BvcLViKjY0ZP58UpOSAAZUxLbrVEjmlIOv3VTQDLF9MITRigBUwOgOsgEELpLuBAwc7Jv53AfpFsWJVnZVKpq7B+tWNUawv25o69Lt0toN0yfaJhFVVccRgiZd8V9R0KMT6sEunQq33O+vgiiqw0qhOsV626hoS1RlvJRx637KP2WJugDGnQKQr7N1gtIfs23BK5r3AqubVzxaY0/1cfdfB5dj11GgLr3B/Guamsvj65xYwvOqS31IKeVIMsMJZPQZY+XIvL4n1l2NFrMtFpDpfo3bncRRIQvUxFflhuin9165wy0M76+nY/cpHWJZ9h4gM6ZrrzgArquvKACvglWGAFTBowXRnxcsqfwNB5P4QoYp3AHNFqrnxl4D3JMLCfwXy+3XhM3RwBomEVfOxYwdBrWkK/Y5k+3RCn8MGEmxlDLja9laqF9FJdWcMX5WxtNHz7aqv9TtBLJ0OxaEZ20exwU6wCrzeMLamItOmsCfMe7j3Vi16ACIn7HwtXM6+kLZfefWgMXJDQ3HL87zyKoonEmtigBXOOcAAK6/uMZSVf9IR+xxRfIv7YuXOXhUboTovZayfYe1rrwDI+Ee13FWTp5779u0TK9r7Wxb0h13zVkIGWHk6k7IehgFW1mTtH8AAK2DQwukuXjboVIj9YNQqVujfVXFZV7l90PPN2e/dUVu8nNWjKkfPXToobttXQ3FmW4iVJ9VAg63tQEkoZmiR3NQwpnpzJrOq2bOLJVZxCSxMBVCaqX1e3u8wirW4fmzVcZlqHHV//cEp1TtFcUymth1+/79z8Pa4+o2Iuab2f9e9iAW8bbDDpjwwpwIMsHLKu8fOGWDl3d3CgAH7OiZ+Cizr+wJ4f/TgKygBVe+n32oYvTCZ2rQYGzZszPRHpaCGjkQ//Qcf4ABXiWVNiEQ9gRbBACtQzgA7Y4AVIKbXFQOsgEELqDtvywG7V6MI9o5S1W23D7q4EmtXvRWlujpTS56ils6UWBDHytFzlgwqsu3pqnKaQJ2PVJ1n6Y7mOAp5R6Cn1L+8vB6JRMZNwqvury+FmjtF5SQABfukJhH9ad0Zw6dlOtuq5iwdYVnyI4h8NlPbrN7/6IJ59ktNOnV+w4RRL/Jpg1lpsnGeBRhg5Rl8x3AMsMJx9/a9jPWvOEzansgrw/nHwGDWwaj+2TbutNaWN1Z2i6uuPsomGDDocAf2jwQ4NhjVqPTCACsqK/HhOhhgBbwyDLACBi2s7uJlFbMgMjEqVbdd0Qzzg1Rz48+60h+E8hyrRGU5c1PHsfcu389B+icCfN0Lc9oNkaIsr1hh0nJEw8TM+0F5ktXz6o6GYCYUn8qN7O4+5QU7kgqm1J9R86tMvQ6fVz/eQBMCVGZqu8f32zkxvNNCvf+oLDcuzmmYWP1Ch8fhgRTIkwADrDxBf2gYBljhuH8w6t6Ve8eKcI4FTN32M3C/kKsp2OEVWG+gZ7pNqx7uSh+wO7ogdtmgr1qwp4vgMx3tI3rHMcCK3ppsr4gBVsArwwArYNDC6q54QOUwAzREpWpV/EsFF6SbVkampiBsohyjBDG/vPcx8oHHBpp06jYoTlJBXNpu09yeWHT0qqh83ZK4M5YK7qh31p7vd8+lqnn1F4nqZRCUbp9zAb1E1DXusGVnjng0U9VV82qvsIALAdn16YsdXNztUNv/2wuuBPCeLvhkyrGmLD9t2POZ6uH7FIiCAAOscFaBAVY47h8aVZz++39WxLlWgWGA9hLAgkhh/RzMM6Vq20ayWwHclXp3y43Y3LwmzyVEeTix+w0aY1nWVQAOFhE7ysX6q40Blj+n/LdigBWwOQOsgEELrjtxyipfEUHoD+RQVd32h5CHku+5U7DpjXUFJ9lOwfyAlYPVPPruxQOL47GbAJyskB4fDXT+m3Z0MPfYXnVuVy8N1XF1Z9Y8CEjGMo+c/0RJSXLLrwD5HwDFOWDNXZcirSJuRe3pI5rbHcTbtP+gY+9QlUkd2bD/v8v10YXbHl5pSmE1mHTr+Q0Tj+OVV7lbcfYcsAADrIBBfXbHAMsnVH6axWP9Bw+1LOtiqH5GgQHSNZ7QG6ieAlsFaFbVpdD0z1Jr3nwW2/9ww9euAmL3qzjBsuRSCI4QoCjnn/pyugIMsHLK24nOGWB1Am93hzLAChi08LqLDai8xgJ+EHblCrQozC3ppkYvk+hSr9xGIF2KKrvJfBBiKU5RkRJ/VyUFFGy9X2rnV7cpbdya5eNG+roSqOr++oMto/dB9XMooA/uqliRTL5z+OOTvvZOe6t85F2P7FNS5MzcEdLtsemu7P4WQdsea6r1bXteMbzK7ouNrUMXYIAVzhIwwArHvd1R99mnt+30OMmCPUlEhkC1opB+HuZKVKHvCuQNqD5loLPSzdbjwErvCiy+2hFwBpR/UWFfJiojBLpX4V7ZxwArqic6A6yAV4YBVsCghded06/i87DxuEBKwqxeof9U15yfbnk94x1GYdbZkbH9/XbdkZ55DLaHWM4Mhf6PQDpxVVInb0Fsby0ynAEqeEhFzmk4vXqtnyWtnld3OhQ/EUE/P+3z2mZP15FZ8seNmzef9tSUr7zXXj3V99R9CjZ+KoC3aW/bq72rqvzPTQygiw10Wv2ZNS/6P44tKRANAQZY4awDA6xw3H2N2rdvn3jR3qOgZpx6eyaKfGzHVTS+Du8ajdpuYNgM0Zeh+jdVPJTWLU+ipSXjU467xvwDmsU+Awc5jnMB4D0sRw8szCv7GGAFdDYE3g0DrIBJGWAFDFqA3fXr18uxez4c5sM42m7TF/w+ldw0GevWbSpAxXZLZoCV4xUdeffigSYeu0FhfXO3Tyfs1PgBX7G1m1pUsGXbluJXa7n8uKG6Op2p3MNmznT69DjoZohMzenl7hlvasxU6c7vyy2N67dc+fLUE1vbO2rkvLrhLmSGKA7Lpvf226oBZBGMO612/IgVwfXLniiQPwEGWPmz3nkkBljhuGc1at++fWJOry+J2KdAcDCAQwQozenPx6wKDL6xqroi8B7X7d0e+KxxzR/SLe5TwOp2/0gUfCVdqMfy8hI7ZZ8iwGiBVIugT2HNjgFWVNeLAVbAK8MAK2DQguzOccoqzxXBT8KqXrXtVv2b0mtW3RpWDbkclwFWLnV39H3svY/s5yB+HSBjO7J3UsdL7HzA1fZEPGClqE6uGze8zk8t3pVnRUXOb6B6pJ/2obdR/ZYZZM3OFNANn1c/FqrXAHJAMDW3hVd/sNLWpUsmDnspmD7ZCwXyL8AAK//m3ogMsMJx79iolcVOP/2k2qgR4FCg7am9BwukR8f6i95RqroZIv+A6gqo/l9KTR1a3mgEkIxetQVaUd+Bg2NxZ5wlOEoVx4pIr8KYCQOsqK4TA6yAV4YBVsCgBdmdxPuXf0Ytu1Yg3h+s8v1SVTyTcnUi1q76R74Hz8d4DLDyoQyganb9ADuGhCrO+iDEioT+7i9l2vn/FSCpootjJjZ18bhhr/khq5m7rAaWey8UA/20D7LNnll3/4661rC6lfWPIZEw7dVRfW/DJZbicoju+gTCbIr/AFaNWPIQTPrqpT73GMtmGLalQD4FGGDlU/u/YzHACse9k6PaGDBgn5hxvmCJdbjCe1KRfBqin94RZkXik4HfOSp0HVSeguhLavAqgCfSrfoCNjau99sH22UtYMfLyg8xiJ0E0cMslaMhGJB1L3k6QKHvieLHyeZVV+ZpSMTLKqaryMVh37arig2W6FWtTatuz9fcsx2HAVa2YhnaM8AKGLRAuysr6+9I8UMCOSbfM1CgVYA/JJswrqvuNVlQH5TyfQIEPV7VvPpy2+BygZyt0Pge+4/aqsi2mwgVG6H6iw1b3p2eaa+otnklEtaIA4depMANAAJ8BHSwOKp4B8Z8vm7C8FfaW++q+vqYvKEzBPJdX1fRtXOLo0CNQua7wHUNZ1b9B5L5KY9Bn4vsjwKBCvTvX+ZIj9ME2jPQfrPuTI1oRPcAACAASURBVFTFvJlqapyb9aEFeIDdb8ho2zIfC7t0BdakRJaiaeXKsGspsPHjKK3YNxZzPy6wPy2q5YBUqMgXBPDW1YrafLzN2AG8CCNPq6Wvi2IVXP1XKmle62qP6Y6a/W7qcVA65ABH3C/BkkMh8gWoHi4ioX4f9gIrqKyA6DOieF3VvJESfQzNbzyTL9NYaeUwK4YvQTXAz5/ZVy+KVmObZam3Xv979kfn5wi7bMhXbeghgIb6/UYhW1Ku9WesfbXAt9MY2MMus0fYsD6dnxXc8yhGkEwn3/lVV9wDKWzbjON7exfGnSUC+UTGtgE38D6TbXu4/TWpplU/D7jryHQXbBoQmWlFthCpuat2sF1sX6gG57QbYn14CqGvlLfROF5WxZV146oW+BEefufSMi2yfi4iX/fTPow2CjybQuuoR8883tuvY4+vY2c93C/u9LgFgjO33Ua462pksR+XF14B1oOq6Rm1Jev+gzFj+PjwMBaeYwYtIMAhDpAM/TsV8LL3vSoV9AQj2p8DHBTqLx3bXV72vgt6eyS2exVrRA2jUpaNvffeq8jpVeqKNUQElQqrVNB2Zc0nRfSTUAyASCxfBatqWkTeAvRZVVmhQJMY85ZCX0un7EY4765FS4sXaGXxUzBf1XercWzsNbCv09M6AIh9SmAqATkEwOGqKJccnjPqfdNXb78zfUahL2/7bNukgrfEshrTxjQivXkt1q3znvCc73PEBg7K29dK+2fby973xih/1osBB4Ua9G33iyvwXFf5ORIR07afz+3u79utvlPmb7K23b/iZEvwYC6//+5hOt732hclnfpa69o3CzwM3vOCReCXjfydTZEYSVVG3bu40pX4+aLybey4EqtTP9nztoqaBKRWJH3Z0rEjM/8lzbsK66ARXzQmNVu2b14bxdfvYdzJteNHvN1ecd4TCMXCTQI5MdtJ/Hd52q68esCk9ObSvdY+u4DhVbaUbE8BClCguwjYKC3tAfTsFbfdUgO7nyr6WqL7eP+GoK9AygSyP4D9AN1XRfaGaomI+PpUoMAWUV2nkLXw/hGzWhSNRrFBRDcagw1iy1oLuibpWm8D725GS8uWiP8y3l3Ojz3NM4Y+fbwgtJ8bk4GqMsCC9BOxStVgMCwcIKoD1Tt3BHtlxlJXIZsAbVZFkwCrBdJoBOvFmA0G8rYYeTut2gx7yzqskc1As3eOMMzOjMsWFKBAlxQoL3EGWLMF1qn5np53+yAUv0s1rzxzxx8W811CXsbz9SEnL5V0p0ESCWv44GMq4dhTdw6xdkfQqWDr/Q6DXeWNBnp3MhlPPD7pGO+vau2+qmbXF9s2zlDBzwQoydQ+3++rwS3vbtzyw79OPbHdR4wOn7O0WsS6QSFH7K7GzMRqoPi1m8YMfV3+05DI/ETHfFtwPApQgAIUiLSABRzkYJ91RUgVx+FIMSz0cKx4CaxUkbpWHMYtUitWBMvEbNjiqsZsS8W7Vd11xYUYFyJpMZqCaqsYbRUbW8U4ra1u6xak5V0UtSaxdq238bp3JSODiEifEhmLi2HgwDg2W8WImZ7xIqeXplCilpZAUKzGFMGSGNSy7e23rCq8k0RMWlRTsLQVxm4VxdaUkS3wzhFX3oWzNYl1vZPASu884TmScRnYgAIU6C4CRf0HHWgs+28CdHzP5A5ite1L6eqFqZbGOR3soiAOy/x7d0FMowCLTCSsUQdUVxi4FyjkHF/7Ku00zUCCrQ4kMd5TCQXymqp7ed244b5uJfSeSlgcd34AYEpeV8oPki1T3KTObZhYvbW92qrm1J8aE0wHcFD2c2h72uACVft697W65xoSCe8Sab4oQAEKUIACuRDwggjv8937n/G8f7//E9H7987/5GJ89lk4Ah8+V96v3DtHvGDKzyepwpktK6UABSiQYwFnv8oLRPGjnX4G53jEHd17O1Z7f1VQORJrXmvOz6DhjMIAKxz37aOqStU9DRW2hQQEp2cbYrVXeo4/cbgq8mcx1lW144c+nZEwkbCGVRxzWCxm3wHg/+22fY4L3lONxuiI+j+vbcCC9veiGnFv/XlQXAugb8b57tJAjIj+VhTXLC5ueZ57XmWnx9YUoAAFKEABClCAAhSgAAUKQcDZr+JfonJovmtVRQqKB1JrVk7o6n98YICV77Pro+PJqLmLKg2c6QoZI0BeN53sRG60Fao3u0ZubZhYvSET4yHzn433f69ltC24A4I+mdrn4v2PnuyyPg0d2jCu+tn2xhs9f769obX/1armCkCy2DDZ2/he69Ryz689Y/jzfNpgLlaVfVKAAhSgAAUoQAEKUIACFAhZYED5Fx21nxCRvD8YwXtKsDEy1l2z8vchK+R8eAZYOSf2N8DIBx4bqKn0jQodDaBo2xU78sHF//66CKNVswLTaotbFvi5ssh7kp8TK7nQAi5GnoO63eGo6lOqemrdhOGvtIdXNbO+NFas10Pk7IzI2++x9HJBV1TrkHSnLT175PMZj2MDClCAAhSgAAUoQAEKUIACFChIgfiAilmATAyp+MZk08pPAGh3W5yQagt0WAZYgXJ2rrOqefXlMSMzoOZkFSlpC7E+/IrYiqmi3hVc2nBm1VN+rjAaMWfZ5yHmVqgOhWRzNVPnbHd/tCwQJzZtyTePWd1ugHVv/UEx1VsA+dou7XZz+ZoXXnkbn6rIMljutNqxI57LReXskwIUoAAFKEABClCAAhSgAAUiILB35d5OMRoFfp7wGny9qvqzVPOqqcH3HL0eIxaHRA8o3xUNnbVoUNx2ZgDyVQA9st4ALt8rqmq2Pc77p2lXbmqYWN2U0Wv+fHvEltLxEFwNyKCs55dxAP8NVPXm91LJG5+cfPy69o4aObf+cFXcBuDIDL1711+lAFnuqk6rn1DzH//VsCUFKEABClCAAhSgAAUoQAEKFJqAs1/FZFG5M4y6VdVVY6rTLa8/Gsb4+R4z33FHvudXkOONmrVokHohluJrbVdiAdKJvap2NcjNiq9Xdae6xv5Npqf5ecW03ZJXhCvUkkkC3SuURVLACL69ccvmuU9N+cp77dUw/N6GkWL0FwAO/HC7nTkVSAPa4CoYXoWyqByUAhSgAAUoQAEKUIACFKBAXgXizoCKhQKpyeuoOwZT6CupplUHo+130a7/yk2c0fXdcj5DL8SCXXSjgX5dgOJMAwYWcO1uIH9nyf8ZNefV/entpzI90a8txJpbf3gMmK6KGhE4meaX8f0sARRIGdGT61+tfgQJb7P1Pb9G3LNsjIh7JyC999yqrY+lad16Yf2E43nlVcYFYwMKUIACFKAABShAAQpQgAKFLeCUVnwBttRJSA8qg+p1yeZVVxa2ov/q/UUT/vtjywAFTphXX552cYNCThVop0KeLPOd7GfhbVyuMtuS1u8tHnfcmowdJBLW8Mph3xTB1So4aLf7fWXspFMNmlxXT64/q+av7fVyyPz58f239jsbKrcBuocnEKoRkcVu2r2o9izuedWpVeHBFKAABShAAQpQgAIUoAAFCkQg1r/yRrEwTYCi/JesW5PGOgJrXns6/2OHMyIDrHDcfY9aM+eJ/W20XqfA6YIArlTyPTLaHqWX5etdAS5at3XFrKemTEllOvaI2x7u3WvvHldYqmcr0DdTez/v+z+h9W+plExqmFz9bHv9Dp+zdF9LYxdB9Hu7b6cGKn8WxaWLJ1a/4KdGtqEABShAAQpQgAIUoAAFKECBAhfYa/99nZ6xJVAcKiE8oEwVf0s1r/T2aW73jqICV96lfP+/73elWRfYXGrm1O5vq5VQYHwgt9vlcP4KWQFbxy8dW/0XP8OMml1/sFr6I0CGI4+ptQoWJJG8bPm4415rr86hc5cNiat7jUDO/Gg79b5R/F5SqasXTz6u3SDMjwXbUIACFKAABShAAQpQgAIUoEBhCNj9K75hWfilQErDqNgYvSS9ZtUtYYwd1pgMsMKSz3LcEXOWDBaNfU+BSZEPsVT/jFb3jKVTRm70M82Rs+tOhCU/VeBAb8N6P8d0to1R86OkcWY8etbQlvb6qr677tBYDLdue7Lghzbl88Ir6zcG6etqxw1/BhLcPvudnRuPpwAFKEABClCAAhSgAAUoQIGcCthOWcU9EBkdxu2DCmxKJc2RWNf4XE5nGbHO8xIWRGzOhVqOjJq7qFJN/CIFvhXtEEuTEOu6JeOqrvWDXTW7vjgmuFhELgG0nY3S/fTmr41CppZs7XX3H6cc3u4TCEfMqT8G0LsF8vG2ntvuq1TjXcElRm5c0rPlGYwZ4/obla0oQAEKUIACFKAABShAAQpQoOAF+lV83rFxHxQHi0j+cxXF4qR59xtoadlc8JZZTCD/0FkUx6YfEkgkrJrKY4fYsKYBmIJMe2KFurqyxlgYW3tm1RI/61g1u36AY8lMQE8EEPNzTCfatKrqGUtXLv8dEokMTyCs+zJEHhRFL2888cIryHwV66b0a+aZhkR1t3hcaSeseSgFKEABClCAAhSgAAUoQIEuJRAvq5iukPPCevqgGnw7tWbl3QAy7j3dleBDjTi6EmTe5pJIWCdUHjsk7TfEylRYDs8AVf1LWuWUhonVTZnK8N6vvqfusBjkdxAM8tM+qza77EgvrxvB+NrxVfXt9XHCbQ8Xub1Lxipwp5ddeeEVRBYYWDMYXmWlz8YUoAAFKEABClCAAhSgAAW6hEBR6f4fN3ZsNoAjRMTO96QUaEmldBjeXvV8vscOe7wcxhdhT60Lj78jxHJVLlSRs3f3dMIOPEGw42B7Pou2KnTW0vE1571/8127g8yfb49Klo1X13hJ8q6vICek+IuInrd4Qs1T7dVzzH2P9u2RTp8PxdXebYMQecik0jek34jxyquOny08kgIUoAAFKEABClCAAhSgQMEKxMsqrlDBBQLZN4xJqGJB6r3Ut/HOm2+HMX6YYzLAClO/c2NLzZzagTG1rlFg3O5CLD/dB5kL7SZzUgHWKvTipRNq5vqppypRH3OG6F1QGe+nvd82O5/o3i2A0OSVSyaOeqm940fNWjYIljsdwFjvyqttDydNLJ5Q9SI3bPerznYUoAAFKEABClCAAhSgAAW6joDTf/9DIbE7ABwVyt5XHqXRsck1qxYASHYdWX8zYYDlzymyrU64s748HdPrIfJNyf3eUVk76PZtz/8Dx/r6kjOGtRsYvd/50Xf/7149rN7PiKAi6wF9HCAit6aT6Ztqzx7R3G6ANbv+YIj5OSApdezz/NbvowQ2oQAFKEABClCAAhSgAAUoQIHCErCdARU3eftRC6RnSKU3JlN6fHe8fdDzZoAV0lkX5LBtVwqJe6OKfB1AkURvXbdC5LfvlMQnPznmqC1+5j5q1rIa2PonqJb4ae+3TVugpnrx5vXFv3jywvZrGTl78ecEsXNhy22Lx1U/63cMtqMABShAAQpQgAIUoAAFKECBLiUgdtngL1uwrhPBZ8OamaremcLWK9HcvCasGsIclwFWmPoBjl1zV21FzLZmQOQrCi2JXoglq0X0hrVbV8x8asqUjE9K8DZQT/cuvhaQCzp6e+TueBXYYlk6edG4mvsz8R9x28O9e/WJD6gdP2JFprZ8nwIUoAAFKEABClCAAhSgAAW6qED/QQfGLft6qH4DIWzc7qmqIiXAmcnmlb/rjrcPegYMsLrQ11fNfY9XxNLJGVCcpEAP0R3rG4FV3nEr4VOATlsyoeYJP5u618yp3d9Wax6AYUEFcgp5VQTnLR5ftbALLT2nQgEKUIACFKAABShAAQpQgAK5ECgt3SsW63WxKM4XQZ9cDOGnTwX+KSY9Ibnmjaf9tO+KbSIQbXRF1vDmdPzs+kpXdYaIdRLQdvtdx9a4Y0dlmvhWVVmQek8vbfhOdVOmxt6G7vEDzFAY6x4AgzK1/+D99namFzxuFBcvnVj9F9/9sSEFKEABClCAAhSgAAUoQAEKdEOBgT3i/Z1TYOGHgAwJDUDVGOiM9HvpW/HO6rWh1RHywLmJKUKeVHcfvmp2fWVccSMEXxOg+H2PXD5x0L+5roZY04tae83545TD38t03IiZS/pY8di3IfI9qPbO1N7H+w8BuHLxxOoXfLRlEwpQgAIUoAAFKEABClCAAhTolgLlJXaZjLRgf18ER4RJoKrNxuAst2XVI95zCMOsJcyxGWCFqZ/Dsb09sRxLblDIaBHEOjpU4KGXQAV43Bi9cklj9aNISMYvvpqZtQfaRfb1ouYbgNh7mouvk1lxe9p1p2d6AmFHvXgcBShAAQpQgAIUoAAFKEABChS6QFt4NcqCdYmIHNXhO5sCY9CHkun097H2zW69P7Ov3/kDM2dHeRUYMfPRwZaTvg4ipwrUyevg7Q/WCuhcgVz/yMTqlZnqaruVsMKtFtg3Azg0U/s9v68GsK5qhd7aMLF6a8f74ZEUoAAFKEABClCAAhSgAAUo0CUF9jmot+OkRkNkigCHhx1eKXQzVL+fstN3Y/XqjHcxdck12TEpBlhdeXUBjJq1bJDAvUZFxgb5NL8A2JoUcr3tFM9ZOPZLmzL1591KaMdjE6G4AoLSTO13/75sgupFi86qvqtjx/MoClCAAhSgAAUoQAEKUIACFOiqAk7/IYeqmNGWyFgAFVGYp6o+oYqL02tWPRmFesKsgQFWmPp5Gtvb2F2h31fIhGiFWPoPVb0k2Wgtb0hUpzNxDJ+19ABb7OsAfKOD83jFGHPJkknDvceO8kUBClCAAhSgAAUoQAEKUIACFEBx/8EHuGJ9RQQnqOoxItIzCiwKbFXVW9Jb9VZsbFwfhZrCrIEBVpj6eRtb5YR76g4wal2swKQOhj/BV6tIA7pARL7v51ZCjJ5vjzq+/yixjPcEiMOyLkjxJEQuWzSx6tGsj+UBFKAABShAAQpQgAIUoAAFKNCVBIpjpeVHwLaPtYAvqcgXBegXpQmq4t9qcHm6ZaW3eXu3fzHA6i6nQCJhjayoPlDUvQAikyMTYgEbIfjhhk1b7vzr1BMz3kpYdUd9r+Ie8m2FXgBgv2yWT4Hfu+peUXvWiOeyOY5tKUABClCAAhSgAAUoQAEKUKDgBWzsM3Cg7cQ+Z0MOVeBTEHyi7VZBRV8RiVY+ouqq4JcptF6DpqaWgtcPYALRWqAAJsQu2hFIJKzjy4YNNkU61RLrO6oaz8orR2eLAm+q6PjUSlnm61bCO5eWxWL2jQqcJopiv3NQYKYN+6qFZw3lF79fNLajAAUoQAEKUIACFKAABSgQtkB5eUlsa+yLIvoZY2EdBOstlfUpN7UOW9MbYG9NId63CI4VB0wPpEypLdLPAvZTyGDLwn6qGCyi/aHoo5C9AO0hgI2oBVfvWytectW91F3z+v8C0LCXIArj5yiSiMLUWMNuBVSl5u66wY5leVcwnetdiRX2V4ICKsDjSNljFk0Z+paflRt5d/3hluB2CL4IRcbzWKBGFde1vi7X+gnJ/NTANhSgAAUoQAEKUIACFKAABSiQB4G99t833tP5rirOh3hPlxdXFC6gBiLujoBH2n61VFgKsSFqQyUGqAMRG6qOiFhhP1XQl5ZqWoFfp1o3nocNGzb4OqYbNMr4i383MOiOU5RRsxaVi8avBTBWBLFcIGQTjAngQnGzvLslsXDqia0Z6/GuJisfdjYsXAVg/0ztVbERaq5cNHn47Zna8n0KUIACFKAABShAAQpQgAIUiJDAXgNL4yXxi2HhsghVlctSVriuucJtafxNLgcptL4ZYBXaigVY74l31Va4ln09VMfkKsTKrlxJCsyohWfVLPNz3Oj58+Ob3ul/pwhGA1qyp2ParvBS1AJ63iOTal700zfbUIACFKAABShAAQpQgAIUoEBEBLpRgKWKlPews1SzTAJWbo3ICkSiDAZYkViG8Iqoml1fWeTqjRCcDJG4IPPteLmsVkReSiV7/b+lUw7f6GecUXOXDbHSrpdKfw5ouxz0g5cXXEHhishyVXPhokk1//bTJ9tQgAIUoAAFKEABClCAAhSgQIQEukmApaoqIi8aFxfwyYMfPf8YYEXoazKsUkbduWwIbDPDAk5SoDjsEMsI7rbf2fIdX7cSAhg1q/5US/HjbU9oGPB+7QpRqKYheNw16QuXTh75z7B8OS4FKEABClCAAhSgAAUoQAEKdEKg+wRYmyGYk2padT68bXb42kWAARZPiDaBL8969AAX6RmAnKhASfYhVjY7XmVC9zbls8Y+0tjwayQSJlNrePthDa76sQLfEqB4x5VXaRE8LrZcuHD8MIZXGRHZgAIUoAAFKEABClCAAhSgQEQFukGAparutjuj/pWCjkNT43MRXYlQy2KAFSp/tAbfKcT6MoBiP0/32+MMOnNmeVmY4BVNm68t+lbNf/woDb9zaZljO7+F6lEAvCuvHlO4Fy06a/g//BzPNhSgAAUoQAEKUIACFKAABSgQUYEuHmB5tw5C8Pa2pylenWpa9fOIrkLoZXUmZgi9eBYQvMAJM2sPVMe+QVS/CkjRziMEeY2Vj8pTIvLbLSlzXsOU6rU+2uP4e5YPF9fcq8ALEpOLeOWVHzW2oQAFKEABClCAAhSgAAUoEHGBrh9gpQH5bcrdPBlr174T8dUIrTwGWKHRR3fg4bOWHuBo7AYBvi5ALKxKFdiogmtaUr1uf2rK4Sk/dZxwZ/00SHrZQu555YeLbShAAQpQgAIUoAAFKEABCkRfoIsHWIA+py7GplpWcfubds5GBljR/1INpcIdIdZ0UYwWCS3EMoC8oILvLjxrWJ0viETC8rVvlq/O2IgCFKAABShAAQpQgAIUoAAFQhfowgGWKjZBMC3VtHJ26M4RL4ABVsQXKMzyjv9FfaUUWQkYc4aIhHIllgJbAV3omuRFi88+7rUwPTg2BShAAQpQgAIUoAAFKEABCoQg0FUDLIWroj9JNa26AkBrCLIFNSQDrIJarvwXWzOz9sDiuPU9NTJOACf/FbSNuBbQ2+30Xjf/ccrh74VUA4elAAUoQAEKUIACFKAABShAgTAEumyApb9LGjkXLSubwmAttDEZYBXaiuW/Xjl+dn2FGL0QsM4JJ8QSA+gKFUksPGvYr/NPwBEpQAEKUIACFKAABShAAQpQIDSBLhhgqcGjYplzkk2Nz4XmWmADM8AqsAULpdxEwho++JjKOJypMHquSBhXYkkSwBIVuXThWUP5BR7KicBBKUABClCAAhSgAAUoQAEKhCDQxQIsVXibtp+bXrvyUQAmBNGCHJIBVkEuWwhFJxLWqP2rK2KC80XwbVWNh1DFO1D9kW4p+fHCqV/aFML4HJICFKAABShAAQpQgAIUoAAF8i3QhQIsVV1pXJ3qrm1cBMC7UIMvnwIMsHxCsdk2gUTCOr5s2GA7JheqIO+3EyqgAFYYkUsfmTTsD1wTClCAAhSgAAUoQAEKUIACFOgGAl0lwFJd7UIudJvTfwDe2NINVi7QKTLACpSzW3Qmo2YtK4+5eg0EY/O8J5YLYIHY8oM/TRz2UrfQ5iQpQAEKUIACFKAABShAAQp0d4GuEGAp3nLVXOquMQ8xvOrYCc0Aq2Nu3f6ok2YuGWxiznQoTstPiKWuAo+4wLRFk6tf7vYLQAAKUIACFKAABShAAQpQgALdRaDAAywFGo3icrd55UO8bbDjJy0DrI7bdfsjT/rFE/urk5yuwGgAPQQI/HzybhsUIKmKJVD7ooe/deyKbg9PAApQgAIUoAAFKEABClCAAt1JoEADLFV1AXnOqCbcNau8bXDS3WnZgp5r4IFD0AWyv2gLHDfzkf1su+hqURmjgr2DDLF2hFfvQvCIZeTSP5497LVoa7A6ClCAAhSgAAUoQAEKUIACFAhcoNACLFVVkVYA/6eqiXTzqnps39OZr04IMMDqBB4P3S5w8uz6vVtd6woLejoUAyCwOmuzI7xaB5Hfp9Ny1aIpQ9/qbJ88ngIUoAAFKEABClCAAhSgAAUKUKCAAixVNRCsh2KRqDUjuea1pwtQPJIlM8CK5LIUXlFHzn+ipO+mpPdkwrOgOBhArMOzEChUX4Ul99uI3fyHSce80+G+eCAFKEABClCAAhSgAAUoQAEKFLZAIQRY26+6Sm3bJ/oFgS5ISutMNDW1FDZ8tKpngBWt9SjsalTl+LuWn2ArzhXRIwCUZjshVd0IkX8K9Jcli1t+s2DBGO/Jg3xRgAIUoAAFKEABClCAAhSgQHcVKIwAazUgjxs1v0qvafRuGeTvsgGfrwywAgZld8AJt9WXWz2sM6A6HMDHodhfpN0rsrwv7GYAKyDymOum71k4ZfgrtKQABShAAQpQgAIUoAAFKEABCiDCAZZC10Pl7xD9Q8pKPYjVq9dyxXIjwAArN67sFcComfUHO7Z1FBSfAUy5qOyj0J4iElMvjRa8C8V6EVmtqs+p6pMP793yDMbwqiueQBSgAAUoQAEKUIACFKAABSiwQyCCAZYCLQJ9yqgsS7vyO6x97UWuV24FGGDl1pe9AzgkMT8+oGzffsVWbB/bMj0NxBELaaTMe3bcXrdRTEvDxOqtxKIABShAAQpQgAIUoAAFKEABCnxEICoBliKlgpeh+iTEPJpKu09i7eqXABiuWu4FGGDl3pgjUIACFKAABShAAQpQgAIUoAAFKNBRgbKynrYpOsG2rcneNRKqGCACp6PdZXWcqnf30FtQ/N2IPgmj/0qn3BewfvVqAOms+mLjTgkwwOoUHw+mAAUoQAEKUIACFKAABShAAQpQIMcCgr0r+6DILY/B6i/AAYB8WoBPQvAJVd1fRGwAnc84vKcJQjYBeAHQZwHr36ru82mTfh2SehMtLe8C0BzPl93vRqDzi0tWClCAAhSgAAUoQAEKUIACFKAABSiQN4HKYvR/rw+M08dxrN7q2vsKMEQEFQoth8hAKEoFuq9C9gK0h7cX847yjEKTADaLYpNC3hbRNarypkIbLcirxpjX05ZuQFrXI5bagObm/JxY2QAAAKRJREFU9xha5W1x9zgQA6zw14AVUIACFKAABShAAQpQgAIUoAAFKNBxAQsYWIzeVjGKYnHEpAjplANjO4gZO65qqdreFVqAWCYlKQOxXKTTLqxYCul0Co7bimSyFevXbwHgBVx8RUyAAVbEFoTlUIACFKAABShAAQpQgAIUoAAFKEABCuwqwACLZwQFKEABClCAAhSgAAUoQAEKUIACFKBApAX+P+uJ8aphBNVOAAAAAElFTkSuQmCC;" parent="1" vertex="1">
          <mxGeometry x="745" y="79.12" width="150" height="40.88" as="geometry" />
        </mxCell>
        <mxCell id="JBlVSo_UqL5-Rn3OWPjh-4" style="edgeStyle=orthogonalEdgeStyle;rounded=0;orthogonalLoop=1;jettySize=auto;html=1;entryX=1;entryY=0.5;entryDx=0;entryDy=0;" parent="1" source="I2P4XZ1bP2T7fFQFK7Hq-1" target="JBlVSo_UqL5-Rn3OWPjh-2" edge="1">
          <mxGeometry relative="1" as="geometry" />
        </mxCell>
        <mxCell id="I2P4XZ1bP2T7fFQFK7Hq-1" value="COUNTRIES MFE" style="rounded=1;whiteSpace=wrap;html=1;" parent="1" vertex="1">
          <mxGeometry x="400" y="410" width="120" height="60" as="geometry" />
        </mxCell>
        <mxCell id="JBlVSo_UqL5-Rn3OWPjh-1" value="&amp;nbsp; LIBRARY" style="rounded=0;whiteSpace=wrap;html=1;dashed=1;fillColor=none;align=left;verticalAlign=top;" parent="1" vertex="1">
          <mxGeometry x="90" y="510" width="830" height="170" as="geometry" />
        </mxCell>
        <mxCell id="JBlVSo_UqL5-Rn3OWPjh-2" value="STATE LIB" style="rounded=1;whiteSpace=wrap;html=1;" parent="1" vertex="1">
          <mxGeometry x="280" y="570" width="120" height="60" as="geometry" />
        </mxCell>
        <mxCell id="JBlVSo_UqL5-Rn3OWPjh-5" value="" style="shape=image;aspect=fixed;image=data:image/png,iVBORw0KGgoAAAANSUhEUgAAAdIAAAHeCAYAAAAvoopNAAAACXBIWXMAAAsTAAALEwEAmpwYAAAAeGVYSWZNTQAqAAAACAAFARIAAwAAAAEAAQAAARoABQAAAAEAAABKARsABQAAAAEAAABSASgAAwAAAAEAAgAAh2kABAAAAAEAAABaAAAAAAAAAEgAAAABAAAASAAAAAEAAqACAAQAAAABAAAB0qADAAQAAAABAAAB3gAAAADJeplmAAAgAElEQVR4nO3da3BUd37u+2f1RS21kCwkxLZsDLKFbcxlD+JmPGaMxja+zRDLU5Ocyd51ys7ZSe2TpHIm+93Ji9QwtV/tUzmVcU4lOS8yCexdSSZ7poIcZnwBmwMGxtwMJCAhDMICA7IRuiDR3erbWueF1HIL1ELS6u61Vvf3U+WaoZG6/wLUj55/r/79jRObn7YEAADmxef0AgAA8DKCFAAAGwhSAABsIEgBALCBIAUAwAaCFAAAGwhSAABsIEgBALCBIAUAwAaCFAAAGwhSAABsIEgBALCBIAUAwAaCFAAAGwhSAABsIEgBALCBIAUAwAaCFAAAGwLFeBD/ggVa+l/+SzEeCvMw/PHHGjp4sOCPs+g731HNunUFfxzMXWp0VF/85CcFf5zw44/r3/3gBwV/HECSrv7kJ0qPjhb8cYoTpDU1anjtO8V4KMxDvK+vKEG6YN06/h24VKKvryhBynMBiunG3/xNUYKUrV0AAGwgSAEAsIEgBQDABoIUAAAbCFIAAGwgSAEAsIEgBQDABoIUAAAbCFIAAGwgSAEAsIEgBQDABoIUAAAbCFIAAGwgSAEAsIEgBQDABoIUAAAbCFIAAGwIOL0AL0qPjip1507BHyewYIH8NTUFfxzMT7yvryiPE2pqKsrjYO5K7bmgWF9Pqf2bJkjnYfjQx/r8v/7Xgj/OQ7/7u3roP/1uwR8H8/PZH/5BUcJ0wydHC/4YmJ+v/uc/6cbf/E3BH6dYzwVfvP0T3frVrwr+OE/+5V+pZt26gj9OsbC1CwCADQQpAAA2EKQAANhAkAIAYANBCgCADQQpAAA2EKQAANhAkAIAYANBCgCADQQpAAA2EKQAANhAkAIAYANBCgCADQQpAAA2EKQAANhAkAIAYANBCgCADQQpAAA2EKQAANhAkAIAYANBCgCADQQpAAA2EKQAANhAkAIAYANBCgCADQQpAAA2EKQAANhAkAIAYANBCgCADQQpAAA2EKQAANhAkAIAYANBCgCADQQpAAA2EKQAANhAkAIAYANBCgCADQGnFwB4Vfjxx1XR1OT0MgA4jCAF5qnlv/1fTi8BgAuwtQsAgA0EKQAANhCkAADYQJACAGADQQoAgA0EKQAANhCkAADYQJACAGADQQoAgA0EKQAANhCkAADYQJACAGADQQoAgA0EKQAANhCkAADYQJACAGADQQoAgA0EKQAANhgnNj9tFeOBQk1NxXiYokjduaP06GjBH8dfU6PAggUFf5xifT3Nf/qnWvTadwr+OMVy4Q//QIm+PqeXkTfxIn0tPBfMXak9FxTr6ynWv+lAUR5FxfuCSkl6dLQo/6gxP4m+Pv5dzwN/ZnNXas8Fpfb1sLULAIANBCkAADYQpAAA2ECQAgBgA0EKAIANBCkAADYQpAAA2ECQAgBgA0EKAIANBCkAADYQpAAA2ECQAgBgA0EKAIANBCkAADYQpAAA2ECQAgBgA0EKAIANAUPGTqcXAWeZsloN6RuFfpw7p07JKPSDFFHqzp2iPA7fo4C7ldLzGubp2ObNO3yyfuT0OjC9jUeP8X0KuBhbuwAA2ECQAgBgA0EKAIANBCkAADYQpAAA2ECQAgBgA0EKAIANBCkAADYQpAAA2ECQAgBgA0EKAIANBCkAADYQpAAA2ECQAgBgA0EKAIANBCkAADYQpAAA2ECQAgAAAAAAAAAAAAAAAAAAAAAAAAAAAAAAAAAAAAAAAAAAAAAAAAAAAAAAAAAAAAAAAAAAAAAAAAAAAAAAAAAAAICzDKcXAEBqb2+rUyLYLGmtDKtOhupM06jzGXpAhnVFkmRpWIbOyDSGO97dd8bRBQOYRJACDmhvb2tWMtAuGd+wLKNNhtU8j7s5YFn6V5/P6uj45YcH8rxEALNEkAJF0t7eVmcmKn5oGFabpLbs3wtXVWjRwhotfahe4aoKhSsrVF0VUriyQv1Do5KkW0N3dGvojqKxhK7eGLjr3q1hyegwDGsXoQoUF0EKFFj7d19ssyzjR8oKz3BVhdatWqanHmvSipYHtWhhzZzuMzo2Hqafdl5Rd8+Xdwdrr2UZO30ViV0dHQd68/E1AMiNIAUK4Ov2af6xZNRlbl/R0qQ3trVqxWNNeX28W0N3dKrzij44dE63hu58/RuW0WFY2tXx3t6OvD4ggEkEKZBH07XPRQtr9K0Ny/XSt1YrXFlR8DV0X+7ToZMXdfjkxeybeyUdMILJH9NSgfwiSAGbpmuf4aoKrWhp0stbVuW9fc7WraE76r7cp917T01tqdIBw9Kujnf37XRkYUCJIUiBeWhvb6tT2t9mmb4fKqt9rmhp0vpVy7Rlw+NFaZ+zRUsFCocgBeag/bsvtpmmb+vd7XPLhse1ftUyx9rnbGVa6geHOu++QImWCswTQQrcR3t7W52SgbcsGa/LA+1ztq7eGNAHhzt1qvOKorFE5uZejYfq2wx9AGaHIAVyGG+fRrthWG96sX3OxeFPL+rQyYvq7unLvvmMYeltVSQPsPUL5EaQAllKtX3O1q2hO9q975S6e/ruvkBpJ8MegOkRpIDKq33OVo6W2mtY+jEtFfgaQYqyNVP7fHnLKq1oaSrp9jlbtFRgZgQpyk77d19sk/RDy1Jbdvt8ecsqrVu9TEubGhxdn5ud6ryiQycv6lTnleybaakoawQpykLWwPh2SWsztxdqZF+puzV0R4dPfqZDJy8ykhBljyBFScs1MP7lLauKNrKv1OUa9sDgfJQLghQlp9gD4zGOkYQoVwQpSgbt0z0YSYhyQpDC09w6MB7jaKkoBwQpPKe9va1OqcDau9vn0ocatH7VUtqnS2Va6rQjCWmp8DCCFJ7R/tq2taaM1706MB7S+ct9Onzvlm9GZiRhR0fHgeFirw2YL4IUrtbe3lanRLDdMvSmynBkXymIjsV1+MQlfdp1ZcqUpNWrVujpDa36/MpVneu8oJv9tyZ+xxqWjA6GPcArCFK4EiP7vO/85T6d6ryiwycuKjo2vpVbXR3W9te2afXKFVq96skpH7//wBHtP3hE5zq7s29m2ANcjyCFa5T7wPhSMFP7HA/QJ1VdHZ7xPm7239LPfv7OXS1VEiMJ4VIEKRxH+/S+85f7tPdQp7p7+u5pn9tf23bf8MyFlgovIEjhCNqn90XH4vrgUJcOn7yoW0Ojk7evXrVCP/j+6/ds3dpxs//WeKgeOEJLhesQpCiqXO2TgfHecf5ynzr2nZ6ydZuP9jlbx46f1v6DR3TsxKnsmxlJCMcQpCi4+w2MX/pQA+3T5TLtc++hc5Nbt1Jh2uds3ey/pXOdF/Szn78ztaVaRoch6x2GPaBYCFIUzEzHlTE0wRuma5+LFy/S81ufLUr7nK1znRe0/+Bh7T9wJPvmXjHsAUVAkCKvGBjvfdO1z+rqsFavnLjy1oH2OVs5WyojCVFABCnygoHx3hYdi+t8z5fae7hz2qEJz7c965r2OVu0VBQLQYp5o3163/nLferu+fKe9vl827N6esM6V7fP2YpEojp24rT2vLtPn/dezf4tWirygiDFnE3XPhkY7x33G9nnxfY5W5/3fqE97+6dfiShpbc73t13xtEFwpMIUsxKe3tbs5moeJPjyrwr18i+Umqfc5Fj2ENmcD7DHjBrBClyam9vq1Pa32aZvh+KoQmeVM7tc7YYSQi7CFLcg5F93jfXgfEYx0hCzAdBCkmM7CsF+RgYj3G0VMwFQVrmaJ/eV6iB8RiXayQhLRUZBGkZon16nxtH9pW6nIPzLaPDsLSr4729Hc6tDk4iSMvITAPjV7Q00T49wOmB8Rh3rvOCfrrrH+9+X2qvZekdX0XyJ7TU8kKQlriZ2mcmQGmf7kb7dI9IJKr9B47o2MnTUy5ICldVKBpLZH8owx7KCEFaomYaGL9lw+NatLDG0fXh/rwyML4cnOu8oD3v7tO5rm5FIlFJ9x7/1325T4dOXtThkxezP7VXjCQseQRpCbnfcWVs3brfraFRHTp5yZMD40tNJBLVnnf36diJ01O2cO/3/XRr6I66L/dp995TujV0J/u3aKkliiAtAQyM97ZSHBjvZec6L+hnv3jnnq3b+Xw/Xb0xoA8Od+pU55Xsrd9ejYcqIwlLBEHqUQyM9z5G9rlHpn3ueXff5NatlL/vp+hYQqc6r+jQyYtTfljS1yMJOzo6DgzbehA4hiD1GNqntzGyz13y2T5n69bQHe3ed0rdPX1ZW78Tg/MZ9uBJBKkHTNc+GRjvLbRP95iufTr1/XT404vTtVSGPXgMQepSuQbGc1yZd9A+3SMSiY5fefvevintc0VLk5567EHHv5+mb6mSGEnoCQSpy7S/tm2tKeP17PZZFQpo08pGPb1+tVY9sdTpJeI+GBjvHp/3fqFjJ07d0z7dOgLTMk0dOPpvOnzyoi5dG8n+LVqqixGkLpBraMLyJbVa3dKgTSsXqSoUkCQFKsIKhesUCtfluDc4ITM0oftyHwPjHZZraIKbR2Cmk2NKjI1qLDIgyzQlSYMjcR3v6teJrpsaHIlnfzgt1WUIUgdNN7Iv0z5Xt9Rr+ZLanJ/r8wcVqAirakGD/MHKoq0ZUzEw3j3OdV7QsROntP/gEc+0z3h0SImxUaUS0Rk/9mzPoM71DOl4183sm3sty9jpq0jsoqU6iyAtsrm0z9nyBytVWV2vispaGT5fnleMuzGyzz282D5T8ajiYyNKxIYn2+dsDY7EdenaiD44+sXdLZVhDw4iSIvETvucLcPnUzBUo1B4oYIhmlC+MTDePUq5fc7WpWsjOtHVf09LFSMJi44gLaCZ2udzrU1avqR2zu1ztnz+oKpqGhWsqJYvECzIY5QD2qd7zNQ+3XoAg532OVu0VOcRpAWQq30+19qkNS0L9XBjdVHXU1H1AC11jhgY7x4zDYx34wEMhWifs5VpqWd7BhWLpzI394qWWlAEaZ5ktc83lTUwfvmSWr28+ZG8bN3aRUudGQPj3SMzNGH/wSO6efPrQ7TdPAKzGO1ztmLxlM72DOnj03263h/J/i1aagEQpHnQ/tq2tyzD+vO72+fW1gcLtnVrFy11HAPj3cWJkX12WKapsciAErERpVPx+3+CA673R/Xx6T5dunY7e+u317D0YwI1PwhSG9rb25qtZPDvNPH6p5va52yVa0tlZJ97FHpgfCGk4lFFR28qnRpzvH3OxfGu/rtfS93Jlq99BOk8tb/6UrvlM/9OMuqqQgG1b23WppWNTi/LllJvqYzscxevts/soQle9f7Ra/r4dF/mddReI5j8NmE6fwTpPLS/9tKPLMPaIUlrWur12y+1uHYLdz58/uD49KSqupJoqbRP93DTwPjZyrTPYl84VGiDI3H95S86M+102DCN3+l4b2+H0+vyIoJ0jrJD9OXNj+iVzUscXlFhBStrFArXqaLSXVdG3g/t0z3cPjB+OqXUPu+n42CvDp4e/x7xyXhr96/27nJ4SZ5DkM5B+3e3/dCy9BNJ+u2Xlnt+K3cuMiMJwzWLXd1SZxoY//TGdXq0+RGHV1g+znVe0Lmubs8MjJdKt33ez/tHr+mDo19IkgxLrR3v7jvj8JI8hSCdpYkLiz6XpDUtC/W/bV/h9JIc47bB+QyMdw8vjuybbmB8uYnFU/rbPRcyJ87wmukcEaSz9Pp3tn0uqTnz6/rakLa2Nml1S73qa0POLcxBTrdUBsa7hxdH9qXiEcUiA2XXPrPd6I/qbM+ADp7+MnuAgyQdeOdX+77t1Lq8hiCdhczroovqF+iNbeu0e++pKYfvrmmpn5yZW66K1VIZ2eceXmyfbhqa4JRYPDU5/Sj7zNPM39vufacUjSVkWPod3mc6OwTpfWRv6f7ff/K/aNHCBZKk7st9OnTyog6fvDj5sfW1ocn3ktJS89tSGRjvHl5sn06N7HOTnmsjOtszqONd/ZPtc7q/t72HO/X3/3JUknqNSLK148CBYedW7Q2l856NAjGTwR2GNDHTc8Hk7Ssea9KKx5r0xrZ16r7cN9lSj3f163hXv5YvqdWmlY3auHKxc4t3gJlOKhG7rUTstu2WSvt0DwbGe9P92ud0uwYvbVmlTzuvqLunr1nhYLukncVdtffQSGfQ3t5WZyWDpyU1Z7fRXGip05vrIeTTtc9Hm5fq6Y2ttM8iY2C8N822feZyqvOK3t71ocRrpbNCkM5gfIau/m5FS5P+5D+/NuvPuzV0Z0pLzSjXlpot1yHkDIx3DwbGe9NM7XM+uwa//6P/Mf5aqWF9u+OXHx4owJJLBlu7MzANq92QoW9teHxOn7do4QJtWf+4tqx/XFdvDOiDw5061XlFl66N6NK1Eb1/9FrZttR0ckyR4RuK+r5U2girtz+tfUfOMzTBBbw6ss/NA+OLoefaiA6e7tOlayNT2ufLW1Zp3eplWtrUMK/73bL+ce093ClzfJb4gbwtuAQRpDMwpK2SbP0EvvShBv3ebz2n6FhCpzqv6NDJi+ru6Zt8LfXhxvDk22hKaczgTKbbdqoOV+rbzz2jzU9von0WkVcHxo9FBpRMRMq6fX58uk9ne4amHJOWz7+39auXae/hThmWsdX2nZW48njmnof29ra1VtKoW1S/4L6vjc5GuLJisqXeGrqj3ftOqbunT9f77+gf9vaoKnRFa1oWatPKxWrx0Okxs5Vr22nlk83auPYpPffMWlWHK+UPVimdjMkfrHJwtaXPq+2znIcmSOM/hL5/9Isp30OF+nvLarJtebvTEkWQ5pL2N0vjjTLfFi1coN/7reckSYc/vXhPS62vDemVzUvUsuQBz2/95mqfW59p1YbWFVr5RPOUj08nY0onY0r5AvJXhOWvqJbh459pPjAw3psy7fPuoQmF3jUIV1Vo0cIFujV0R+2vtDV3vM+ko1x4hsrFMtZKyksbncl0LfXW0HhLlaRNKxs911Jn2z5nYpkppcZGlBobkS8Qkr+iWv6K6kIvveQwMN67itk+c1n6UMP4BZNGxVpJvQV/QI8iSO+jWE8ypdBSc7XPV194RhvWrlDzIw/O637NVFxmKj4ZqoHKWlrqfTAw3puma59O7hqEqyae/wIpdwzWdimejXKxjGap8I10Otkt9fDJz3To5EXXttRcFz2sfLJZr77wjFY+0Xzf9jlblplSOpFSOhGhpU7DiyP7zFRS8dhwWbfPWDw15crbDDfvGmAqgtTFFi1coPZt69S+bd3kFb+nOq9MaamZ96UWu6VOd8l9pn2++sLmvIVnLve01FCNDL97j3crJC+O7GNg/Pj30KVrt+9pn279e0NuBKlHrFu1TOtWLbtn2MP7R6/p/aPXijI4P9dFDyufbNb3t3/7nguHiiG7pRr+oAKhGvmCVTIM3/0/2cO82D4ZmjC/kX1wP4LUY7KHPWSPJDzbM6izPYMFGUk43UUPxWyfs2Wlk0pGB2UYPvmCVfJXVMsXcOfryfOVq31mJte4rcUwsm+c3ZF9cDeC1MMKOTjfje1ztizLVDoRGW+pvoDnt369NjCe8BxH+ywfBGkJyNVS5zOScLr22fzIg9qw9ilXtc/ZmrL16wvIF6xSoKLaE6E608B4t12AQnh+jfZZfgjSEnN3S/3gUKeu3hiYsaXe6I/qbM/AlPZZHa7UU08267WJK29LgWWmlI6PKh0fnWyqbtv+9dLA+FQ8qmQiomQ8Uvbhme+B8fAWgrREzXZw/uBIfN5DE7wsu6lKGg/VYJV8gUpH2qoXRvaZqaQSYyNKJqJKlfGc22wzDYx34zFzKAyCtAzMNDg/o7GhTr//O2+UTPucq8zbaSSNt1V/UL5glXz+ioIFq5sHxlumKTOdUDIeUToZVyI+QnBOyFw/cLyrX4MjX58644a/NziDIC0j2YPzP+28or8YP7hXktQ/MKy//rvdWvlEs159cbOaHynfJwPLTCltppROxiRJhuGT4Q/KF6iULxCS4Q/aenvNdO1z0cIafWvDckfaZyY0U8mx8f8SUZnpBMF5FzeM7IM7EaRlqnpi9NfqVSv0/NZntf/gEZ3r7NbBT87o4Cdn1PzIg3r1hc3asPapkt7inQ3LMmVlNVbp63A1/BXyBULy+QKSz58zYN0wMP7uwDTTSaUn/hfTc2pgPLyFIIWeb3tWz7c9q5v9t/Szn7+jc50X1PvFl/rrnR2SOrT1mbXa+mxr2W77TicTrkrFlY6PTt5u+AIyfH4Z/gpFYwmdv3RNv3zvwynt84lli7Ru1TI9t3GFqqvt/5BipsaDMJ1OyrLSssy0zHRSZiop00ornRybuJ2GOVvTtU8ndw3gbgQpJi1uXKT/4w/+kyRp/4Ej97TUxoY6fX97m1Y++agaG5hhPR3LTKmz+6K6LvTqvY+OKhIdkyRVhQKTk6eWT8xIjt++rPhtyfD5ZBj+yfswpmm2lmXKMtNZvyYY821oJK7jXTddMzAe3kGQYlrTtdSb/bcmWqpoqXeJRMf08SendeJMt7ou9E7evnxJrVa3NGjTykWqCk3/7WaZpixlhSJbrUUz08B4hiZgtghSzCi7pR47flr7Dx7RsROnaKkTuj77XCdPX9DBT07P2D7hLgxNQD4RpJi1pze16ulNrbrZf2t86/fAkSktdUPrCm19plUb165weKWFZad9wjmM7EOh8N2OOVvcuEg/+M3X9YPffF3nOi9o/8HD2n/giE6e7tbJ091qbKjT1m+u1dZvtpZUS83VPp9rbdLyJbW0T5eifaLQCFLYsnrVk1q96snJUP3Zz9/Rzf5b+sWeA/rFngNa+WTz+Oup32x1eqnzMlP7zAQo7dN9aJ8oJp4BkBeLGxfp+bZFer7t2SkttetCr7ou9I6H6hPN+v5vfNsTLbXrs8/17kdHdf5C7z3tc2vrg4SnS+Vqn249Zg6lgWcD5F2ulpq5QMmtLTUSHdN7H32ig5+cUf+t4cnbMyfnsHXrTpmhCZk50hkMjEexEKQomOla6rETp13XUrs++1y/2HNgytYt7dP9ZhoYz9AEFBPPECiKTEuNRKI6duK04yMJM+0ze2iCRPt0O0b2wY0IUhRVdXV4xpGE1eH3teEbKwo27GG69llfG9LGlYtpny7GwHi4Gc8acEyxRhJO1z6rQoEpV97CfWif8AqCFK6Q75GEkeiYuj77XO99dJShCR4zXftc+lCD1q9aSvuEK/FMAlex21K7Pvt8VgPj4S43+qM62zPAwHh4EkEK18puqdONJMy01GVLHmRknwcxMB6lgmcXuF72SMLpBudno326HyP7UGoIUnhK9uD87GEPGQ83hvVwY5gQdRlG9qGUEaTwpMywh3Nd3dp/4JaWPlSvqzcGJ6fbvH/02uR7QutrQ04vt2zRPlEOCFKUhJe2rNJTLQ+p+3Kfdu89pVtDd3S8q1/Hu/q1fEmtNq1s1MaVi51eZlmgfaLcEKQoGYsWLtCW9Y9ry/rH1X25T4dOXtThkxdpqUUy08D4dauXaWlTg8MrBAqDIEVJWvHY+Ekf//E3NutU5xV9cKhTV28M0FLzLDM04WzPkK73RyZvZ2A8yglBipIWrqyYbKlXbwzog8Od6u75+qSQ3QevaE3LQm1tbdJDjdVOL9czGBgPfI0gRdlY+lCDfu+3npMkHf70og6dvKjunr7JlvpwY1hbW5vUsuQBtn6nwcg+YHoEKcpSpqXeGrqj3ftOqbunT9f77+gf9vZIkjatbNSmlYvVwttoGBgP3AdBirK2aOGCGVtqfW1Ir2xeUnYtlfYJzB5BCkyYrqXeGiqvlsrAeGDuCFLgLtkt9VTnFR06eVGnOq+UbEtlYDxgD0EKT1vcuEiSdGvoTkHuf92qZVq3apluDd3R4ZOf6dDJi/e01DUt9VrdUl+Qxy8UBsYD+UOQArOwaOECtW9bp/Zt66YMe8huqZn3pbq5pTKyD8g/ghSYo8ywhzcmQjUzkvD9o9cmpye5adgDI/uAwiJIgXly+0hC2idQHAQpkAe5WmqxRxLSPoHiI0iBPJqupZ7qvFLwlsrAeMA5BClQIJmWGh1LzDg4f3VLvapCc/9WnGlg/BvbWrX0oQbaJ1AEBClQYPcbnF8Vmtvg/MzQhOv9UQbGAy5AkAJFNN/B+YzsA9yLIAUcMpvB+Wta6u8ZmkD7BNyFIC1zn/de1V/85U+1/Tsv6dHmR5xeTlm63+D8DNon4E4EaZla2tSgFS1N6u7p0/6DR7T/4BE92rxU21/bpqc3tqq6Ouz0EstSdkt9e9eHunpjQFs2PK7/+BubaZ+zcKVvQMu4QhlFRpCWqXBVhf7kP782ZVvx896r+ou/+qmqq8N6ekOrnm/botWrnnR6qWVp0cIFWvpQva7eGNCKxx4kRGcQHYvrg0NdOtV5RVdvDKh9W6ve2LbO6WWhjBCkZS7XtmKmpS5uXKQf/ObrWr3ySS1evMjh1QJfO3+5Tx37Tuvq9QFFxxKTtxfqAAMgF4IUk6a7+OVm/y39xV/9VJL0/NZnaalwVKZ97j10bkp4rl7z7/XoYy3a885uB1eHckWQ4h53t9RPz13Rqc4rtFQ4JtM+u3v6Jm+rrq7W9te/p+2vf0/V1dXa/9FeB1eIckaQYkbZLTVzHmd2S3164zo93/asnt7Y6vBKUWqma5/V1dVaveYb2v76G1q95hsOrxAYR5BiVnKdx3nsxCkdO3FKixsX6fm2Z/X81mdpqZi36Fhc53u+1N6J6U8Zjz7Woqc3f3OyfQJuQpBizqY76eRm/y397Ofv6Gc/f0erV62YeD31WaeXCo+4emNAn3Zevad9Pv/iy3p68zO0T7gaQYp5y3Ue57nObp3r7B4P1ZVP6ge/+TotFfeIjsV1+MQlfdp1ZUr7XL3m3+vpzc/q+Rdfon3CEwhS5EWulrr/4C3tP3iElopJ5y/36VTnFR0+cZH2iZJAkCKvcp3HWaiWurhxfIoN7x10N9onShlBioK5+zzOr4c93GIkYZmgfaIcEKQouOzzOBlJWPoyb3i2qwgAABt2SURBVFvpvtx3T/vc/vr3tHrNN2ifKCkEKYqKkYSl6/zlPu09NP62lez2mT00AShFBCkcw0hC75tpZN8P/sP/ytYtygJBCsfRUr1nNiP7gHJBkMJV7jeS8Pmtz+rpTesYSegA2icwPYIUrpQ9kvBU5xV92nlFh09enNJSn297VrKcXmnpm659MrIP+BpBCtdbt2qZ1q1aNu1IQhRGrpF9DIwH7kWQwjNyjSSUpHBVhcOrKx1//y/HtPfwuclfMzQBmBlBCk/KHkl49caAVrQ0Ob2kknG1b0CS9PwLL+n5F7fRPoH7IEjhaYsWLtCihQucXkZJIkSB2fE5vQAAALyMIAUAwAaCFAAAGwhSAABsIEgBALCBIAUAwAaCFAAAGwhSAABsIEgBALCBIAUAwAaCFAAAGwhSAABsIEgBALCBIAUAwAaCFAAAGwhSAABsIEgBALCBIAUAwAaCFAAAGwhSAABsIEgBALCBIAUAwAaCFAAAGwhSAABsIEgBALCBIAUAwAaCFAAAGwhSAABsIEgBALCBIAUAwAaCFEBJiNy54/QSUKYCTi8AAOYrEono3Nkz2vPObp07+2+SpHBVhcOrQrkhSAF4zrmz/6pjR3+t/R/uVSQSkTQeoFs2PK6Xt6x2eHUoNwQpAE+IRCLa/+EHOnb015PtU5JWtDRp/apl2rLhcYUraaMoPoIUgKvN1D7Xr1qmFY81ObxClDuCFIDr0D7hJQQpANc4d/Zftf/DfTp29MiU9vnyllVat3qZljY1OLxC4F4EKQBHRSIR7Xnnn3Xs6BF9fvny5O0rWpr0xrZWtm7hegQpAEecO/uv+tk//I8pW7eZ9vnSt1azdQvPIEgBFE2mfe55558nt24l2ie8jSAFUHC0T5QyghRAQUzXPsNVFVrR0qSXt6yifaJkEKQA8ma6kX2StPShBq1ftZT2iZJEkAKw7fPLPTp29Nf3tE+GJqAcEKQA5oWhCcA4ghTAnDCyD5iKIL0PM51yegmA42ifQG4E6X3EIwNOLwFwTK72+fKWVVrR0kT7BESQ3pdlppWMRxUMhZ1eClBUf/Hnf6abN7+a/PXk21ZammifZcJMJZ1egicQpLMQG72pYKjZ6WUARXXz5lcMTShjZiqpVCJy/w8EQTobqURUibFRVVTWOL0UoODWr1qmcGWFXv4WQxPKWXT0ptNL8AyCdJait79UMBSWYfidXgpQUC9tWaWXtqxyehlwkJlKKhG77fQyPMPn9AK8wkwndWfohtPLAICCo43ODUE6B8mxUcVG+51eBgAUTDw6TBudI4J0jmKj/YQpgJJkppI8v80DQToPhCmAUmOmkhoZ6JWZ5i0vc0WQzlNstF+R21/KstJOLwUAbLFMU6NDXxCi80SQ2hCPDOr2zctKJ8ecXgoAzIuZSup2fw/PYzYQpDaZ6aRu91/WnaHrTAEB4CmpeJTt3DzgfaR5kojdViJ2W8HKGlVU1igUrnN6SQAwLcs0FRu9qbHIoNNLKQkEaZ4lx0Yn3yYTqAgrXLNYvkDQ6WUBgCzT1FhkQGORAVmm6fRySgZBWiBmOjnZUgMVYYXCdbRUAI5IxaOKj40oERsmQAuAIC2CVCKqVCJKSwVQNJn2mYiNKJ2KO72ckkaQFhEtFUChpeJRjUUGlExEaJ9FQpA65O6WWrWgQf5gpdPLAuBBvPbpLILUYdkt1R+sVGV1vSoqa2X4eGcSgJml4lFFR28qlYg6vZSyRpC6SDo5psjwDUV9XyoYqlEovFDBUNjpZQFwEdqn+xCkLmSZ5mRL9fmDqqppVLCimguUgDJG+3QvgtTlzHRSkeHxc1Arqh6gpQJlJJ0cU2JslPbpcgSph9BSgdJnmaZS8YhikQHap0cQpB5ESwVKD0MTvIsg9ThaKuBdlmkqHh1SYmyU9ulhBGmJyG6pwYmh+RWVNQ6vCsB0aJ+lhSAtQZnB+T5/cHx6UlUdLRVwGO2zdBGkJcxMJxUb7Z+cnsRIQqD4aJ+ljyAtEwzOB4qHgfHlhSAtMwzOBwqHgfHliSAtY7RUwD5G9oEgBS0VmAdG9iGDIMUUHO8G5Eb7xHQI0lwMc1iWT7F42umVOILj3YCv0T4xE4I0J2NYkmLxlNMLcRzHu6EcMTBeXxeJVGDY2ZW4G0Gai2n0ypAGR7h0PYPj3VDqGBg/1WSR8JsE6QwI0lx8Vq8sQ9f7+WaaDoPzUUoYmjC9yee/O6kzzq7E3QjSXAKpM0oGdb0/olg8paoQf1S50FLhRYzsm1nmuU+W0dtx4ACNdAZcOZJDR8eBYUM6IKkkW+ngSFx/9vf/pr/dc0Hnegbzcp+Zljp886LuDF1XMl56f27wvlQ8qsjtLzV88zNFR74iRHPouTYiSTIM64CzK3E/atZMDOugLKPtXM+Ali+pdXo1eTU0Etf1/oiu90d0tmdQ9bUhLV9Sq5c3P6L62pDt+89uqZkrfmmpcArtc+6Od/WP/x/TeMfZlbgfQTqTQOonSgZ/dLzrll7e/EhJbu82NtRJhtR/a1jHu/p1vKtfy5fUatPKRm1cudj2/ZvppKIjXyk68hXHu6HoeO1zfjI/ZMsyejve29vh9Hrczu/0Atysu7t37KknWtqSabM5GPBp+ZIHnF5S3gyNxHW8q1/NSx/Uf/vT39fKJx+VZOjKF19qcCSusz1DOtHVrxv9ET3cWJ2XHyLMVEKJ2Iji0WGl00kFAiEZPv4J5nKq84qu3hjUulXLtOyhBqeX4xmWaWrszi1Fb3+psciA0smYZFlOL8tTfnXkC13vj8gw1NF98TKN9D5Kr2Llm2H9WJbRdvD0l3qutakkW6kkrXyiWSufaNb3t7ep67NevffhJ+r94suCtdR4ZFDxyCAjCZE3DIzPj8GRuI533Rz/Rdr/Y2dX4w3Ugfvo/uxyb6aVptKWVjSXxhN+ppE2LqrT1m+2Tt5eHa5U8yMP6sWtG7Wx9Sklk2ndGhjWVwORwrTUdFLJsVHFo8NKJccUCFbRUifQSO8v0z7vDH2heHRI6VSC9mnTn/39vykWT8syrB+/8y7burNRmvUq39L+35E/dfrg6b66liW1WtNS7/SKimLZkgf1+2+1KxJ9RSf/tVsHf31aXRd672mpq1vqbYcqg/MxF4zsK4wPjn4xPoTGMnp9keRPnF6PV/Cj/yx0X7o0/NQTj8Ul45XuK7fV+uQiz2/x5mqk06kIBtT8yIPa+s1Wbf1mq6KxuKKxMV378rbO9gzp12dv6uZQTA21IdVUV9heGy11HI10qrvbp5lOOr2kknKuZ1A/3/+5JMnwWW907N3f7fCSPKP8np3mqfvi5aNPPtHyaCptrj3XM6g1eWhhTppLkGarDldq49oVeu2FZ9S4aKGisTH1fTWo6/1R/frsVzrXM6hgwKeqUMD2n49lmUqn4hqLDCoZj0iS/P4KGYZh6369giAdl4pHdWf4uqK3+8YbKFu3eXe9P6q/3XNBqbQ5vqX7yw93Or0mL/FuEjjAF0z+sZUMfmNwJL72L3/RqT/8/qq8vOfSq7Y+s1Zbn1mr/oFh/WLPAXV99rmu9w/rH/b2SJI2rWzUppWL1ZKH9+BmjnfLDM7neLfSxsD44um5NqKf7rmgWDwly9Lb//KrD3c4vSavoZHOQXd379hTq5b+k0z/K7F4+sETXf2qrQ7q4cZqp5c2Z/NtpNOZrqX2Dwzren9Ux7v6daKrX+GQPy8tVZaldCo++eZ6wzDkM/wlufVbbo3UMk2lxu4ocrtPsczrn7TPgvr4dJ/++3sXx5uotOtf3t33vzu9Ji8qvWefAsuEqWEZVcmUtflsz5CGRuJ5u4q1WPIZpNmmey11YGj8it+PT/dpaCSucCiQlyZvmSklx0Y1FhlUOpWQ4QvIX0LTk8olSFPxqGKRAUVuX1c8dpvXPotgcCSuv91zQb8++5UkyTKsH//Lrz78Y4eX5VkE6Tx0d/eOdX/2+ftPPfmYIRlt1/ujOtczqHDI75l2Wqggzbi7pcqQbnx5qzAtVVI6FVciNqx4dFiGz18SLbWUg9QyTcUjg4qO3FTsTj9DE4okFk9p/8nr+se9Pbo5FJOkYcM0fvudd/f9v06vzcu8/UzjsO7PLh94quWJXYbfWhuLp5sL8T7LQil0kGZrfuRBfXPjGm39Zquqw1XqHxwuXEu1zJJpqaUYpNntMzl2h/ZZJD3XRvTx6T79494edV8ZViptyjCsDiOS+nbHhx9xRJpN7n2m94iO99/vlfTt9te2vSWf3hwcibcVYhpQKWhsqNP3t7fp+9vbdOJMtw5+clonT3dPvi+1vjakra1NWt1Sn/fB+Rzv5hwGxjsjFk/pRFe/zvYM6tLESS7S5GkuP+745YcHnFpbqSFI86Tj3X07Je1sf23bWhn6Y0t6/dK1kbpL10b0/tFrWr6kVltbm/SQR7Z+C23j2hXauHaF+geG1fVZr36x5/9T/61h7T7Yq90He7WmpX5y2INdHELuDAbGO6Pn2ogOnu7TpWsj4+eJjhs2DOtt3Un9hLNF848gzbOOd/edkfRWe1tbncLB9rtb6sON4cnW5eat32JpbKibfBtN12e9OvjrMzr469M62zM4ebzbmpZ6PdfalPeWGgrXKVRVR0vNI8s0NRYZUCI2onQq7vRyykYsntLHp/t0tmdo/NSWCbTP4uCZvEAmfurbKWln+yuvNMuf3mFZxtbr/dHmf9jbo6rQFa1pWZi391mWgrsH52da6sHTfTp4ui/vg/Njo/2KjfZzvFseMDDeGT3XRvT+0S+mbN2K9ll0BGkRTLyO+pYkZV5LjcVTbdmvDb6yeYlaljxQ1gMeMnK11EvXRpS9VZ6vQ8iTY6NKjo3K5w8qUBFWuGYxLXUWMu2ToQnFlWmfB09/mb11S/t0EEFaZJOvpWa11MGReHMhpgGVglwttVDHuzE4//4YGO8M2qd7EaQOma6lWpZoqTlM11JPnjk/2VKrQoG8XJiUkRlJGBvtp6WK9umUHO1zeKJ9vk37dAeC1AWmtNRA6i3L9L1JS80t01Ij0Vf01zs7dPLM+SlbXPlU7i2V9ll8sXhKN/qj07XPM4ZhvUP7dB+C1EUmWuoOSTvat7/QLst407KM9uyWmtnGpKWOT0+qDhfvz6FcWioD451xoz+qsz0D97ZPS7vkszpon+5FkLpUx56POiR1tL/ySrN86TZLxo8GR+LN7x+9pvePXsvr+ywxN9O11IrKWhk+n9NLmzfLNJWKRxSLDNA+iygWT+lcz5COd928d2iCpXcUSe2kfbofQepyEy11p6Sd7d99sU2W8ZYlvZn9Pst8XsGKufH68W4MTXBGz7URne0Z1PGuftpnCSBIPWTim+tA+yuv7MhuqYwkdJ5lmp4ZScjIPmfMOLKP9ulpBKkH5WqphXqfJebGrSMJaZ/OoH2WPoLU4+5uqfJZPxwcia+lpbqD0y2V9ukM2md5IUhLxJSWWkaD86urxl+PjMXTDq9kZtktNVhZo4rKmoJeoET7dEbO9mlYb8s0Ojp+9SFHlpUggrQEzWZw/vIlDzi9zLwIhzNBWpj3kRZCZiRhRDcUqAjLH6xUMFQtvz9o60IlBsY7Y8aB8Wnf24olDtA+SxtBWsJmGpx/vX98my8aHXNyiWUvc9VvPDI4eZvh88nnr1AyNnrfzzdTSSXGRti6dQDHlSGDIC0TuUYS9n7xpf7oT/58fJ7tb3xbjQ3lM7XHrSzTVNock2WNb1eb6aSS8agsKy0zlVA6nZSZTirFSStFx8B4TIcgLUNZh5C/JZ/1w/6B4bUHPzmjg5+c0conm8dn2n6z1ellYsLYaL9GBwynl1HWGBiPmRCkZSwrUMcvTrKMrV0Xepu7LvTqv//P97XhGyv06oub1fxIk9NLBYqO9onZIkgxeXGS9PW2byQ61pZpqc2PPKhXX9isDWufUnXYO1N7gPnI0T57DcPaRfvEdAhSTDHdeam9X3zZ/Nc7OyR1jG/7PtuqlU80O7tQII84rgx2EKSYVq6LkzIttbGhTt/f3qaVTz7KBUrwpFg8NeXK24yJ8DxI+8RsEaS4r+laav/A8ERLFS0VnsJxZcg3ghSzRkuFVzGyD4VEkGJeprTUQOoty/S9SUuF2zAwHsVAkMKWiZa6Q9KO9u0vtMsy3rQsoz27pb724vgVv7RUFAPtE8VGkCJvOvZ81CGpo/2VV5oz56X2Dww37/qn97Xrn97XhtYV2vpMqzauXeH0UlGCaJ9wCkGKvMt1XurJ0906ebpbjQ112rj2Kb364mZaKmyZsX0yMB5FQpCioO4+LzXTUt/96BO9+9EnjCTEvHBcGdyEIEVR5GqpXRd61XWhV7/Yc2Beg/MbFy2UJA2OcGxYqZvxuDJG9sFBBCmKLldLZXA+ppMZ2Xe9P8pxZXAlghSOydFSX++60Ftnp6XC+xgYDy8hSOEKky21ra1O4WB7ruPdGJxf2jiuDF5EkMJVJp4odyrH8W7VYY53KzW0T3gdQQrXms3xbovY8vWsHO3zjGFY79A+4SWG0wsA5iJ7cL4Mqzlze31tSMuX1OrlzY+ovjbk4Arz5x/3XtLxrn79h5datHHlYqeXkxc5B8ZzXBk8jCCFZ2UPzs++ffmSWm1a2ej58CmVIJ3xuDJG9qEEEKTwvPa2tjotCKzNvDc1c7vXW6rXg5SRfSgXBClKSmbOr3zWDy3LWJu53Yst1YtBysB4lCOCFCVr8qpf6XVJddLXLXVra5Meaqx2eIUz81KQ0j5RzghSeN6OHTt8e/bs8U/8MlhTU+MbHR31S1JdXV2gosKq8xuB7/kN6/uSNmU+7+HGsLa2Nml1S72qQu67gN3tQZqrfUo6blnW3qRl7kwkjOHh4eFMsiYlaWBgwGxoaEh/+umnyaIvGigAghSusn79+uDE/w1O/DcRhhW+WCzmr6gwg4FAwJdKpXyJRNLv9/t9c7n/yoD/YX+g4o8ka5Mh42FJqgoFtKZloTatXKyWJbX5/YJscGuQ5mifI6Zp7TIt6/hYMn58Lvfn9/sygZqSpETCl6yqqkonEglzeHg4VVNTkx4dHTUHBgbMt956K7Fjxw4zj18OYBtBioLLaoxBScGqqipfTU1NIBOMkgLzCUW7whVVb/h8+p6yWmp9bUivbF6iliUPOH6BkpuCdKb2acrcFU+ax9Lp5Gix1uP3+5KBQMBMpVJmIuFL+v3+ZDweNwOBQHJ0dNSUlKTxolgIUti2fv364MDAgL+hoSFUV1cXSKfTwWAw6TMMf8iJgJyr6VqqJG1a2ehoS3VDkGa/beXu9pkwk7tTqfR1RxY2S+l02gyHq5KpVMr0+6vHEomEmU6n46Ojo+b27dvHaLfIB4IUs7J+/fpgTU1NKJVKBWtqagKp1EjQMPyhdNoM3v+zvcNNLdWpIM11XJmk46m0+f/MdevWzTJBm0zGk4FAbXJ0dDQVi8XiotFiDghSTDHxGmU40ywrKsyqUgvL2agM+B/2+YJvGD59z6mWWuwgzTGyb8Q0rV3xdHpXMbdu3SA7ZE2zMp5Op+O9vb2p3t7eMafXBnchSMvUjh07fDt37qxYsmRJVSAQCIXDvlA0Ggu6fRvWCZXB0Is+v/E9n4wXMrfV14Ym35daqJZajCDNNTBeJdg+8yWdTpsVFcG43189Jil+/vz5BOFa3gjSMrFjxw7fgQMHwlVVVVXpdKQykUiGCM25GW+pFZsMn/VH2S11TUu9Nq1s1OqW+rw+XiGDlPaZX5lwTaeD0eHh4Rivv5YXgrRETVwpW7l48eJqw4iH4/GE92bkuVhlMLTJ7/d9z5DeyNyW75GE+Q7SHO1zRLKOp9LWLtpnfvn9vlgmWD/99NOo0+tB4RCkJSQTnjU1NbVSfAGNs/BytdR8jCTMV5DmaJ/nTdP6kPZZHH6/L5lI+GKjo6MjhGrpIUhLwPr164N1dXW16XR0IeHpnHy3VDtBmuO4shFL2p1Omx/SPp3j9/uS0ag5HIvF7nBlcGkgSD1s4i0pDX5/yj3jeDDZUn0+vSnpqcztc22pcw3SXMeVSTpumuaH8bT5z7RPtwkNDA8PjxCo3ua+AaOYlVdffbU2Fhte7PenaKAuM5ZKX5diuyXtDgWCTwUCgTcN6YVL10ZqL10b0e6DV7SmZaHWtNSrZUmtrTm/sXhqon3eO7KP9ukF8YaGhura5ubmPq789S6C1INefHH9A4nE6L/z+/33/2A4Kp5Kno+nkv+n3x+sCfkDL/p8+l4sntp0vKtfx7v6JY031Ycbq7V8IlTra0NaOM028NBIXLF4Stf7o7reH5n4L3rP21Zon96STpvB5uamJZKuEabexNauB7300nOPluOQhFIxvvUbeNHn872orAlKNhw3TeuYF0b2IbeKikD0vfcOXHN6HZg7GqkHTcyvdXoZmKfxrd/0Lkm7/P5gTdDne8pvGE9bPj3lk1EjaYWkaV73tq5LxogldVumed60dD1pFndYPAonHk/wTe1RBKkHVVUFbicS1kKn1wH70unkaDqt45KmfR0zEPA/TMssD6HQA0NOrwHzw9auR7366rcaCVOgVCQGPvro+IDTq8D8sJXgUZcuXY3W1zemqqtDIcuy+HsEPMjv98WGhqJfHTlycuT+Hw23opGWgPXr1z/Q0FBdzwVIgDf4/b7YwEBkgClHpYEgLSHr168P19TU1Jbr0WeAm6XTadPvTw8ND6eZvVtiCNIStX79+vDixYur4/F42DAYWA84YXxw/ViU8CxtBGkZyBzWXVNTU+Xz+UIEK1AYllURD4VC0VgsFmtra4tylFp5IEjLUOaUmLq6uiq/PxnmbFJg7jInuqRSqXgsFotzBmn5Ikgh6etwraqqClVUpMOBQNBHwALjr236fFVJ0zTjhCamQ5BiRs3NzZUNDQ2+qqqqUE1NTSCdjlSmUgEf28MoNX6/L5lKJROhUF3i5s2bCUlJSUlOZsH9EKSYt+yQDYVCPsuKVgYCQZ+kAFcNw238fl9SUiqR8CX9fn9yeHg4JcISeUCQomAmLnIK1tTU+FKpVLCmpiYQjw9XBAJBXyoV8JlmLMjWMexKp9NmRUUwnUolE6YZSvv9/mQ8HjcDgUCyt7c31dDQkCYoUUgEKRyXCdyJXwbr6uoCFRUVvlgs5q+omGy2gYlh/QRviZtojpKUSqWSZnY4xmIxs6amJk1Awk0IUnjOxIVRfmWFryTV1dUFJCmdTgclKRPCqVTAFwiMH4DOlnPhZYIwlQqYgUDKzITh+O/5k5I0sa0qScmBgQGzoaEhvX379jQX8MCLCFKUpawwlr4OZNXU1PhGR0f9klRVVeULhUKTDTjTkrPvJ6sxT8oO7ukUqllnNblpZYJt6m1fh1xGVVVVOpFITH5cVuippqYmPTo6akpSJgAliRBEOfv/AfWf5iMSq39nAAAAAElFTkSuQmCC;" parent="1" vertex="1">
          <mxGeometry x="797.13" y="545" width="82.87" height="85" as="geometry" />
        </mxCell>
        <mxCell id="jZqQJDO1DeQj0pR3HVui-3" value="REMOTE&lt;div&gt;MODULES&lt;/div&gt;&lt;div&gt;OFFLINE&lt;/div&gt;&lt;div&gt;CACHE&lt;/div&gt;" style="rounded=1;whiteSpace=wrap;html=1;" vertex="1" parent="1">
          <mxGeometry x="150" y="170" width="120" height="70" as="geometry" />
        </mxCell>
        <mxCell id="jZqQJDO1DeQj0pR3HVui-6" style="edgeStyle=orthogonalEdgeStyle;rounded=0;orthogonalLoop=1;jettySize=auto;html=1;entryX=0.408;entryY=0.976;entryDx=0;entryDy=0;startArrow=classic;startFill=1;entryPerimeter=0;fillColor=#a20025;strokeColor=#6F0000;" edge="1" parent="1">
          <mxGeometry relative="1" as="geometry">
            <mxPoint x="220" y="320" as="sourcePoint" />
            <mxPoint x="220.45999999999998" y="240" as="targetPoint" />
          </mxGeometry>
        </mxCell>
        <mxCell id="jZqQJDO1DeQj0pR3HVui-7" style="edgeStyle=orthogonalEdgeStyle;rounded=0;orthogonalLoop=1;jettySize=auto;html=1;entryX=0.75;entryY=1;entryDx=0;entryDy=0;startArrow=classic;startFill=1;exitX=0.75;exitY=0;exitDx=0;exitDy=0;fillColor=#e3c800;strokeColor=#B09500;" edge="1" parent="1" source="C3Z15jD0Rza0DjGdYUHB-1" target="jZqQJDO1DeQj0pR3HVui-3">
          <mxGeometry relative="1" as="geometry">
            <mxPoint x="220" y="370" as="sourcePoint" />
            <mxPoint x="220.45999999999998" y="290" as="targetPoint" />
          </mxGeometry>
        </mxCell>
        <mxCell id="jZqQJDO1DeQj0pR3HVui-8" style="edgeStyle=orthogonalEdgeStyle;rounded=0;orthogonalLoop=1;jettySize=auto;html=1;entryX=0.408;entryY=0.976;entryDx=0;entryDy=0;startArrow=classic;startFill=1;entryPerimeter=0;fillColor=#1ba1e2;strokeColor=#006EAF;" edge="1" parent="1">
          <mxGeometry relative="1" as="geometry">
            <mxPoint x="200" y="320" as="sourcePoint" />
            <mxPoint x="200.45999999999998" y="240" as="targetPoint" />
          </mxGeometry>
        </mxCell>
        <mxCell id="jZqQJDO1DeQj0pR3HVui-9" value="" style="shape=image;aspect=fixed;image=data:image/png,iVBORw0KGgoAAAANSUhEUgAAAMgAAADICAYAAACtWK6eAAAABHNCSVQICAgIfAhkiAAAAAlwSFlzAAALEwAACxMBAJqcGAAADphJREFUeJzt3XuUndMZx/HvmZlELnIziVxEREhEWUWJpFRIKEoILa3V0Go1pC7LdVHV0urdpVWlShEaUlZotUW1VIvqRYK4ppEgSFwiFyGJTEYy/eOZI8fMed85Z+/9vu85Z36ftfaarJWZ/e73Pe9z3sve+9kgIiIiIiIiIiIiIiIiIiIiIiIiIiIiIiIiIiIiIiIiIiIiIiIiIiIiIiIiIiIiIiIiIiIiIiIiIrWgPusGSEX7KfBxYDawMeO2iFSUsVhQtADPAROybY5I5agH5mDBUVhmAkMybJdIRZhG++DIl3eBM4EumbVOJEMDgBVEB0i+PAOMz6iNIpm5gY6Do7DMAAZl0lKRlH2S8oIjX1YBn86gvSKpqQeexC1A3gEGpt9kkfScgltwtACnZtBekdRsiV0FXILjSaAh/SaLpGc67lePvTJor0hq9sY9OG7MoL0iqWkA5uIWHCuxWzORmnUa7lePkzNor0hqBmL9Fy7B8QQaCS417mbcrx7jMmivSGr2wT04fp1Be0VS0wA8jVtwrAD6p99kkfScjvvV46QM2iuSmsG4P5jPRg/mUuNm4BYcG4ExGbRXJDXjcb+1ujaD9oqkpgs2A9AlOJYDjek3WSQ9Z+F+9ZiaQXsrRi7rBnQiOWBzYIs2pQf28FsP1BX8ez3wXmtZXfDzLTYNTS/FEGB+67bL9Rg2y7DT5sTSOP6w+gEfA7YFRrT5OZhwx3stsLhNmQ88C8wD3i/43ctwC44WbBJVpw0O0BXEx2DgE8BuBT+HZ9mgVi3Ai1iwLMFOche/Ar4eqlHVSgFSukFYdsGJrWVEts1J1DJgB6znXKSoLsD+wC+A53F/yK3G8tUAx09qUDfgMGwK6nKyP1GzKP/GXhaIAHYyTARuxd4UZX2CZlk2YM9TIgwGzgcWkv2JWSnlKq8jKlUvhz1X/AH4gOxPyEoqS7HX1MX0AK4H9kMvdmpSPXA0xVP6q1g5Pub4XVzwe3OBKSi7e03oBpwILCD7E7CSy6NEP5iPBJqK/M0ibJmEzSKPvlSsBuAErKMs65Ov0ssGYNeI45gD7uvg71/DvoR0RakCOew17XNkf+JVS7ky5ngeWUY9C7Db2Jp6RqmlnRkLXIolJKg0a7DxUktay9vYSk3vFfxsxj6PHHa7Uwd0B/oWlH7Y27dtgGH43968BYzGBj+21RPrIB1WZp3/wab1PubXNAllC8pf9CWp8gpwD3AJ9tA7Bjuxk/giqsNyW033aO9xMfX/0KPeltZ2DQi0r+IgBxyLvZ7MIhjWAf/EguEIslkfYxg2stel/Y8QHbg7YMPtfY/RCuBrqGc+ddsD95N+UCwAfg4cjN3+ZO1O3PbjA2z982JywF8d640qf8c+M0lYDjgDm++QVlDMAc7GXndWkoNx36efxdR7lEe9cWUtttCOriYJGQjcSzpB8T/gQmBUKntWvs1w79t5A+gTUe/m2MuEJI/t/Wit9eAOAt4k2Q9uPTATWy+j0t/uXYD7fk6JqXcYlrN3nUf9pZRl2Ot48dQVuJxkP6zXsBOuWhahHI77g/lDlBb8jcA3SP5qchnqYHS2JfaWKKkPZyE2MahrWjsUyF247e8HwM5lbqsr9rp6nuM2SymPoHXWy7YL1qeQxAcyD3s9XI0JKw7Ffb8v99huPXAMyQXKEmBPj/YlphLvtT+LpcjsEbje17FbqRnY+KOsNGBXx0FAb6zHuie2v3VY2zZg3/irsV7ula3/fhC3ufBvYD3m7wZo+3HAd4GtPetqqwm7Wt0WuN6akQO+Tfhvp7XYB9ozvV2hKzYzb0rrtn8LPI4N7djouB8+5ZjA+9cd+7JZnUBbv0VlfnFnqh7L/xr6YM8EhqbQ/qHAl4BfYmOQig0Pz6o8SHIn3FZY8Idu83VU5y1wIroQ/iC/ChySYJu7A5OxgJgfuO0hSzOWyC5pBwIvBW7777H5PJ1ad+Buwh3UjVianl4JtLUXdqsyi2RuLZIolyRwHKL0wHroQ95C/g23rJA1oTfwD8IdzEXApwK3MQfsC9xE9QRFviwm+ouiN3ZLO5HwQz/GY59FqP14JGY/atpEwowYbcEG7UUlHHDRBxt/Vc0ZTz4fs3+Fna8LsOzvfR2OU5Q+WBqlEPvRhH1JdUqT8QuSdVj+2FAPodtitwnVnh/rgZhjsjPFM7qsxkYqb1P+YSsqh0179hlY2gRMCtSequUaJC9jHYohDAdupDZSAa3H+jyKyWHDTeL+vrn1WITKPbwb9lkpODyUGyQPE2a22lbANWVuu9LLj2P299gy6mnGMryHGAbSiD1wKzg8lBokN+A/fqob1tG1poTtVVN5jei3Pn1wGxG9BuvA9Z0g1gULOAWHh46C5Gz8njdywOHY+hlZn8xJlM/F7PsVnnW/jP+JmwPOjdmGgqMExYJkA9ZT7WMQ8Dv8TpJKLn8h+stjF+wYhtjOHfjfdk2h/fOegqMMhUGyHhvA6CoHfJHKWM7gTWx5gduxDs0LgdOwtz3HYrdILvWuJ3r2Yx3hpw2saD2mPlfzSWyamKXgcDAZG8V6oEcd/XBPbOBTmrExWVdiJ/+edNwjfLTH9n4QU++XE9zP2/HrPzkA+4wVHI6i5k6XYk/cXi+6ljlYLqn9KP+B1mcu+CtEj1TuS/JpkRYB48rc30I+n7E4yGc+SfrV7Qbs1eXJWLZDHz/xaMeRMfWOwYbzJD3Efj2WsUTD1CvcZljSgSRPhoXAN7E+lBB2xG7JXNryZ0o7KbcmncWCbkLZ3itWf2xgW1If/r1YdpWQg/tylNeBVliaKD9XVx32THeP4zZLKY+ilKMVZxTJ9G1swKbo7phQu7/g0bbveW57J+AWwr3+LSwLqbxEe53WLthU1tAf8q0kmziuF+7rlywi3Jz90djbqNDH7y1sHJZkaBz2mjDkB/sw9nCbtEs92jg5gfaMwW6PQh7LVfi94RIPvQnb+bcU6+FN403MTrg/mN+dYBtz2IiFtx3bVqy8TSed8FQJJhEmQcJ0bJ2RNOSwbOcu7VwHbJdCGxuB3zi2sW17D06hvRLDJ0iWYoMXk5TD5lYcBVyEe2bEFuA7Cbe1rcm4X00UHBXEJUjuwxK4hZbDHnzPwIJhWZntiiovEd1D37d1m0nceg3CZigqOKpcqUGyEfsmrg+47RywB5ZFJKnOuLjxSvl5Fguxh//dCRss9VgCPAVHlesoSN4j7MC4RmyOyvMx2wxR/hjThjEUH0ryPJaMIeSz1RHEZ3dRcFSBqCBZTLg57COx7H9prHT1PpZMoph6YHYHf78Wu8KEWgJtN4r33yg4qkjbIHmWMGOnRmEdiGnm170wpj0nlVFPflRAiEAZxkczvSs4qlA+SB7Hxmn5GIClGU0768mLRKffHIBNXCq3zmZsnkqj3yGhP/AECo6qti9+E3rqgGnYEgRpBka+HBrTtus9614OTMVv8GU/LJOidEIjCT/0opxyV0zbxgXczkOk0/koNSIHnEi2KYHWYsnsiqnHbm1Cbm81thydJjxJrF7YCkdZBUa+XBDTxlMS3O4tpLvQkFSR7bC3XVkHxwKiZ+VtSfLPQ08RffWSTmovwg0J8S1xb4Smp9SGpcDYMo6f1LDDSKfDr5RyZ0w7c8AE4DysZ31Vwm1ZA3ym5KMoNelo3OdlhC5rsQ64UjVgr1ivwFaxTaJNvkn7pMqFmk8SopzvsR/1WJ9JyOXsWlAnoBAmSJqxnLWuCRDmEy5dzg5Y+h3fXn8Fh3zIJ0hmYeObrnT8+xb80qtGGY375CwFh7RTbpC8gK2zCLAr7lePWQnv10GUt0SzgkMilRokV7Bpdl8d7kNSVgNDk98tegJXldAeBYd0KC5IltH+1efxEb9bSjk30T1p73Ci0yQpOKRkxYLkGdr3MPfDPXv6PPyXknOxPe1nQCo4pGyFQfIAloerratxv3rsn2zzY/XFsr4rOMTLJCwtZ7FXsLvjPrPwtqQbXoLuWM+9giOGhje7qQP+hdt4pTVYX8WSIv/XgC3N1hWb0LQYG7z4FPC6U0tFMnAC7rdW58TUe3rM372KDVY8Ev8lmUUSswXuI3+fw9YLL2YwpQ9AfAebIz869M6J+LoG96vHhJh6ZzjWOQu7ZRPJ3B64P5jPjKl3vGOd+dKMZVTUbEDJTB22tLPLCfwuMCSi3i5YH4tPgOTLC1gQi6RuKu4n7pkx9Z7lUW+x0oS9RBBJTX/cF+t5hugH8yFYvuCQAZIv30ev8SUl1+F+osYlVpvpUW9HZR3JLT4q8qGxuD+Yz4ipd4JjnaUGh3rIJXH1wBzcTtJV2OIzxXQhuSUTFBySmmm4n6inx9R7jke9Cg6pCK7Z01uAp7FxVcUMJX4RGgVHBYn6EAV+hM33cHEKljShmMvZ1KH3X2ytxDnYUgcrsTdP/bCFP8dgU2Y7GhTZhK3+dJ9je0XK4pM9/eaYeg/ATuarsezxpRqFDXFZX2R7unJIqnyyp78DDIyotytwLXayuxrNR+e/KzgkdT7Z00+NqbeRMLe0DVjSCAWHpM4ne/qTpPdMl0OL3kgGpuN+9dgrg/aKpGZv3IPjxgzaK5KaBmAubsGxErs1E6lZp+F+9Tg5UBt6YH0f2xK99LNI6gbivhjNE9hrYVeN2HqET/PRAZEbWus+D79lrEW83Yz71WOcx3a/QmlvzJYDUzy2I+JsH9yD43qP7U522N4hHtsTKZvPXPAV2GBGH+dT2jyTjaSf5FqEEdgAQZcAmRaoDUdhaxNGbWcNlihOJBPdgIuwYRulBsds/B7M2xpD8UU4X8fy/4pkbgSlLYC5ETuhQ9say7+b385c0llYR6QshwEvEx0g1ya47V5YkP4J2DzB7Yh46QFcTPsFdJZj/RZJqscS1IlUvJHYDL18gEzNtjkilSeHvUW6A32zi4iIiIiIiIiIiIiIiIiIiIiIiIiIiIiIiIiIiIiIiIiIiIiIiIiIiIiIiIiIiIiIiIiIiIiIiIhUrf8D5e0wr5jYmpsAAAAASUVORK5CYII=;" vertex="1" parent="1">
          <mxGeometry x="230" y="130" width="70" height="70" as="geometry" />
        </mxCell>
      </root>
    </mxGraphModel>
  </diagram>
</mxfile>
